<?xml version="1.0" standalone="no"?>
<!DOCTYPE svg PUBLIC "-//W3C//DTD SVG 1.1//EN" "http://www.w3.org/Graphics/SVG/1.1/DTD/svg11.dtd" >
<svg xmlns="http://www.w3.org/2000/svg">
<metadata>
This is a custom SVG webfont generated by Font Squirrel.
Copyright   :  2005 Microsoft Corporation All Rights Reserved
Designer    : Jeremy Tankard
Foundry     : Microsoft Corporation
Foundry URL : httpwwwmicrosoftcomtypographyctfonts
</metadata>
<defs>
<font id="webfont70gaW2G0" horiz-adv-x="1079" >
<font-face units-per-em="2048" ascent="1524" descent="-524" />
<missing-glyph horiz-adv-x="421" />
<glyph unicode="&#x9;" horiz-adv-x="421" />
<glyph unicode="&#xd;" horiz-adv-x="421" />
<glyph unicode=" "  horiz-adv-x="421" />
<glyph unicode="&#x09;" horiz-adv-x="421" />
<glyph unicode="&#xa0;" horiz-adv-x="421" />
<glyph unicode="!" horiz-adv-x="598" d="M166 0v266h268v-266h-268zM168 1337h264l-24 -858h-218z" />
<glyph unicode="&#x22;" horiz-adv-x="806" d="M111 786v551h211v-551h-211zM487 786v551h211v-551h-211z" />
<glyph unicode="#" horiz-adv-x="1359" d="M111 356v183h233l53 260h-204v182h241l74 356h190l-73 -356h239l74 356h190l-73 -356h196v-182h-233l-53 -260h204v-183h-243l-72 -356h-190l71 356h-239l-72 -356h-191l72 356h-194zM535 539h239l53 260h-239z" />
<glyph unicode="$" d="M115 725q0 72 22 119q25 51 70 88q53 43 110 61q63 20 146 31v104h158v-100q63 -2 149 -16q63 -10 137 -35v-199q-162 51 -286 58v-224q43 -6 124 -26q59 -14 111 -47q47 -29 78 -82q31 -51 31 -131q0 -127 -90.5 -201t-253.5 -92v-103h-158v99q-115 4 -187 16 q-80 14 -143 41v197q39 -14 78 -25q70 -18 76 -18q78 -12 82 -13q86 -6 94 -6v219q-61 8 -125 25q-61 16 -113 47q-49 31 -80 82q-30 53 -30 131zM334 735q0 -43 31 -63q27 -18 98 -33v190q-76 -10 -103 -32q-26 -25 -26 -62zM621 229q125 16 124 93q0 43 -30 63 q-29 20 -94 33v-189z" />
<glyph unicode="%" horiz-adv-x="1693" d="M45 929.5q0 114.5 23 190.5q23 78 67 135q43 55 101 82q55 27 131 27q74 0 129 -27q61 -29 102 -82t66 -135q23 -76 22.5 -190.5t-22.5 -190.5q-25 -86 -66 -137q-39 -49 -102 -80q-55 -27 -129 -26q-76 0 -131 26q-61 29 -101 80q-43 55 -67 137q-23 76 -23 190.5z M262 929.5q0 -57.5 6 -102.5q8 -57 17 -82q12 -33 32.5 -53t49 -20t49.5 20q18 18 30 53q12 33 19 82q4 31 4 102.5t-4 102.5q-6 46 -19 80q-14 39 -30 55q-18 18 -49 19q-31 0 -50 -19q-20 -20 -32 -55q-8 -25 -17 -80q-6 -45 -6 -102.5zM293 66l977 1306l129 -98 l-975 -1309zM1008 420q0 115 22 190q25 82 66 135.5t102 81.5q55 27 129 27q76 0 131 -27q57 -27 101 -82q45 -57 67 -135q23 -76 23 -190.5t-23 -190.5q-25 -82 -67 -137q-39 -51 -101 -80q-55 -27 -131 -26q-74 0 -129 26q-63 31 -102 80q-41 51 -66 137q-22 76 -22 191z M1225 420q0 -55 6 -103q8 -57 16 -81q12 -35 31 -54q20 -20 49 -20q31 0 51 20q18 18 31 54q8 25 16 81q6 47 6.5 102.5t-6.5 102.5q-8 55 -16 80q-14 39 -31 55q-18 18 -51 19q-31 0 -49 -19q-16 -16 -31 -55q-8 -25 -16 -80q-6 -47 -6 -102z" />
<glyph unicode="&#x26;" horiz-adv-x="1415" d="M90 334q0 70 21 123q20 51 59 100q37 45 82 82q46 37 98 68q-49 49 -71.5 73.5t-55.5 77.5q-25 39 -37 84q-14 49 -14 96q0 78 27 138q27 61 78 102t124 63q78 23 166 23q98 0 168 -21q76 -23 125 -59q52 -40 80 -98q29 -61 29 -135q0 -66 -23 -123q-25 -61 -55 -99 q-35 -41 -84 -79q-46 -37 -98 -68l112 -117l133 -137q29 51 54 129q23 74 28 158h232q-16 -147 -56 -248q-45 -113 -106 -197l94 -98l82 -84l57 -59q10 -10 15.5 -16.5t7.5 -8.5l4 -4h-338q-6 6 -17.5 21.5t-19.5 23.5l-55 61q-90 -61 -209 -98q-106 -33 -225 -33 q-92 0 -168 25q-70 23 -129 72q-51 43 -84 114q-31 68 -31 148zM336 336q0 -45 14 -74q14 -27 41 -51q25 -20 60 -31q37 -10 73 -10q70 0 138 20q63 20 133 66l-76 78l-78 80l-74 75l-69 68q-45 -29 -66 -45q-31 -25 -51.5 -51.5t-32.5 -57t-12 -67.5zM418 1044q0 -35 8 -57 q10 -27 29 -51q25 -33 45 -51l59 -58l66 45q20 14 51 50q23 27 35 55q12 31 12 63q0 59 -41 94t-113 35q-35 0 -65.5 -10t-46.5 -26q-23 -23 -31 -41.5t-8 -47.5z" />
<glyph unicode="'" horiz-adv-x="430" d="M111 786v551h211v-551h-211z" />
<glyph unicode="(" horiz-adv-x="624" d="M100 518q0 115 19 213q20 115 47 187q31 86 67 159q29 57 78 129q43 63 78 101q43 47 70 67l127 -119q-51 -53 -103 -131q-47 -72 -86 -164t-59 -200q-23 -117 -23 -242t23 -242q20 -104 59 -198q39 -92 86 -164q51 -78 103 -131l-127 -119q-27 20 -70 68q-35 37 -78 100 q-49 72 -78 129q-37 74 -67 160q-27 76 -47 186q-19 102 -19 211z" />
<glyph unicode=")" horiz-adv-x="624" d="M41 -217q51 53 102 131q47 72 86 164q39 94 60 198q23 117 22.5 242t-22.5 242q-20 109 -59.5 201t-86.5 163q-51 78 -102 131l127 119q18 -14 68 -67q43 -45 79 -101q49 -72 78 -129q37 -74 68 -159q27 -72 47 -187q18 -98 18 -213q0 -109 -18 -211q-20 -111 -47 -186 q-31 -86 -68 -160q-29 -57 -78 -129q-33 -47 -77 -100q-33 -37 -70 -68z" />
<glyph unicode="*" d="M100 940l60 180l170 -57l157 -100l5 4l-46 182v188h189v-188l-45 -182l4 -4l158 100l170 57l59 -180l-170 -57l-188 -13l-2 -6l145 -119l113 -157l-154 -113l-113 160l-67 174h-8l-68 -174l-115 -160l-151 113l112 157l146 119l-2 6l-189 13z" />
<glyph unicode="+" d="M115 436v191h325v344h199v-344h328v-191h-328v-344h-199v344h-325z" />
<glyph unicode="," horiz-adv-x="647" d="M10 -412l193 678h276l-217 -678h-252z" />
<glyph unicode="-" horiz-adv-x="679" d="M121 393v215h440v-215h-440z" />
<glyph unicode="." horiz-adv-x="598" d="M166 0v266h268v-266h-268z" />
<glyph unicode="/" horiz-adv-x="602" d="M8 -250l379 1587h209l-381 -1587h-207z" />
<glyph unicode="0" horiz-adv-x="1054" d="M66 483q0 111 30 203q33 98 88 162q55 66 146 106q84 39 198 39q117 0 201 -39q86 -39 143 -106q55 -63 89 -162q29 -86 28 -203q0 -115 -28 -200q-33 -98 -89 -162q-57 -68 -143 -107q-84 -39 -201 -39q-115 0 -198 39q-90 41 -146 107q-55 63 -88 162q-30 91 -30 200z M309 483q0 -147 58 -233q53 -80 161 -80q106 0 160 80q57 86 57 233.5t-57 233.5q-55 82 -160 82q-106 0 -161 -82q-58 -87 -58 -234z" />
<glyph unicode="1" horiz-adv-x="1011" d="M90 621v210l391 138h183v-768h282v-201h-835v201h315v516z" />
<glyph unicode="2" horiz-adv-x="1021" d="M90 0v145l201 142q106 80 166 133q74 68 112 123q43 61 43 119q0 31 -14 59q-12 25 -35 39q-27 16 -55 22q-31 6 -70 6q-68 0 -158 -22.5t-180 -67.5v201q25 14 72 33q61 25 88 31q53 14 100.5 22t110.5 8q88 0 156 -20q71 -22 123 -62q51 -39 79 -100q27 -55 27 -137 q0 -78 -29 -135q-33 -68 -79 -119q-43 -47 -123 -111q-39 -31 -156 -112v-4q123 8 207 8h262v-201h-848z" />
<glyph unicode="3" horiz-adv-x="997" d="M76 -147q66 -29 129 -46q74 -18 160 -18q78 0 131 18q52 18 86 50q31 27 47 71q14 37 14 84q0 70 -27 111q-29 45 -77 65q-23 10 -60 15q-68 6 -82 6h-155v201h106q33 0 82 4q35 2 66 16q55 20 88 70q31 45 30 121q0 46 -18 79q-14 27 -49 52q-27 18 -74 28.5t-82 10.5 q-80 0 -155 -17q-61 -14 -140 -45v205q61 23 144 43q68 16 182 16q98 0 184 -28q80 -27 137 -78q55 -49 86 -117q29 -63 29 -143q0 -100 -43 -181q-41 -76 -139 -122v-5q43 -12 86 -40.5t67 -65.5q29 -41 43 -88q16 -53 17 -111q0 -96 -31 -176q-31 -78 -96 -135 q-65 -55 -160 -86q-94 -31 -225 -31q-25 0 -78 4q-23 2 -78 11q-41 6 -78 18q-43 14 -67 27v207z" />
<glyph unicode="4" d="M66 0v170l364 799h242l-355 -774l2 -2q72 8 193 8h102v248h238v-248h174v-201h-174v-387h-238v387h-548z" />
<glyph unicode="5" horiz-adv-x="1001" d="M90 -150q72 -29 143.5 -45t131.5 -16q82 0 137 18.5t92 49.5q35 29 51 75q16 45 17 95q0 55 -19 98q-18 41 -57 72q-39 29 -101 45q-57 14 -145 14q-31 0 -100 -4q-31 -2 -115 -14l102 731h678v-215h-477l-43 -310q10 0 26.5 1t22.5 1q115 0 205 -30q96 -33 149 -84 q57 -55 89 -131q31 -78 30.5 -168t-35.5 -176q-31 -76 -102 -142q-68 -61 -164 -94q-100 -35 -223 -35q-80 0 -158 17q-68 14 -135 41v206z" />
<glyph unicode="6" horiz-adv-x="1126" d="M94 580q0 164 39 301q41 143 117 249q74 102 188 170q109 63 258 64q83 0 154 -18q76 -20 108 -35v-205q-86 31 -120 39q-57 14 -123 14q-63 0 -119 -20q-58 -22 -104 -68q-47 -47 -84 -120.5t-56 -174.5h4q106 49 244 53q92 0 170 -26q82 -29 137 -78q59 -53 92 -127 t33 -174t-31 -182q-31 -84 -88 -141.5t-145 -92.5q-84 -33 -193 -33q-114 0 -202 43q-94 45 -152 121q-59 78 -94 191q-33 107 -33 250zM340 573q0 -106 18 -180q20 -78 50 -123q31 -45 77 -69q45 -23 97 -23q37 0 80 15q37 12 65 40q31 31 45 72t14 105q0 68 -16 106 q-18 41 -45 66q-29 27 -68 34q-45 10 -86 11q-57 0 -118 -13q-58 -12 -113 -41z" />
<glyph unicode="7" horiz-adv-x="999" d="M59 754v215h865v-162l-566 -1194h-243l540 1141h-596z" />
<glyph unicode="8" horiz-adv-x="1136" d="M100 362q0 72 17 119q20 55 49 94q35 47 72 70q49 33 90 47v4q-92 41 -146 115q-55 78 -55 176q0 84 35 158q33 70 94 119t141 73q86 27 172 27t172 -27q76 -23 140 -73q61 -49 94 -119q35 -74 35 -158q0 -100 -54 -176q-53 -74 -145 -115v-4q41 -14 90 -47 q37 -23 72 -70q27 -33 47 -94q18 -51 18 -119q0 -82 -34 -155q-35 -72 -94.5 -123t-149.5 -80t-191 -29q-102 0 -192 29q-86 28 -148 80q-63 53 -96 123q-33 67 -33 155zM344 371q0 -47 18 -84q18 -39 48 -64q27 -25 69 -41q33 -12 90 -12q55 0 88 12q45 18 72 41 q29 25 47 64q16 33 17 84q0 47 -17 90q-14 39 -47 67q-31 29 -70 43q-43 16 -90 23q-47 -6 -90 -23q-41 -16 -71 -43q-29 -27 -46 -67q-18 -47 -18 -90zM373 989q0 -82 51 -133q55 -55 145 -76q90 20 146 76q51 51 51 133q0 43 -16 80q-15 34 -43 55q-27 23 -62 33 q-37 12 -76 12t-75.5 -12t-63.5 -33q-25 -18 -41 -55t-16 -80z" />
<glyph unicode="9" horiz-adv-x="1126" d="M94 547q0 92 31 176q29 80 88 141q57 59 141 94q86 35 193 35q117 0 207 -43q94 -45 153 -123q66 -84 94 -198q31 -121 31 -273q0 -106 -14 -198q-16 -100 -45 -183q-31 -88 -80 -157q-49 -71 -117 -123q-68 -51 -158 -80q-92 -29 -200 -29q-80 0 -162 17q-66 12 -133 45 v207q70 -33 137 -48q88 -18 139 -18q162 0 258 96q94 94 123 305h-4q-59 -29 -119 -38q-80 -14 -139 -15q-82 0 -166 27q-76 25 -135 78q-57 51 -90 127q-33 74 -33 178zM340 561q0 -61 14 -102q16 -45 43 -70q28 -25 68 -37q33 -10 84 -10q61 0 123 12q59 12 114 41 q-4 113 -20 184.5t-51 122.5q-27 41 -76 66q-45 23 -96 23q-47 0 -82 -14.5t-64 -43.5q-27 -27 -43 -71q-14 -42 -14 -101z" />
<glyph unicode=":" horiz-adv-x="598" d="M166 0v266h268v-266h-268zM166 633v266h268v-266h-268z" />
<glyph unicode=";" horiz-adv-x="647" d="M10 -412l193 678h276l-217 -678h-252zM193 633v266h270v-266h-270z" />
<glyph unicode="&#x3c;" d="M115 434v205l852 385v-217l-629 -268v-4l629 -267v-217z" />
<glyph unicode="=" d="M115 233v193h852v-193h-852zM115 618v193h852v-193h-852z" />
<glyph unicode="&#x3e;" d="M115 51v217l626 267v4l-626 268v217l852 -385v-205z" />
<glyph unicode="?" horiz-adv-x="919" d="M100 1106v192q12 6 68 25q25 8 78 20q31 6 82 15q43 6 84 6q100 0 176 -25q80 -27 131 -67q53 -45 82 -107q29 -63 28 -139q0 -59 -12 -102q-10 -39 -35 -76q-16 -27 -51 -57q-18 -16 -59 -46l-70 -45q-39 -25 -63.5 -49t-44.5 -65q-18 -37 -19 -90v-17h-221q0 2 -1 10.5 t-1 12.5v22q0 74 18 127q18 51 49 88q29 35 68 64q37 28 74 49l47 33q25 16 41 36.5t26 45.5q10 27 11 55q0 68 -49 106q-51 41 -154 41q-78 0 -152 -18q-59 -14 -131 -45zM236 0v266h268v-266h-268z" />
<glyph unicode="@" horiz-adv-x="2097" d="M180 455q0 201 62 368q57 160 178 287q115 121 278 186q170 68 367 68q182 0 342 -59q158 -59 270 -162q115 -106 178 -250q63 -145 64 -324q0 -133 -35 -243q-33 -102 -92 -179q-57 -74 -139 -110q-80 -37 -174 -37q-53 0 -84 8q-33 8 -62 27q-25 14 -41 39 q-16 23 -28 51h-4q-27 -31 -48 -45q-25 -18 -67 -39q-35 -16 -82 -31q-35 -10 -92 -10q-72 0 -125 20q-59 23 -98 60q-43 39 -64 94q-23 57 -22 123q0 78 26 133q29 59 76 98q51 41 115 62q72 23 149 22q74 0 117 -8q70 -12 82 -16v37q0 35 -10 61q-14 35 -35 53 q-25 23 -64 37q-37 14 -94 15q-66 0 -137 -17q-80 -18 -150 -45v176q12 6 66 25q29 10 76 20q27 6 84 15q29 4 86 4q98 0 176 -24.5t127 -67.5q51 -45 75.5 -102.5t24.5 -129.5v-389q0 -29 2 -41q2 -14 10 -31q6 -10 21 -18q16 -8 33 -8q47 0 88 28.5t71 79.5q27 47 47 125 q18 74 19 166q0 163 -55 283q-59 127 -146 202q-92 80 -217 121q-119 39 -262 39q-186 0 -321.5 -61.5t-219.5 -164t-125 -235.5q-41 -135 -41 -278q0 -156 45 -285q47 -133 140 -229q90 -92 231 -150q138 -55 326 -55q90 0 162 8q94 10 147 23q82 18 129 32q88 29 104 35 v-159q-23 -8 -108 -35q-61 -18 -135 -31l-150 -23q-72 -8 -155 -8q-119 0 -246 27q-111 23 -219 76q-101 49 -185 123q-82 72 -141 170q-55 90 -88 215t-33 258zM891 305q0 -35 10 -55q12 -27 29 -39q18 -16 45 -23q33 -8 51 -8q29 0 64 10q41 12 57 23q35 20 45 31 q14 12 35 32v142l-72 14q-40 6 -86 6q-78 0 -131 -32q-47 -29 -47 -101z" />
<glyph unicode="A" horiz-adv-x="1345" d="M31 0l530 1337h223l533 -1337h-260l-131 342h-504l-131 -342h-260zM502 547h346l-47 119q-47 123 -125 350h-4q-78 -227 -125 -350z" />
<glyph unicode="B" horiz-adv-x="1275" d="M160 0v1337h465q154 0 239 -28q74 -23 119 -58q47 -35 82 -80q34 -43 49 -92q14 -45 14 -98q0 -86 -38.5 -157.5t-128.5 -121.5v-4q61 -23 92 -43q41 -27 71 -63q29 -35 45 -82q16 -49 17 -104q0 -53 -15 -105q-16 -57 -55 -108q-41 -55 -104 -97q-70 -45 -164 -69 l-55 -13q-23 -4 -66 -8q-49 -4 -80 -4q-12 0 -45 -1t-53 -1h-389zM406 205h159q49 0 111 4q53 4 78 10q52 12 86 31q37 20 55 40.5t29 53.5q10 31 10 59q0 53 -33 99q-29 41 -96 63q-28 9 -68 13q-53 4 -100 4h-231v-377zM406 786h221q100 0 147 21q53 20 80 63q23 37 23 93 q0 53 -27 94q-25 39 -92 61q-29 10 -64 12q-25 2 -88 3h-200v-347z" />
<glyph unicode="C" horiz-adv-x="1196" d="M100 645.5q0 149.5 47 284.5q45 127 134 225q86 96 219 152q137 57 297 57q84 0 161 -12q80 -12 138 -33v-209q-96 29 -150 37q-59 8 -135 8q-100 0 -184 -33q-86 -33 -146 -96q-61 -66 -94 -154q-35 -94 -35 -213q0 -113 33 -206q31 -90 88 -150q55 -57 141 -90 q83 -31 191 -31q74 0 153 13q78 12 150 34v-211q-63 -18 -152 -32q-68 -10 -168 -11q-176 0 -299 48q-131 49 -215 137q-88 92 -131 213q-43 123 -43 272.5z" />
<glyph unicode="D" horiz-adv-x="1409" d="M160 0v1337h354q63 0 96 -2t95 -10q55 -8 88 -14q51 -10 79 -21q104 -33 189 -92q86 -59 137 -135q57 -82 84 -178q29 -102 29 -211q0 -108 -25 -203q-27 -100 -72 -172q-49 -78 -124 -137q-80 -63 -177 -99q-92 -33 -192 -47q-115 -16 -244 -16h-317zM406 205h100 q213 0 336 59q106 51 162 154q55 101 55 258q0 83 -19 147q-20 72 -51 119q-33 51 -82 88t-110 62q-59 23 -127 30q-78 10 -158 11h-106v-928z" />
<glyph unicode="E" horiz-adv-x="1161" d="M160 0v1337h866v-204h-620v-347h532v-204h-532v-377h657v-205h-903z" />
<glyph unicode="F" horiz-adv-x="1064" d="M160 0v1337h852v-204h-606v-347h518v-204h-518v-582h-246z" />
<glyph unicode="G" horiz-adv-x="1376" d="M100 639q0 109 23 197q27 100 70 176q47 82 110 145q65 65 148 111q84 47 184 71q98 25 213 25q94 0 192 -16q100 -16 150 -35v-207q-76 25 -158 37q-80 12 -162 12q-117 0 -202 -31q-98 -35 -166 -96q-66 -61 -109 -158q-41 -94 -41 -215q0 -233 125 -354 q121 -119 348 -119q27 0 88 4q16 2 78 13v313h-299v205h545v-676q-16 -6 -76 -23q-55 -14 -104 -22q-43 -6 -119 -14q-61 -6 -121 -7q-186 0 -315 48q-135 49 -223 137q-92 92 -134 209q-45 129 -45 270z" />
<glyph unicode="H" horiz-adv-x="1429" d="M160 0v1337h246v-551h618v551h246v-1337h-246v582h-618v-582h-246z" />
<glyph unicode="I" horiz-adv-x="563" d="M160 0v1337h246v-1337h-246z" />
<glyph unicode="J" horiz-adv-x="823" d="M49 10v209q37 -16 94 -26q55 -10 101 -11q94 0 137 43t43 131v981h246v-989q0 -61 -11 -112q-8 -45 -28 -84q-23 -43 -64 -82q-33 -31 -86 -54q-57 -25 -102 -32q-49 -8 -115 -9q-51 0 -117 11q-58 9 -98 24z" />
<glyph unicode="K" horiz-adv-x="1292" d="M160 0v1337h246v-608h4l503 608h306l-560 -661l605 -676h-314l-540 604h-4v-604h-246z" />
<glyph unicode="L" horiz-adv-x="1099" d="M160 0v1337h246v-1132h624v-205h-870z" />
<glyph unicode="M" horiz-adv-x="1691" d="M160 0v1337h342l231 -637q51 -141 109 -342h6q43 154 108 340l232 639h344v-1337h-246v678q0 150 12 346h-8q-8 -31 -19 -63.5l-22 -63.5l-47 -141l-276 -756h-158l-279 756q-25 70 -47 141l-21 63.5t-20 63.5h-8q12 -184 13 -344v-680h-246z" />
<glyph unicode="N" horiz-adv-x="1488" d="M160 0v1337h258l438 -620q158 -223 236 -365h6q-12 262 -13 379v606h244v-1337h-256l-436 616q-123 172 -238 371h-6q12 -246 13 -381v-606h-246z" />
<glyph unicode="O" horiz-adv-x="1503" d="M100 670q0 152 43 280q41 125 127 219q82 92 205 144q121 51 276.5 51t276.5 -51q123 -51 205 -144q86 -94 127 -219q45 -135 45 -280.5t-45 -280.5q-41 -125 -127 -219q-82 -92 -205 -143q-121 -51 -276.5 -51.5t-276.5 51.5q-123 51 -205 143q-86 94 -127 219 q-43 129 -43 281zM352 670q0 -123 31 -215q29 -86 84 -152q49 -59 125 -90q74 -31 160 -31t159 31q78 33 127 90q51 61 82 152q31 92 31 215q0 121 -31 213q-31 90 -82 151.5t-127 91.5q-70 29 -159.5 29t-159.5 -29q-72 -31 -125 -92q-55 -66 -84 -151q-31 -92 -31 -213z " />
<glyph unicode="P" horiz-adv-x="1228" d="M160 0v1337h387q102 0 168 -8q88 -10 131 -24q137 -43 210.5 -135.5t73.5 -233.5q0 -96 -40 -174q-39 -76 -117 -131q-78 -57 -189 -84q-115 -29 -254 -29h-65q-23 0 -59 4v-522h-246zM406 729q29 -4 53 -4q12 0 34.5 -1t32.5 -1q94 0 166 16q66 14 109 45q39 27 57.5 68 t18.5 88q0 61 -27 102q-29 43 -94 68q-34 12 -86 18q-35 4 -127 5h-137v-404z" />
<glyph unicode="Q" horiz-adv-x="1556" d="M100 670q0 152 43 280q41 125 127 219q82 92 205 144q121 51 276.5 51t276.5 -51q123 -51 205 -144q86 -96 127 -215q45 -131 45 -274q0 -76 -16 -154q-14 -72 -43 -137q-25 -59 -72 -119q-45 -57 -98 -96l2 -4q6 2 17 5t21.5 5t18.5 4q39 8 65 11l70 6q23 2 68 2h18 v-213q-39 4 -127 8q-49 2 -160 2q-80 0 -112 -2q-16 -2 -50 -4t-51 -4q-49 -3 -104 -6q-37 -2 -107 -2q-157 0 -276.5 49t-202.5 141q-82 90 -125 217q-41 121 -41 281zM352 670q0 -123 31 -215q29 -86 84 -152q49 -59 125 -90q74 -31 160 -31t159 31q78 33 127 90 q51 61 82 152q31 92 31 215q0 121 -31 213q-31 90 -82 151.5t-127 91.5q-70 29 -159.5 29t-159.5 -29q-72 -31 -125 -92q-55 -66 -84 -151q-31 -92 -31 -213z" />
<glyph unicode="R" horiz-adv-x="1284" d="M160 0v1337h407q117 0 189 -10q82 -12 147 -35q121 -47 182 -133q66 -90 66 -223q0 -137 -78 -238q-76 -96 -239 -143v-4l397 -551h-293l-365 518h-167v-518h-246zM406 723h120q63 0 142 8q57 6 100 23q76 29 102.5 76t26.5 110q0 51 -23 96q-20 41 -75 66q-43 18 -88 24 q-51 6 -131 7h-174v-410z" />
<glyph unicode="S" horiz-adv-x="1181" d="M119 57v207q106 -47 192 -63q94 -18 195 -19q51 0 112 11q57 10 100.5 30.5t72.5 63.5q27 39 26 98q0 51 -24 82q-23 29 -68 51q-39 18 -96 33q-35 8 -113 24q-102 25 -149 41q-78 27 -125 64q-55 43 -86 106q-31 65 -31 160q0 104 37 184q35 76 100 130q68 55 148 77 q94 27 192 27q102 0 215 -23q121 -25 187 -53v-211q-111 43 -199 60q-96 18 -180 18q-121 0 -186.5 -43t-65.5 -131q0 -49 22.5 -84t57.5 -55q39 -23 86 -35q82 -20 100 -25q109 -23 164 -41q80 -27 137 -65q61 -43 94 -109q35 -70 35 -174q0 -109 -39 -186 q-39 -80 -112 -131q-70 -49 -181 -76q-104 -25 -229 -25q-115 0 -215 21q-102 20 -174 61z" />
<glyph unicode="T" horiz-adv-x="1167" d="M31 1133v204h1108v-204h-432v-1133h-244v1133h-432z" />
<glyph unicode="U" horiz-adv-x="1433" d="M156 551v786h243v-766q0 -139 35 -221q37 -89 111 -129q72 -39 172 -39t172 39q74 40 110 129q35 82 35 221v766h246v-786q0 -78 -10 -154q-8 -59 -33 -123q-29 -74 -72 -124q-45 -53 -110 -95q-57 -37 -152 -59q-82 -20 -188 -21q-111 0 -191 21q-88 23 -147 59 q-61 39 -109 95q-43 51 -71 124q-25 63 -33 123t-8 154z" />
<glyph unicode="V" horiz-adv-x="1304" d="M20 1337h261l247 -663l70 -191l53 -155h4l54 155q16 47 69 191l248 663h260l-522 -1337h-221z" />
<glyph unicode="W" horiz-adv-x="1863" d="M20 1337h261l161 -532q59 -205 117 -455h6q39 201 103 449l139 538h252l137 -538q63 -244 102 -449h7q66 285 116 455l162 532h260l-424 -1337h-243l-152 600q-29 113 -88 385h-6q-47 -219 -90 -385l-152 -600h-244z" />
<glyph unicode="X" horiz-adv-x="1300" d="M20 0l486 680l-465 657h281l190 -274l137 -203h4l135 203l193 274h281l-465 -657l485 -680h-278l-209 299l-142 209h-4l-141 -209l-209 -299h-279z" />
<glyph unicode="Y" horiz-adv-x="1298" d="M20 1337h273l354 -575h4l357 575h272l-508 -798v-539h-246v539z" />
<glyph unicode="Z" horiz-adv-x="1230" d="M90 0v131l717 1002h-698v204h1024v-133l-717 -999h725v-205h-1051z" />
<glyph unicode="[" horiz-adv-x="645" d="M139 -299v1636h447v-172h-242v-1292h242v-172h-447z" />
<glyph unicode="\" horiz-adv-x="602" d="M-8 1337h207l381 -1587h-209z" />
<glyph unicode="]" horiz-adv-x="645" d="M59 -127h242v1292h-242v172h447v-1636h-447v172z" />
<glyph unicode="^" d="M53 512l385 852h203l385 -852h-217l-266 627h-4l-269 -627h-217z" />
<glyph unicode="_" horiz-adv-x="999" d="M0 -141h999v-133h-999v133z" />
<glyph unicode="`" horiz-adv-x="798" d="M0 969zM227 1473h232l119 -349h-185z" />
<glyph unicode="a" horiz-adv-x="1052" d="M86 285q0 82 27 141q28 61 80 104q53 45 122 66q74 23 156 22q70 0 117 -8q80 -14 94 -18v39q0 35 -12.5 65.5t-36.5 55.5q-20 20 -68 39q-37 14 -98 14q-70 0 -145 -17q-70 -14 -156 -47v185q76 31 156 49q83 18 172 18q98 0 184 -26q80 -25 133 -72t80 -106.5 t27 -135.5v-364q0 -121 2 -166q0 -20 1 -62.5t3 -60.5h-213l-11 102h-4q-22 -22 -49 -43q-33 -27 -63 -41q-37 -18 -80 -30.5t-94 -12.5q-70 0 -129 21q-57 20 -105 63q-45 41 -67 97q-23 53 -23 129zM326 295q0 -35 12 -59q12 -23 31 -39q16 -14 45 -25q23 -8 55.5 -8 t67.5 10q41 12 59 23q31 16 49 32q27 25 37 35v150q-23 6 -80 14q-43 6 -88 6q-86 0 -137 -34.5t-51 -104.5z" />
<glyph unicode="b" horiz-adv-x="1140" d="M139 0q4 57 4 106q0 23 1 63t1 58v1221h238v-404q0 -14 -1 -40.5t-1 -38.5v-56h2q22 15 49 31q18 10 60 27q31 12 67 18q49 8 80 8q78 0 156 -30q86 -35 137 -89q61 -66 94 -155q35 -98 35 -217q0 -132 -37 -234q-35 -98 -100 -166q-61 -66 -140 -96q-77 -31 -153 -31 q-57 0 -101 13q-39 10 -75 35q-39 25 -56 40q-33 33 -37 39h-4l-22 -102h-197zM383 262l33 -33q14 -12 47 -32q18 -12 55 -23q35 -10 64 -10q59 0 102 24.5t71.5 65.5t45.5 102q14 55 14 133q0 94 -20 156q-23 70 -58 100q-39 35 -75 48q-39 12 -76 12q-49 0 -107 -23 q-51 -20 -96 -55v-465z" />
<glyph unicode="c" horiz-adv-x="901" d="M80 469q0 141 45 240q47 102 117 163q66 57 161 91q88 31 177 30q63 0 125 -12q70 -14 108 -31v-192q-41 16 -94 30q-41 10 -107 11q-61 0 -108 -17q-49 -16 -92 -57q-37 -35 -64 -100q-23 -55 -22 -150q0 -72 16 -121q18 -55 53 -96t88 -65q47 -23 127 -23q65 0 117 12 q57 14 100 31v-193q-57 -23 -108 -32q-63 -12 -137 -13q-111 0 -197 29q-92 31 -160 92q-66 59 -106 154q-39 90 -39 219z" />
<glyph unicode="d" horiz-adv-x="1140" d="M80 465q0 127 35 227q33 96 96 166t137 102.5t164 32.5q29 0 74 -8q35 -6 65 -18q33 -14 58 -27q37 -20 51 -31h2q0 6 -1 23.5t-1 32.5v79v404h235v-1159q0 -121 2 -166q0 -20 1 -62.5t3 -60.5h-213l-10 102h-4q-25 -27 -51 -49q-31 -25 -63.5 -41t-80 -26.5t-92.5 -10.5 q-80 0 -151 27q-66 25 -129 88q-59 59 -92 152q-35 98 -35 223zM326 475q0 -143 55 -227t166 -84q41 0 67 8q33 10 60 25q31 16 49 32q27 25 37 35v461q-49 39 -94 57q-55 23 -111 23q-35 0 -78 -17q-41 -16 -74 -51q-35 -39 -55 -98q-22 -68 -22 -164z" />
<glyph unicode="e" horiz-adv-x="1048" d="M80 469q0 125 39 229q39 102 100 164q65 65 148 99q80 33 170 32.5t169.5 -29t133.5 -87.5q59 -68 88 -154q33 -102 33 -223q0 -41 -5 -86h-634q6 -70 30 -115q23 -43 66 -76q41 -31 94 -43q66 -14 117 -14q74 0 143 14q92 18 154 39v-188q-35 -16 -142 -37 q-95 -18 -196 -19q-109 0 -197 27q-98 29 -162 84q-70 59 -108 154q-41 98 -41 229zM334 598h381q0 45 -13 82q-14 41 -34 68q-22 28 -56 43q-41 18 -77 18q-39 0 -80 -18q-39 -18 -62 -43q-25 -27 -41 -68q-10 -25 -18 -82z" />
<glyph unicode="f" horiz-adv-x="671" d="M10 774v195h164v114q0 100 28.5 176t80.5 121q57 49 118 70q72 23 152 23q55 0 98 -9q55 -10 86 -20v-189l-80 17q-57 8 -79 8q-35 0 -70 -10q-29 -8 -53 -33q-20 -20 -33 -55q-10 -29 -10 -86v-127h268v-195h-268v-774h-238v774h-164z" />
<glyph unicode="g" horiz-adv-x="1124" d="M80 467q0 137 35 229q37 98 96 164q61 68 135 100.5t158 32.5q90 0 158 -37q70 -39 112 -96h4l10 109h207v-987q0 -88 -14 -146q-16 -70 -41 -108q-33 -57 -80 -97q-51 -41 -112 -67q-68 -29 -142 -41q-78 -12 -160 -12q-63 0 -94 2q-35 2 -86 10q-31 4 -73 16 q-53 14 -58 17v192q57 -18 139 -33q74 -12 152 -12q160 0 246 61q88 63 88 189v22v50q0 35 2 49h-2q-4 -4 -51 -35q-23 -14 -62 -33q-23 -10 -76 -22q-35 -8 -84 -9q-78 0 -149 27q-70 27 -131 88q-57 57 -92 151.5t-35 225.5zM326 475q0 -74 14 -129q16 -63 41 -98 q29 -41 70 -62q45 -23 96 -22q41 0 67 8q33 10 60 25q37 20 49 30q33 29 37 33v434q-31 39 -94 74q-59 33 -119 33q-23 0 -47 -6q-27 -6 -49 -21q-33 -20 -48 -37q-27 -31 -41 -59q-16 -33 -26 -86q-10 -56 -10 -117z" />
<glyph unicode="h" horiz-adv-x="1144" d="M139 0v1448h238v-395q0 -90 -2 -123q-4 -59 -8 -88h4q25 31 51 55q31 28 67 49q41 25 82 35q47 12 103 12q43 0 94 -10q49 -10 84 -29q33 -16 72 -53q33 -29 55 -76q20 -41 29 -86q8 -43 8 -116v-623h-238v592q0 35 -4 72q-4 31 -12 51q-22 43 -62 61q-41 18 -88 19 q-66 0 -127 -33q-57 -31 -108 -94v-668h-238z" />
<glyph unicode="i" horiz-adv-x="507" d="M129 1192v256h250v-256h-250zM135 0v969h238v-969h-238z" />
<glyph unicode="j" horiz-adv-x="536" d="M-156 -272q37 -10 72 -17q53 -8 76 -8q47 0 84 12q39 12 57 37q18 22 25 55q8 45 8 84v1078h235v-1096q0 -137 -43 -211q-47 -78 -131 -115q-86 -37 -207 -36q-51 0 -94 6q-57 8 -82 16v195zM160 1192v256h248v-256h-248z" />
<glyph unicode="k" horiz-adv-x="1056" d="M139 0v1448h238v-873h6l369 394h292l-426 -455l429 -514h-287l-379 451h-4v-451h-238z" />
<glyph unicode="l" horiz-adv-x="516" d="M139 0v1448h238v-1448h-238z" />
<glyph unicode="m" horiz-adv-x="1744" d="M129 0v969h197l22 -135h4q23 31 54 59q35 31 71 51q43 23 90 35q57 14 103 14q95 0 172 -43q76 -43 116 -133h5q29 43 61 72q41 37 78 55q57 29 90 37q49 12 102 12q106 0 176 -43q72 -43 109 -116q10 -18 16 -43q8 -27 11 -50q0 -8 3 -28.5t5 -32.5q2 -23 2 -80v-600 h-238v590q0 39 -2 57q-4 31 -8 47q-12 45 -43 72q-33 29 -88 29q-29 0 -66 -11q-29 -8 -65 -24q-25 -10 -62 -41q-27 -20 -53 -51v-668h-237v590q0 39 -2 57q-4 41 -7 47q-12 45 -43 72q-33 29 -90 29q-27 0 -63 -11q-29 -8 -66 -24q-29 -12 -63 -41q-27 -20 -53 -51v-668 h-238z" />
<glyph unicode="n" horiz-adv-x="1134" d="M129 0v969h197l22 -135h4q23 31 54 59q35 31 71 51q41 23 92 35q57 14 105 14q53 0 102 -12q51 -12 90 -37q41 -25 74 -67q31 -39 49 -97q12 -41 15 -67q2 -25 2 -84v-629h-238v592q0 49 -2 67q-4 35 -10 50q-16 43 -56 65q-35 20 -88 21q-70 0 -133 -33t-112 -94v-668 h-238z" />
<glyph unicode="o" horiz-adv-x="1132" d="M80 483q0 111 35 209q35 96 96 162q61 63 154 102q90 37 200 37q115 0 205 -37q92 -39 154 -102q61 -66 96 -162q35 -98 35 -209q0 -109 -35 -207q-33 -94 -98 -161q-61 -63 -154 -103q-88 -37 -201 -37q-117 0 -205 37t-151 103q-66 68 -98 161q-33 92 -33 207zM326 483 q0 -84 16 -135q18 -59 51 -98q31 -35 78 -60q41 -20 96 -20q57 0 99 20q49 25 75 60q31 40 49.5 98.5t18.5 134.5q0 78 -18 138q-18 58 -50 98q-29 37 -77 59q-43 20 -98.5 20.5t-96.5 -20.5q-49 -25 -76 -59q-35 -45 -51 -98q-16 -52 -16 -138z" />
<glyph unicode="p" horiz-adv-x="1124" d="M129 -465v1434h209l10 -109h4q43 57 113 96q68 37 160 37q80 0 155 -30q80 -33 135 -91q57 -59 95 -153q37 -92 37 -221t-39 -234q-35 -92 -101 -162q-63 -68 -137 -96q-78 -31 -156 -31q-74 0 -141 29q-61 27 -104 70h-4q0 -6 1 -23.5t1 -32.5v-79v-404h-238zM367 260 q4 -4 36 -33q6 -4 48 -30q23 -14 57 -25q27 -8 65 -8q55 0 99 24q47 27 71 66q27 43 43 102q14 55 15 133q0 82 -15 138q-14 53 -45 98q-23 33 -67 57q-39 20 -90 21q-61 0 -117 -31q-59 -33 -100 -80v-432z" />
<glyph unicode="q" horiz-adv-x="1124" d="M80 467q0 131 35 227q37 100 96 166q61 68 135 100.5t158 32.5q86 0 155.5 -36.5t114.5 -96.5h4l10 109h207v-1434h-235v404v79q0 14 1 32t1 24h-2q-4 -4 -51 -35q-23 -14 -62 -33q-25 -10 -74 -22q-35 -8 -86 -9q-78 0 -149 27q-70 27 -131 88q-58 58 -92 154 q-35 98 -35 223zM326 475q0 -74 14 -129q16 -63 41 -98q29 -41 70 -62q45 -23 96 -22q41 0 67 8q33 10 60 25q37 20 49 30q33 29 37 33v430q-35 45 -90 80q-53 35 -117 35q-33 0 -76 -17q-41 -16 -74 -51q-37 -39 -57 -102q-20 -62 -20 -160z" />
<glyph unicode="r" horiz-adv-x="714" d="M129 0v969h197l22 -135h4q45 76 115 116q74 43 176 43q31 0 64 -4v-209h-21q-113 0 -192 -32q-84 -35 -127 -99v-649h-238z" />
<glyph unicode="s" horiz-adv-x="866" d="M86 27v190q84 -31 143 -39q72 -10 123 -10q45 0 82 6q41 6 66 21q31 16 43 34q16 23 16 52q0 31 -18.5 51t-44.5 33q-39 18 -68 24l-78 21q-59 18 -100 32q-49 18 -84 47q-39 33 -59.5 76t-20.5 113q0 78 29 139q27 57 78 98q49 41 116 60q63 18 137 18q96 0 168 -14 q61 -12 142 -39v-192q-27 10 -70 20q-49 12 -74 16q-72 12 -75 13q-49 4 -70 4q-47 0 -72 -8q-33 -10 -47 -20.5t-24 -31.5q-8 -16 -9 -36q0 -37 17 -56q16 -20 49 -33q37 -14 65 -22l66 -16q72 -18 100 -29q57 -20 90 -47q41 -33 66 -80q25 -49 25 -123q0 -82 -31 -143 q-31 -59 -86 -101q-61 -45 -133 -61q-76 -18 -170 -19q-96 0 -166 14.5t-121 37.5z" />
<glyph unicode="t" horiz-adv-x="776" d="M10 774v195h180v270h238v-270h281v-195h-281v-471q0 -59 16 -84q31 -45 119 -45q43 0 82 6q33 4 78 17v-197q-39 -12 -96 -18q-55 -6 -105 -7q-123 0 -198 39q-82 43 -111 113q-23 55 -23 145v502h-180z" />
<glyph unicode="u" horiz-adv-x="1114" d="M121 377v592h235v-568q0 -35 9 -84q6 -39 20 -61q25 -45 68 -66q41 -20 104 -20q68 0 111 23q46 25 67 73q25 53 25 131v572h235v-592q0 -117 -41 -199q-20 -47 -59 -84q-35 -35 -86 -63q-43 -25 -111 -41q-57 -14 -141 -15q-147 0 -242 50q-96 49 -145 133 q-27 49 -37 98q-12 55 -12 121z" />
<glyph unicode="v" horiz-adv-x="1005" d="M10 969h250l135 -371q55 -150 107 -311h4q59 188 102 307l135 375h252l-374 -969h-236z" />
<glyph unicode="w" horiz-adv-x="1533" d="M10 969h250l125 -406q39 -125 76 -272h4q27 125 67 272l111 406h250l108 -406q51 -197 68 -272h4q37 147 76 272l125 406h250l-338 -969h-234l-116 426q-49 178 -68 281h-2q-20 -111 -68 -281l-116 -426h-234z" />
<glyph unicode="x" horiz-adv-x="1067" d="M10 0l383 494l-360 475h278l228 -320l229 320h281l-371 -473l381 -496h-279l-248 338l-249 -338h-273z" />
<glyph unicode="y" horiz-adv-x="1050" d="M10 969h254l146 -351q63 -154 114 -296h4q18 53 107 278l149 369h258l-624 -1434h-234l222 518z" />
<glyph unicode="z" horiz-adv-x="956" d="M66 0v133l489 641h-473v195h776v-148l-479 -626h514v-195h-827z" />
<glyph unicode="{" horiz-adv-x="624" d="M80 438v162q46 0 80 6q31 6 53 19q20 12 30.5 36.5t10.5 57.5q0 45 -18 88q-25 57 -39 84q-39 78 -43 88q-20 51 -21 102q0 66 27 117q29 55 76 90q49 37 122 55q82 20 164 21h58v-174h-27q-104 0 -154 -31q-51 -33 -51 -100q0 -31 12 -60q2 -4 11.5 -26.5t15.5 -34.5 l10 -19.5t13 -23.5q6 -10 20 -49q4 -14 14 -55q6 -28 7 -62q0 -51 -19 -88q-23 -45 -41 -63q-23 -23 -49 -39q-25 -16 -39 -19v-4q18 -4 39 -16q27 -16 49 -39q18 -18 41 -64q18 -37 19 -88q0 -49 -13 -92q-12 -45 -30 -78l-39 -82q-20 -45 -21 -77q0 -70 53.5 -101 t151.5 -31h27v-174h-58q-82 0 -164 21q-74 18 -122 55q-47 35 -76 90q-27 51 -27 117q0 23 8 59q6 29 17 56q6 16 22 49q6 12 13.5 24.5t13.5 24.5q16 29 33 70q14 35 14 79q0 33 -10.5 57.5t-30.5 37.5q-23 12 -53 18q-34 6 -80 6z" />
<glyph unicode="|" horiz-adv-x="483" d="M139 -465v1913h205v-1913h-205z" />
<glyph unicode="}" horiz-adv-x="624" d="M45 -152h29q98 0 151 31q51 31 51 101q0 33 -20 77l-39 82q-14 25 -29 78q-14 49 -14 92q0 51 19 88q23 45 40 64q23 23 50 39q20 12 39 16v4q-14 2 -39 19q-27 16 -50 39q-18 18 -40 63q-18 37 -19 88q0 34 6 62q10 41 15 55q14 39 20 49l12 23.5t11 19.5q6 12 15 34.5 t11 26.5q12 29 12 60q0 68 -51 100q-49 31 -151 31h-29v174h57q82 0 164 -21q74 -18 123 -55q47 -35 76 -90q27 -51 27 -117q0 -51 -21 -102q-4 -10 -43 -88q-14 -27 -39 -84q-16 -39 -16 -88q0 -39 8 -57q10 -25 31 -37q23 -12 53 -19q34 -6 80 -6v-162q-46 0 -80 -6 q-31 -6 -53 -18q-20 -12 -31 -37q-8 -18 -8 -58q0 -51 12 -79q16 -41 33 -70q6 -12 13 -24.5t13 -24.5q16 -33 23 -49q14 -41 18 -56q6 -29 7 -59q0 -66 -27 -117q-29 -55 -76 -90q-49 -37 -123 -55q-82 -20 -164 -21h-57v174z" />
<glyph unicode="~" d="M86 444q49 90 115 131q72 45 159 46q49 0 99 -17q70 -23 92 -33q57 -25 84 -34q37 -14 78 -15q49 0 82 23q29 20 55 63l143 -104q-51 -92 -114 -133q-68 -43 -160 -43q-43 0 -84 12q-61 18 -80 27q-51 23 -98 41t-90 18q-49 0 -82 -23q-29 -20 -56 -63z" />
<glyph unicode="&#xa1;" horiz-adv-x="598" d="M166 702v267h268v-267h-268zM168 -387l22 876h218l24 -876h-264z" />
<glyph unicode="&#xa2;" d="M145 602q0 104 31 191q31 88 86 151.5t139 104.5q86 41 189 53v162h158v-158q37 -2 98 -14q41 -8 74 -23v-192q-41 14 -82 22q-43 8 -90 12v-594q47 4 96 13q57 10 86 22v-192q-27 -10 -84 -23q-46 -9 -98 -12v-150h-158v152q-101 12 -184 49q-82 37 -140 94 q-59 59 -90 142q-31 82 -31 190zM383 606q0 -119 53 -188q51 -66 154 -88v569q-51 -14 -86 -35q-39 -25 -66 -59q-25 -33 -41 -86q-14 -45 -14 -113z" />
<glyph unicode="&#xa3;" d="M113 0v201h163l31 243h-137v201h164l10 86q25 178 125 270q100 90 268 91q20 0 66 -5q23 -2 63 -10q33 -6 54 -14q16 -6 45 -21v-200q-41 18 -99 32q-61 14 -104 14.5t-82 -14.5q-29 -10 -53 -38q-18 -20 -33 -64q-8 -27 -16 -84l-7 -43h269v-201h-295l-31 -243h481v-201 h-882z" />
<glyph unicode="&#xa4;" d="M86 350l133 133q-49 82 -49 187q0 101 49 184l-133 135l133 135l135 -135q39 25 88 37q45 12 97 12t98 -12q49 -12 88 -37l133 135l135 -135l-135 -135q27 -45 39 -88q12 -45 12 -96q0 -52 -12 -99q-12 -43 -39 -88l135 -133l-135 -135l-133 133q-82 -49 -186 -49 q-101 0 -185 49l-135 -133zM334 670q0 -47 14 -84q15 -40 43 -68q31 -31 66 -45q39 -16 82 -16t82 16q35 14 65.5 45t44.5 68t14 84q0 45 -14 81.5t-45 67.5q-35 35 -65 47q-39 16 -82 16.5t-82 -16.5q-31 -12 -66 -47q-28 -28 -43 -67q-14 -37 -14 -82z" />
<glyph unicode="&#xa5;" d="M55 1067h240l242 -473h6l241 473h240l-293 -543h168v-159h-242v-117h242v-162h-242v-113h-235v113h-244v162h244v117h-244v159h168z" />
<glyph unicode="&#xa6;" horiz-adv-x="483" d="M139 231h205v-696h-205v696zM139 721v727h205v-727h-205z" />
<glyph unicode="&#xa7;" horiz-adv-x="919" d="M90 -160q82 -29 125 -39q59 -14 121 -14q72 0 110 35q37 35 37 96q0 47 -20 94q-16 39 -53 101q-33 55 -72 112q-27 39 -80 125q-31 51 -57 109q-31 63 -49 121q-25 76 -35 131q-12 71 -13 147q0 115 31 207q31 90 88 158q59 70 139 104q84 37 185 37q76 0 153 -16 q74 -15 129 -37v-201q-82 29 -124 39q-59 14 -119 14q-72 0 -111 -34.5t-39 -98.5q0 -39 19 -86q20 -53 47 -94q10 -16 67 -102q49 -74 74 -115q33 -55 64 -115q33 -68 55 -127q23 -61 39 -141q14 -70 14 -158q0 -115 -31 -207q-33 -98 -86 -159q-57 -66 -139 -103 q-84 -37 -186 -37q-76 0 -154 17q-74 15 -129 37v200zM256 884.5q0 -71.5 10 -120.5q12 -61 33 -113l45 -106q12 -25 55 -103l78 -129q47 -78 72 -125q29 -57 51 -125q20 -61 21 -129q0 -34 -7 -67h15q18 35 28 92q8 47 9 107q0 66 -13 124q-12 55 -35 115q-29 74 -47 109 l-57 102l-76 127q-35 55 -69 123q-31 61 -50 123q-20 68 -20 127q0 34 6 67h-14q-18 -35 -29 -92q-6 -35 -6 -106.5z" />
<glyph unicode="&#xa8;" horiz-adv-x="798" d="M0 969zM86 1192v219h217v-219h-217zM496 1192v219h219v-219h-219z" />
<glyph unicode="&#xa9;" horiz-adv-x="1685" d="M150 670q0 147 53 276q51 127 145 219t219 146q129 53 277 53q145 0 274 -53q127 -53 219.5 -145.5t145.5 -219.5q53 -129 53 -276q0 -150 -53 -279q-53 -125 -145.5 -219t-219.5 -145q-123 -51 -274 -52q-154 0 -277 52q-125 51 -219 145t-145 219q-53 129 -53 279z M303 670q0 -113 41 -213q41 -102 111 -174q70 -74 170 -117q98 -43 219 -43t219 43q100 43 170 117q70 72 110 174q39 96 39 213q0 115 -39 211q-41 102 -110 174q-74 76 -170 119q-98 43 -219 43t-219 -43q-96 -43 -170 -119q-70 -72 -111 -174q-41 -100 -41 -211zM481 659 q0 96 29 166q33 78 82 127q55 55 125 82q78 31 155 31q33 0 95 -8q37 -4 71 -21v-166q-35 12 -61 17q-34 6 -68 6q-49 0 -86 -14q-41 -16 -71 -43q-31 -29 -50 -70q-20 -47 -20 -102q0 -47 18 -99q14 -41 48 -67q35 -29 71 -39q43 -12 94 -13q4 0 15.5 1.5t17.5 1.5 q10 0 35 4q6 2 17.5 4t17.5 2q12 2 28 10l3 -168q-34 -12 -80 -18q-45 -6 -95 -7q-89 0 -159 25q-74 27 -125 74q-49 45 -78 121q-29 73 -29 163z" />
<glyph unicode="&#xaa;" horiz-adv-x="813" d="M506 590h-4l-33 -33q-18 -15 -43 -31q-20 -12 -53 -22q-27 -8 -66 -8q-61 0 -102 16t-76 51q-31 31 -47 76t-16 96q0 66 22 105q29 49 64 73q41 29 88 43q45 14 102 15q23 0 76 -8q49 -8 74 -17v27q0 125 -150 125q-51 0 -102 -13q-66 -16 -117 -34v170q63 18 143 28 q59 8 105 8q96 0 157 -20q74 -25 107 -57q39 -39 57 -95q16 -49 17 -127v-229q0 -88 2 -123q0 -16 1 -48t3 -46h-199zM492 809q-8 2 -25.5 5t-24.5 5q-28 6 -49 6q-23 0 -51 -8q-14 -4 -35 -20q-12 -10 -20 -29q-6 -14 -6 -33q0 -35 20 -57q23 -25 66 -25q35 0 71 21 q35 18 54 43v92z" />
<glyph unicode="&#xab;" horiz-adv-x="1050" d="M76 473l284 387h203l-237 -387l237 -385h-203zM516 473l248 387h203l-199 -387l199 -385h-203z" />
<glyph unicode="&#xac;" d="M115 436v191h852v-539h-201v348h-651z" />
<glyph unicode="&#xad;" horiz-adv-x="679" d="M121 393v215h440v-215h-440z" />
<glyph unicode="&#x2010;" horiz-adv-x="679" d="M121 393v215h440v-215h-440z" />
<glyph unicode="&#xae;" horiz-adv-x="1269" d="M139 868q0 113 39 199q43 98 105 156q70 66 157 102q94 39 194.5 39t194.5 -39q88 -37 158 -102q66 -63 105 -156q39 -94 38 -199q0 -102 -38 -196q-39 -96 -105 -158q-70 -66 -158 -102.5t-194.5 -36.5t-194.5 37t-157 102q-59 57 -105 158q-39 85 -39 196zM262 868 q0 -82 27 -149q27 -70 76 -121q45 -49 118 -82q63 -29 152 -29q90 0 153 29q70 31 117 82q49 51 76 121q27 68 27 149.5t-27 149.5q-29 72 -76 123q-45 47 -117 80q-68 31 -153 30q-84 0 -152 -30q-76 -35 -118 -80q-47 -51 -76 -123q-27 -68 -27 -150zM438 621v501h191 q47 0 82 -8q45 -10 71 -27q33 -20 49 -47q18 -31 19 -71q0 -53 -35 -92q-33 -37 -90 -52v-4l137 -200h-151l-119 188h-19v-188h-135zM573 903h37q49 0 72 15q25 16 25 51q0 25 -19 43q-16 16 -59 16h-56v-125z" />
<glyph unicode="&#xaf;" horiz-adv-x="798" d="M0 969zM121 1171v166h559v-166h-559z" />
<glyph unicode="&#x2c9;" horiz-adv-x="798" d="M0 969zM121 1171v166h559v-166h-559z" />
<glyph unicode="&#xb0;" horiz-adv-x="835" d="M63 1012q0 80 27 141q29 66 76 111q49 47 113 73q61 27 139 27t139 -27q66 -29 115 -73q43 -41 73 -111q27 -61 27 -141q0 -78 -27 -140q-31 -74 -73 -112q-45 -41 -115 -72q-61 -27 -139 -26.5t-139 26.5q-68 29 -113 72t-76 112q-27 62 -27 140zM258 1012q0 -35 12 -66 q14 -35 33 -53q25 -25 51 -35q31 -12 64 -12q35 0 65 12q27 10 52 35q18 18 32 53q12 31 13 66q0 37 -12.5 67.5t-32.5 50.5q-27 27 -52 37q-31 12 -65 13q-33 0 -64 -13q-25 -10 -51 -37q-20 -20 -32.5 -50.5t-12.5 -67.5z" />
<glyph unicode="&#xb1;" d="M115 0v190h852v-190h-852zM115 520v182h319v267h211v-267h322v-182h-322v-266h-211v266h-319z" />
<glyph unicode="&#xb2;" horiz-adv-x="686" d="M49 512v139l150 152q49 49 106 119q45 53 66 96q23 45 22 80q0 88 -117 88q-88 0 -213 -62v181q115 59 250 59q57 0 117 -16q55 -16 94 -45q43 -33 64 -74q23 -45 22 -105q0 -57 -18 -106q-18 -47 -55 -100q-35 -49 -93 -107l-133 -127l2 -2q45 4 127 4h201v-174h-592z " />
<glyph unicode="&#xb3;" horiz-adv-x="655" d="M49 530v179q25 -12 86 -27q49 -12 107 -12q74 0 114 26q37 25 37 72q0 25 -10 41q-10 18 -29 27q-31 14 -41 16q-16 2 -53 2h-106v168h79q37 0 54 4q25 6 45 16q16 8 30 27q12 16 13 41q0 41 -35 59q-33 18 -90 19q-47 0 -98 -10q-53 -10 -91 -27v176q121 37 218 37 q151 0 233 -61t82 -164q0 -63 -28.5 -114.5t-88.5 -78.5v-4q63 -20 96 -61q37 -45 37 -121q0 -123 -90 -195q-88 -70 -266 -69q-111 -1 -205 34z" />
<glyph unicode="&#xb4;" horiz-adv-x="798" d="M0 969zM240 1124l118 349h230l-164 -349h-184z" />
<glyph unicode="&#xb5;" horiz-adv-x="1179" d="M1190 -2q-18 -4 -55 -8q-41 -4 -52 -4q-86 0 -139 47q-49 43 -65 129h-5q-23 -49 -57 -86q-33 -37 -69 -58q-43 -25 -78 -32q-45 -10 -82 -11q-31 0 -62 7q-29 6 -61 20q-23 10 -51 35q-23 20 -39 49h-6q4 -25 6 -53q4 -37 6 -76q2 -14 3 -46t1 -48q2 -35 2 -107v-221 h-237v1434h237v-523q0 -53 2 -73q2 -27 10 -54q23 -72 66 -102q47 -35 115 -35q70 0 127 35q53 33 81 107q10 25 17 71q6 43 6 101v473h236v-619q0 -27 4 -67q2 -23 14 -52q6 -16 29 -30q18 -12 49 -13q25 0 47 7v-197z" />
<glyph unicode="&#xb6;" horiz-adv-x="1222" d="M94 823q0 117 39 209q41 96 109 162q74 72 166 106q95 37 227 37h430v-1724h-197v1538h-176v-1538h-194v709q-88 18 -164 61q-74 43 -127 109q-55 68 -82 149q-31 92 -31 182z" />
<glyph unicode="&#xb7;" horiz-adv-x="598" d="M166 358v266h268v-266h-268z" />
<glyph unicode="&#x2219;" horiz-adv-x="598" d="M166 358v266h268v-266h-268z" />
<glyph unicode="&#xb8;" horiz-adv-x="798" d="M184 -326q25 -9 62 -12q49 -4 67 -4q41 0 66 6q23 6 41 17q14 8 20 20t6 20q0 33 -43 48q-37 12 -137 16l68 223h149l-34 -127q40 -6 73 -18t60 -35q20 -18 39 -51q14 -27 14 -64t-21 -78q-18 -37 -59 -65.5t-96 -42.5q-61 -16 -135 -16q-53 0 -80 4q-41 6 -60 14v145z " />
<glyph unicode="&#xb9;" horiz-adv-x="694" d="M57 1085v179l246 88h176v-666h176v-174h-585v174h198v463z" />
<glyph unicode="&#xba;" horiz-adv-x="874" d="M438 496q-86 0 -151 26q-74 31 -119 76q-49 49 -76 119q-27 68 -26 160q0 90 26 157q27 72 78 121q47 47 117 76q66 27 151 26q84 0 150 -26q74 -31 119 -76q51 -49 77 -121q27 -68 27 -157q0 -92 -27 -160q-27 -70 -75 -119q-47 -47 -117 -76q-66 -26 -154 -26zM438 672 q74 0 115 49q41 51 41 155.5t-43 153.5q-45 51 -112.5 51t-112.5 -51q-43 -49 -43 -153q0 -106 42.5 -155.5t112.5 -49.5z" />
<glyph unicode="&#xbb;" horiz-adv-x="1050" d="M86 88l199 385l-199 387h203l246 -387l-246 -385h-203zM487 88l238 385l-238 387h203l287 -387l-287 -385h-203z" />
<glyph unicode="&#xbc;" horiz-adv-x="1730" d="M57 1085v179l246 88h176v-666h176v-174h-585v174h198v463zM1346 512q-57 -135 -82 -174l2 -2q33 4 112 4h31v125h203v-125h98v-170h-98v-162h-203v162h-350v133l207 530h211zM1497 1274l-977 -1309l-129 101l975 1306z" />
<glyph unicode="&#xbd;" horiz-adv-x="1851" d="M57 1085v179l246 88h176v-666h176v-174h-585v174h198v463zM1497 1274l-977 -1309l-129 101l975 1306zM1214 8v139l150 152q49 49 106 119q45 53 66 96q23 45 22 80q0 88 -117 88q-88 0 -213 -62v181q115 59 250 59q57 0 117 -16q55 -16 94 -45q43 -33 64 -74 q23 -45 22 -105q0 -57 -18 -106q-18 -47 -55 -100q-35 -49 -93 -107l-133 -127l2 -2q45 4 127 4h201v-174h-592z" />
<glyph unicode="&#xbe;" horiz-adv-x="1652" d="M1268 512q-57 -135 -82 -174l2 -2q33 4 112 4h31v125h203v-125h98v-170h-98v-162h-203v162h-350v133l207 530h211zM1400 1274l-977 -1309l-129 101l975 1306zM49 530v179q25 -12 86 -27q49 -12 107 -12q74 0 114 26q37 25 37 72q0 25 -10 41q-10 18 -29 27q-31 14 -41 16 q-16 2 -53 2h-106v168h79q37 0 54 4q25 6 45 16q16 8 30 27q12 16 13 41q0 41 -35 59q-33 18 -90 19q-47 0 -98 -10q-53 -10 -91 -27v176q121 37 218 37q151 0 233 -61t82 -164q0 -63 -28.5 -114.5t-88.5 -78.5v-4q63 -20 96 -61q37 -45 37 -121q0 -123 -90 -195 q-88 -70 -266 -69q-111 -1 -205 34z" />
<glyph unicode="&#xbf;" horiz-adv-x="919" d="M88 -88q0 53 18 113q14 45 43 83.5t60 63.5q45 37 67 53q18 12 36 25.5l28 21.5q31 25 51.5 51.5t36.5 65.5q14 35 14 84v16h224q0 -2 1 -10t1 -12v-23q0 -59 -13 -106q-10 -39 -37 -84q-16 -29 -51 -64q-25 -25 -59 -49q-33 -25 -64 -45q-27 -18 -55.5 -47t-40.5 -51 q-14 -27 -14 -70q0 -68 49 -106q51 -41 154 -41q78 0 151 18q59 14 131 45v-192q-25 -12 -67 -27q-25 -8 -78 -20q-4 0 -84 -13q-43 -6 -82 -6q-96 0 -176 23q-84 25 -133 63q-57 47 -82 103q-29 63 -29 137zM416 702v267h268v-267h-268z" />
<glyph unicode="&#xc0;" horiz-adv-x="1345" d="M31 0l530 1337h223l533 -1337h-260l-131 342h-504l-131 -342h-260zM502 547h346l-47 119q-47 123 -125 350h-4q-78 -227 -125 -350zM639 1657l139 -248h-189l-190 248h240zM233 1337z" />
<glyph unicode="&#xc1;" horiz-adv-x="1345" d="M31 0l530 1337h223l533 -1337h-260l-131 342h-504l-131 -342h-260zM502 547h346l-47 119q-47 123 -125 350h-4q-78 -227 -125 -350zM946 1657l-188 -248h-189l137 248h240zM391 1337z" />
<glyph unicode="&#xc2;" horiz-adv-x="1345" d="M31 0l530 1337h223l533 -1337h-260l-131 342h-504l-131 -342h-260zM502 547h346l-47 119q-47 123 -125 350h-4q-78 -227 -125 -350zM571 1657h207l215 -248h-207l-111 127h-4l-110 -127h-205zM274 1337z" />
<glyph unicode="&#xc3;" horiz-adv-x="1345" d="M31 0l530 1337h223l533 -1337h-260l-131 342h-504l-131 -342h-260zM502 547h346l-47 119q-47 123 -125 350h-4q-78 -227 -125 -350zM524 1657q35 0 78 -15q35 -12 69 -30l66 -33q29 -14 53 -14q27 0 39 18.5t12 65.5h156q0 -4 1 -15.5t1 -17.5q0 -45 -8 -78 q-9 -37 -31 -68q-23 -31 -57 -49q-37 -18 -82 -18q-35 0 -78 14q-35 12 -69.5 30.5t-65.5 33.5q-29 14 -53 14q-29 0 -41 -18q-10 -14 -11 -66h-157v33q0 45 8 78q10 41 29 67q23 31 57 49q37 19 84 19zM272 1339z" />
<glyph unicode="&#xc4;" horiz-adv-x="1345" d="M31 0l530 1337h223l533 -1337h-260l-131 342h-504l-131 -342h-260zM502 547h346l-47 119q-47 123 -125 350h-4q-78 -227 -125 -350zM354 1673h223v-225h-223v225zM766 1673h225v-225h-225v225zM272 1337z" />
<glyph unicode="&#xc5;" horiz-adv-x="1345" d="M31 0l530 1337h223l533 -1337h-260l-131 342h-504l-131 -342h-260zM502 547h346l-47 119q-47 123 -125 350h-4q-78 -227 -125 -350zM669 1366q-47 0 -100 14q-39 10 -78 39q-33 23 -51 62q-20 41 -20 82q0 43 20 84q18 39 51 61q39 29 78 39q45 12 100.5 12t100.5 -12 q41 -10 80 -39q33 -23 51 -61q18 -37 18 -84q0 -45 -18 -82q-18 -39 -51 -62q-39 -29 -80 -39q-54 -14 -101 -14zM669 1649q-43 0 -71.5 -22.5t-28.5 -63.5t29 -64q27 -20 71.5 -20t71.5 20q31 25 31 64t-31 63q-29 23 -72 23zM270 1337z" />
<glyph unicode="&#xc6;" horiz-adv-x="1912" d="M25 0l667 1337h1041v-204h-641l49 -347h497v-204h-471l54 -377h622v-205h-831l-47 342h-510l-168 -342h-262zM555 547h381l-82 586h-8z" />
<glyph unicode="&#xc7;" horiz-adv-x="1196" d="M100 645q0 150 47 285q46 132 136 227q90 96 219 151.5t295 55.5q90 0 164 -12q80 -12 135 -33v-209q-96 29 -152 37q-63 8 -133 8q-100 0 -184 -33q-86 -33 -146 -96q-61 -66 -94 -154q-35 -94 -35 -213q0 -113 33 -206q31 -90 88 -150q55 -57 141 -90q83 -31 191 -31 q80 0 162 13q78 12 141 34v-211q-63 -18 -152 -32q-68 -10 -168 -11h-28h-15l-26 -94q40 -6 74 -18q33 -12 59 -35q20 -18 39 -51q14 -27 14 -64q0 -43 -20 -78q-25 -43 -58 -65q-41 -29 -100 -43q-66 -16 -131 -16q-53 0 -80 4q-43 6 -61 14v145q22 -6 61 -12q27 -4 70 -4 q37 0 63 6q23 4 41 17q14 8 20.5 20t6.5 20q0 33 -43 48q-37 12 -137 16l61 209q-129 27 -217 82q-100 63 -156 141q-66 92 -94 193q-31 106 -31 235z" />
<glyph unicode="&#xc8;" horiz-adv-x="1161" d="M160 0v1337h866v-204h-620v-347h532v-204h-532v-377h657v-205h-903zM582 1657l139 -248h-189l-190 248h240zM176 1337z" />
<glyph unicode="&#xc9;" horiz-adv-x="1161" d="M160 0v1337h866v-204h-620v-347h532v-204h-532v-377h657v-205h-903zM852 1657l-188 -248h-189l137 248h240zM297 1337z" />
<glyph unicode="&#xca;" horiz-adv-x="1161" d="M160 0v1337h866v-204h-620v-347h532v-204h-532v-377h657v-205h-903zM498 1657h207l215 -248h-207l-111 127h-4l-110 -127h-205zM201 1337z" />
<glyph unicode="&#xcb;" horiz-adv-x="1161" d="M160 0v1337h866v-204h-620v-347h532v-204h-532v-377h657v-205h-903zM283 1673h223v-225h-223v225zM695 1673h225v-225h-225v225zM201 1337z" />
<glyph unicode="&#xcc;" horiz-adv-x="563" d="M160 0v1337h246v-1337h-246zM277 1657l139 -248h-189l-190 248h240zM-129 1337z" />
<glyph unicode="&#xcd;" horiz-adv-x="563" d="M160 0v1337h246v-1337h-246zM551 1657l-188 -248h-189l137 248h240zM-4 1337z" />
<glyph unicode="&#xce;" horiz-adv-x="563" d="M160 0v1337h246v-1337h-246zM186 1657h207l215 -248h-207l-111 127h-4l-110 -127h-205zM-111 1337z" />
<glyph unicode="&#xcf;" horiz-adv-x="563" d="M160 0v1337h246v-1337h-246zM-29 1673h223v-225h-223v225zM383 1673h225v-225h-225v225zM-111 1337z" />
<glyph unicode="&#xd0;" horiz-adv-x="1482" d="M59 582v204h172v551h355q63 0 96 -2t94 -10q55 -8 88 -14q51 -10 80 -21q104 -33 189 -92q86 -59 137 -135q57 -82 84 -178q29 -102 28 -211q0 -115 -22 -203q-25 -95 -74 -172q-51 -82 -123 -137q-78 -61 -178 -99q-92 -33 -190 -47q-115 -16 -244 -16h-320v582h-172z M475 205h103q213 0 335 59q106 51 162 154q55 101 55 258q0 83 -18 147q-20 72 -51 119q-31 49 -84 88q-51 39 -109 62q-59 23 -127 30q-78 10 -157 11h-109v-347h348v-204h-348v-377z" />
<glyph unicode="&#xd1;" horiz-adv-x="1488" d="M160 0v1337h258l438 -620q158 -223 236 -365h6q-12 262 -13 379v606h244v-1337h-256l-436 616q-123 172 -238 371h-6q12 -246 13 -381v-606h-246zM602 1657q35 0 78 -15q35 -12 69 -30l66 -33q29 -14 53 -14q27 0 39 18.5t12 65.5h156q0 -4 1 -15.5t1 -17.5q0 -45 -8 -78 q-9 -37 -31 -68q-23 -31 -57 -49q-37 -18 -82 -18q-35 0 -78 14q-35 12 -69.5 30.5t-65.5 33.5q-29 14 -53 14q-29 0 -41 -18q-10 -14 -11 -66h-157v33q0 45 8 78q10 41 29 67q23 31 57 49q37 19 84 19zM350 1339z" />
<glyph unicode="&#xd2;" horiz-adv-x="1503" d="M100 670q0 152 43 280q41 125 127 219q82 92 205 144q121 51 276.5 51t276.5 -51q123 -51 205 -144q86 -94 127 -219q45 -135 45 -280.5t-45 -280.5q-41 -125 -127 -219q-82 -92 -205 -143q-121 -51 -276.5 -51.5t-276.5 51.5q-123 51 -205 143q-86 94 -127 219 q-43 129 -43 281zM352 670q0 -123 31 -215q29 -86 84 -152q49 -59 125 -90q74 -31 160 -31t159 31q78 33 127 90q51 61 82 152q31 92 31 215q0 121 -31 213q-31 90 -82 151.5t-127 91.5q-70 29 -159.5 29t-159.5 -29q-72 -31 -125 -92q-55 -66 -84 -151q-31 -92 -31 -213z M709 1657l139 -248h-189l-190 248h240zM303 1337z" />
<glyph unicode="&#xd3;" horiz-adv-x="1503" d="M100 670q0 152 43 280q41 125 127 219q82 92 205 144q121 51 276.5 51t276.5 -51q123 -51 205 -144q86 -94 127 -219q45 -135 45 -280.5t-45 -280.5q-41 -125 -127 -219q-82 -92 -205 -143q-121 -51 -276.5 -51.5t-276.5 51.5q-123 51 -205 143q-86 94 -127 219 q-43 129 -43 281zM352 670q0 -123 31 -215q29 -86 84 -152q49 -59 125 -90q74 -31 160 -31t159 31q78 33 127 90q51 61 82 152q31 92 31 215q0 121 -31 213q-31 90 -82 151.5t-127 91.5q-70 29 -159.5 29t-159.5 -29q-72 -31 -125 -92q-55 -66 -84 -151q-31 -92 -31 -213z M1030 1657l-188 -248h-189l137 248h240zM475 1337z" />
<glyph unicode="&#xd4;" horiz-adv-x="1503" d="M100 670q0 152 43 280q41 125 127 219q82 92 205 144q121 51 276.5 51t276.5 -51q123 -51 205 -144q86 -94 127 -219q45 -135 45 -280.5t-45 -280.5q-41 -125 -127 -219q-82 -92 -205 -143q-121 -51 -276.5 -51.5t-276.5 51.5q-123 51 -205 143q-86 94 -127 219 q-43 129 -43 281zM352 670q0 -123 31 -215q29 -86 84 -152q49 -59 125 -90q74 -31 160 -31t159 31q78 33 127 90q51 61 82 152q31 92 31 215q0 121 -31 213q-31 90 -82 151.5t-127 91.5q-70 29 -159.5 29t-159.5 -29q-72 -31 -125 -92q-55 -66 -84 -151q-31 -92 -31 -213z M649 1657h207l215 -248h-207l-111 127h-4l-110 -127h-205zM352 1337z" />
<glyph unicode="&#xd5;" horiz-adv-x="1503" d="M100 670q0 152 43 280q41 125 127 219q82 92 205 144q121 51 276.5 51t276.5 -51q123 -51 205 -144q86 -94 127 -219q45 -135 45 -280.5t-45 -280.5q-41 -125 -127 -219q-82 -92 -205 -143q-121 -51 -276.5 -51.5t-276.5 51.5q-123 51 -205 143q-86 94 -127 219 q-43 129 -43 281zM352 670q0 -123 31 -215q29 -86 84 -152q49 -59 125 -90q74 -31 160 -31t159 31q78 33 127 90q51 61 82 152q31 92 31 215q0 121 -31 213q-31 90 -82 151.5t-127 91.5q-70 29 -159.5 29t-159.5 -29q-72 -31 -125 -92q-55 -66 -84 -151q-31 -92 -31 -213z M610 1657q35 0 78 -15q35 -12 69 -30l66 -33q29 -14 53 -14q27 0 39 18.5t12 65.5h156q0 -4 1 -15.5t1 -17.5q0 -45 -8 -78q-9 -37 -31 -68q-23 -31 -57 -49q-37 -18 -82 -18q-35 0 -78 14q-35 12 -69.5 30.5t-65.5 33.5q-29 14 -53 14q-29 0 -41 -18q-10 -14 -11 -66h-157 v33q0 45 8 78q10 41 29 67q23 31 57 49q37 19 84 19zM358 1339z" />
<glyph unicode="&#xd6;" horiz-adv-x="1503" d="M100 670q0 152 43 280q41 125 127 219q82 92 205 144q121 51 276.5 51t276.5 -51q123 -51 205 -144q86 -94 127 -219q45 -135 45 -280.5t-45 -280.5q-41 -125 -127 -219q-82 -92 -205 -143q-121 -51 -276.5 -51.5t-276.5 51.5q-123 51 -205 143q-86 94 -127 219 q-43 129 -43 281zM352 670q0 -123 31 -215q29 -86 84 -152q49 -59 125 -90q74 -31 160 -31t159 31q78 33 127 90q51 61 82 152q31 92 31 215q0 121 -31 213q-31 90 -82 151.5t-127 91.5q-70 29 -159.5 29t-159.5 -29q-72 -31 -125 -92q-55 -66 -84 -151q-31 -92 -31 -213z M436 1673h223v-225h-223v225zM848 1673h225v-225h-225v225zM354 1337z" />
<glyph unicode="&#xd7;" d="M98 227l305 305l-305 306l135 135l306 -305l307 305l135 -135l-307 -306l307 -305l-135 -135l-307 305l-306 -305z" />
<glyph unicode="&#xd8;" horiz-adv-x="1503" d="M100 109l117 127q-55 82 -88 196q-29 100 -29 238q0 152 43 280q41 125 127 219q82 92 205 144q121 51 277 51q113 0 221 -33q98 -31 178 -90l113 123l141 -133l-121 -129q59 -92 90 -197q31 -106 31 -235q0 -145 -45 -281q-41 -125 -127 -219q-82 -92 -205 -143 q-121 -51 -276 -52q-120 0 -222 31q-104 31 -178 88l-110 -119zM352 670q0 -66 10 -133q8 -57 31 -111l602 649q-49 40 -110 62q-53 18 -133 18q-90 0 -160 -29q-72 -31 -125 -92q-55 -66 -84 -151q-31 -92 -31 -213zM508 262q45 -37 110 -59q59 -20 134 -21q86 0 159 31 q78 33 127 90q51 61 82 152q31 92 31 215q0 63 -10 131q-8 59 -31 112z" />
<glyph unicode="&#xd9;" horiz-adv-x="1433" d="M156 551v786h243v-766q0 -139 35 -221q37 -89 111 -129q72 -39 172 -39t172 39q74 40 110 129q35 82 35 221v766h246v-786q0 -78 -10 -154q-8 -59 -33 -123q-29 -74 -72 -124q-45 -53 -110 -95q-57 -37 -152 -59q-82 -20 -188 -21q-111 0 -191 21q-88 23 -147 59 q-61 39 -109 95q-43 51 -71 124q-25 63 -33 123t-8 154zM693 1657l139 -248h-189l-190 248h240zM287 1337z" />
<glyph unicode="&#xda;" horiz-adv-x="1433" d="M156 551v786h243v-766q0 -139 35 -221q37 -89 111 -129q72 -39 172 -39t172 39q74 40 110 129q35 82 35 221v766h246v-786q0 -78 -10 -154q-8 -59 -33 -123q-29 -74 -72 -124q-45 -53 -110 -95q-57 -37 -152 -59q-82 -20 -188 -21q-111 0 -191 21q-88 23 -147 59 q-61 39 -109 95q-43 51 -71 124q-25 63 -33 123t-8 154zM1001 1657l-188 -248h-189l137 248h240zM446 1337z" />
<glyph unicode="&#xdb;" horiz-adv-x="1433" d="M156 551v786h243v-766q0 -139 35 -221q37 -89 111 -129q72 -39 172 -39t172 39q74 40 110 129q35 82 35 221v766h246v-786q0 -78 -10 -154q-8 -59 -33 -123q-29 -74 -72 -124q-45 -53 -110 -95q-57 -37 -152 -59q-82 -20 -188 -21q-111 0 -191 21q-88 23 -147 59 q-61 39 -109 95q-43 51 -71 124q-25 63 -33 123t-8 154zM612 1657h207l215 -248h-207l-111 127h-4l-110 -127h-205zM315 1337z" />
<glyph unicode="&#xdc;" horiz-adv-x="1433" d="M156 551v786h243v-766q0 -139 35 -221q37 -89 111 -129q72 -39 172 -39t172 39q74 40 110 129q35 82 35 221v766h246v-786q0 -78 -10 -154q-8 -59 -33 -123q-29 -74 -72 -124q-45 -53 -110 -95q-57 -37 -152 -59q-82 -20 -188 -21q-111 0 -191 21q-88 23 -147 59 q-61 39 -109 95q-43 51 -71 124q-25 63 -33 123t-8 154zM399 1673h223v-225h-223v225zM811 1673h225v-225h-225v225zM317 1337z" />
<glyph unicode="&#xdd;" horiz-adv-x="1298" d="M20 1337h273l354 -575h4l357 575h272l-508 -798v-539h-246v539zM936 1657l-188 -248h-189l137 248h240zM381 1337z" />
<glyph unicode="&#xde;" horiz-adv-x="1228" d="M160 0v1337h246v-245h141q102 0 168 -9q78 -10 131 -26q137 -43 210.5 -135.5t73.5 -233.5q0 -96 -40 -174q-39 -76 -117 -131q-78 -57 -189 -84q-115 -29 -254 -29q-12 0 -36.5 1t-34.5 1q-29 0 -53 4v-276h-246zM406 481q29 -4 53 -4q12 0 34.5 -1t32.5 -1q92 0 164 17 q66 14 109 45q41 29 59.5 69.5t18.5 87.5q0 61 -27 103q-29 43 -94 65q-34 12 -86 19q-51 6 -127 6h-137v-406z" />
<glyph unicode="&#xdf;" horiz-adv-x="1271" d="M139 0v983q0 115 33 201q33 88 96 153q59 63 154 101q86 35 207 35q100 0 176 -25q78 -25 127 -68q53 -47 76 -96q25 -55 24 -110q0 -59 -16 -99q-20 -47 -43 -76q-27 -35 -55 -59l-56 -51q-18 -18 -43 -55q-16 -25 -16 -64q0 -27 16.5 -49.5t41 -40.5t57.5 -35l27.5 -14 l41.5 -21q70 -37 78 -43q29 -20 65 -59q31 -34 50 -80q18 -47 18 -109q0 -82 -28.5 -141t-84.5 -108q-49 -43 -129 -70q-74 -25 -165 -25q-82 0 -148 13q-59 12 -102 32v193q70 -27 118 -35q61 -10 109 -10q92 0 143 37q53 37 54 108q0 31 -17 58q-18 31 -39 45 q-16 12 -57 33l-68 30q-39 18 -77 39q-35 18 -70 53q-31 31 -49.5 74t-18.5 105q0 63 17 102q20 45 43 78q29 39 55 63q31 28 55 56q10 12 41 57q18 28 19 61q0 51 -43 82t-123 31q-68 0 -115 -20q-43 -18 -78 -64q-33 -41 -47 -96q-16 -59 -16 -125v-975h-238z" />
<glyph unicode="&#xe0;" horiz-adv-x="1052" d="M86 285q0 82 27 141q28 61 80 104q53 45 122 66q74 23 156 22q70 0 117 -8q80 -14 94 -18v39q0 35 -12.5 65.5t-36.5 55.5q-20 20 -68 39q-37 14 -98 14q-70 0 -145 -17q-70 -14 -156 -47v185q76 31 156 49q83 18 172 18q98 0 184 -26q80 -25 133 -72t80 -106.5 t27 -135.5v-364q0 -121 2 -166q0 -20 1 -62.5t3 -60.5h-213l-11 102h-4q-22 -22 -49 -43q-33 -27 -63 -41q-37 -18 -80 -30.5t-94 -12.5q-70 0 -129 21q-57 20 -105 63q-45 41 -67 97q-23 53 -23 129zM326 295q0 -35 12 -59q12 -23 31 -39q16 -14 45 -25q23 -8 55.5 -8 t67.5 10q41 12 59 23q31 16 49 32q27 25 37 35v150q-23 6 -80 14q-43 6 -88 6q-86 0 -137 -34.5t-51 -104.5zM43 969zM270 1473h232l119 -349h-185z" />
<glyph unicode="&#xe1;" horiz-adv-x="1052" d="M86 285q0 82 27 141q28 61 80 104q53 45 122 66q74 23 156 22q70 0 117 -8q80 -14 94 -18v39q0 35 -12.5 65.5t-36.5 55.5q-20 20 -68 39q-37 14 -98 14q-70 0 -145 -17q-70 -14 -156 -47v185q76 31 156 49q83 18 172 18q98 0 184 -26q80 -25 133 -72t80 -106.5 t27 -135.5v-364q0 -121 2 -166q0 -20 1 -62.5t3 -60.5h-213l-11 102h-4q-22 -22 -49 -43q-33 -27 -63 -41q-37 -18 -80 -30.5t-94 -12.5q-70 0 -129 21q-57 20 -105 63q-45 41 -67 97q-23 53 -23 129zM326 295q0 -35 12 -59q12 -23 31 -39q16 -14 45 -25q23 -8 55.5 -8 t67.5 10q41 12 59 23q31 16 49 32q27 25 37 35v150q-23 6 -80 14q-43 6 -88 6q-86 0 -137 -34.5t-51 -104.5zM166 969zM406 1124l118 349h230l-164 -349h-184z" />
<glyph unicode="&#xe2;" horiz-adv-x="1052" d="M86 285q0 82 27 141q28 61 80 104q53 45 122 66q74 23 156 22q70 0 117 -8q80 -14 94 -18v39q0 35 -12.5 65.5t-36.5 55.5q-20 20 -68 39q-37 14 -98 14q-70 0 -145 -17q-70 -14 -156 -47v185q76 31 156 49q83 18 172 18q98 0 184 -26q80 -25 133 -72t80 -106.5 t27 -135.5v-364q0 -121 2 -166q0 -20 1 -62.5t3 -60.5h-213l-11 102h-4q-22 -22 -49 -43q-33 -27 -63 -41q-37 -18 -80 -30.5t-94 -12.5q-70 0 -129 21q-57 20 -105 63q-45 41 -67 97q-23 53 -23 129zM326 295q0 -35 12 -59q12 -23 31 -39q16 -14 45 -25q23 -8 55.5 -8 t67.5 10q41 12 59 23q31 16 49 32q27 25 37 35v150q-23 6 -80 14q-43 6 -88 6q-86 0 -137 -34.5t-51 -104.5zM125 969zM211 1124l211 349h207l209 -349h-185l-127 211h-4l-125 -211h-186z" />
<glyph unicode="&#xe3;" horiz-adv-x="1052" d="M86 285q0 82 27 141q28 61 80 104q53 45 122 66q74 23 156 22q70 0 117 -8q80 -14 94 -18v39q0 35 -12.5 65.5t-36.5 55.5q-20 20 -68 39q-37 14 -98 14q-70 0 -145 -17q-70 -14 -156 -47v185q76 31 156 49q83 18 172 18q98 0 184 -26q80 -25 133 -72t80 -106.5 t27 -135.5v-364q0 -121 2 -166q0 -20 1 -62.5t3 -60.5h-213l-11 102h-4q-22 -22 -49 -43q-33 -27 -63 -41q-37 -18 -80 -30.5t-94 -12.5q-70 0 -129 21q-57 20 -105 63q-45 41 -67 97q-23 53 -23 129zM326 295q0 -35 12 -59q12 -23 31 -39q16 -14 45 -25q23 -8 55.5 -8 t67.5 10q41 12 59 23q31 16 49 32q27 25 37 35v150q-23 6 -80 14q-43 6 -88 6q-86 0 -137 -34.5t-51 -104.5zM156 969zM189 1188q0 43 6 80q4 29 31 69q20 33 57 51.5t84 18.5q35 0 78 -14q35 -12 69.5 -31t65.5 -33q29 -14 53 -14q27 0 39 18.5t12 65.5h156q0 -2 1 -14.5 t1 -22.5q0 -35 -8 -70q-10 -41 -31 -71q-23 -31 -57 -50q-37 -18 -82 -18q-35 0 -78 14q-39 12 -72 31l-67 33q-29 14 -49 14q-29 0 -41 -18q-10 -14 -11 -66h-157v27z" />
<glyph unicode="&#xe4;" horiz-adv-x="1052" d="M86 285q0 82 27 141q28 61 80 104q53 45 122 66q74 23 156 22q70 0 117 -8q80 -14 94 -18v39q0 35 -12.5 65.5t-36.5 55.5q-20 20 -68 39q-37 14 -98 14q-70 0 -145 -17q-70 -14 -156 -47v185q76 31 156 49q83 18 172 18q98 0 184 -26q80 -25 133 -72t80 -106.5 t27 -135.5v-364q0 -121 2 -166q0 -20 1 -62.5t3 -60.5h-213l-11 102h-4q-22 -22 -49 -43q-33 -27 -63 -41q-37 -18 -80 -30.5t-94 -12.5q-70 0 -129 21q-57 20 -105 63q-45 41 -67 97q-23 53 -23 129zM326 295q0 -35 12 -59q12 -23 31 -39q16 -14 45 -25q23 -8 55.5 -8 t67.5 10q41 12 59 23q31 16 49 32q27 25 37 35v150q-23 6 -80 14q-43 6 -88 6q-86 0 -137 -34.5t-51 -104.5zM119 969zM205 1192v219h217v-219h-217zM615 1192v219h219v-219h-219z" />
<glyph unicode="&#xe5;" horiz-adv-x="1052" d="M86 285q0 82 27 141q28 61 80 104q53 45 122 66q74 23 156 22q70 0 117 -8q80 -14 94 -18v39q0 35 -12.5 65.5t-36.5 55.5q-20 20 -68 39q-37 14 -98 14q-70 0 -145 -17q-70 -14 -156 -47v185q76 31 156 49q83 18 172 18q98 0 184 -26q80 -25 133 -72t80 -106.5 t27 -135.5v-364q0 -121 2 -166q0 -20 1 -62.5t3 -60.5h-213l-11 102h-4q-22 -22 -49 -43q-33 -27 -63 -41q-37 -18 -80 -30.5t-94 -12.5q-70 0 -129 21q-57 20 -105 63q-45 41 -67 97q-23 53 -23 129zM326 295q0 -35 12 -59q12 -23 31 -39q16 -14 45 -25q23 -8 55.5 -8 t67.5 10q41 12 59 23q31 16 49 32q27 25 37 35v150q-23 6 -80 14q-43 6 -88 6q-86 0 -137 -34.5t-51 -104.5zM508 1090q-57 0 -100 14q-47 16 -78 41q-33 27 -51 63q-20 41 -20 86t20 86t51 65.5t78 41.5q37 12 100.5 12t100.5 -12q51 -16 80 -41q31 -25 51 -66 q18 -37 18 -86t-18.5 -86t-50.5 -63q-29 -25 -80 -41q-44 -14 -101 -14zM508 1386q-47 0 -71 -22q-29 -25 -29 -70q0 -43 28.5 -67.5t71.5 -24.5t72 25q31 27 31 67q0 43 -31 70q-25 22 -72 22zM109 969z" />
<glyph unicode="&#xe6;" horiz-adv-x="1634" d="M86 285q0 82 27 141q28 61 80 104q53 45 122 66q74 23 156 22q72 0 119 -8q55 -10 90 -18h2v35q0 37 -12 67q-14 35 -37 58q-20 20 -68 39q-37 14 -98 14q-66 0 -143 -17q-61 -12 -158 -47v185q70 31 158 49q86 18 170 18q65 0 116 -12t90 -33q41 -23 68 -51 q33 -37 47 -66h4q57 74 139 119q80 43 181 43q84 0 159.5 -28.5t128.5 -87.5q55 -61 86 -153.5t31 -223.5v-47q0 -8 -1 -20.5t-1 -18.5h-635q6 -70 31 -115q23 -43 66 -76q41 -31 94 -43q66 -14 116 -14q74 0 144 14q86 18 151 39v-188q-39 -14 -69 -23q-76 -18 -82 -18 q-53 -8 -92 -10q-61 -4 -95 -5q-113 0 -204 33q-96 35 -160 101h-4q-33 -27 -76 -52q-37 -20 -90 -41q-51 -18 -100 -30q-43 -10 -107 -11q-80 0 -141 21q-57 18 -109 63q-49 43 -71.5 96.5t-22.5 129.5zM326 295q0 -35 12 -59q12 -23 31 -39q16 -14 45 -25q23 -8 55 -8 q35 0 76 10q49 12 69 23q31 15 56 30q23 14 41 29q-25 70 -31 158q-23 6 -80 14q-43 6 -86 6q-86 0 -137 -32.5t-51 -106.5zM922 598h381q0 51 -11 82q-14 41 -35 68q-22 28 -55 43q-41 18 -80 18t-80 -18q-35 -16 -59.5 -43t-40.5 -68q-14 -33 -20 -82z" />
<glyph unicode="&#xe7;" horiz-adv-x="901" d="M80 469q0 145 45 242q43 94 119 161q71 65 159 93q92 29 177 28q63 0 125 -12q70 -14 108 -31v-192q-41 16 -94 30q-41 10 -107 11q-61 0 -108 -17q-57 -20 -92 -55q-39 -39 -64 -100q-23 -57 -22 -152q0 -72 16 -121q20 -59 53 -96q37 -41 90 -65q47 -23 125 -23 q63 0 118.5 12.5t98.5 30.5v-193q-29 -12 -106 -30q-59 -14 -139 -15h-21l-22 -94q40 -6 73 -18t60 -35q20 -18 39 -51q14 -27 14 -64t-20 -78q-18 -37 -60 -65q-40 -28 -98 -43q-61 -16 -133 -16q-51 0 -78 4q-43 6 -62 14v145q29 -10 62 -12q49 -4 65 -4q37 0 66 6 q25 6 43 17q14 8 20.5 20t6.5 20q0 31 -45 48q-37 12 -136 16l64 211q-88 27 -137 57q-63 41 -108.5 98.5t-70 137.5t-24.5 180z" />
<glyph unicode="&#xe8;" horiz-adv-x="1048" d="M68 969zM295 1473h232l119 -349h-185zM80 469q0 125 39 229q39 102 100 164q65 65 148 99q80 33 170 32.5t169.5 -29t133.5 -87.5q59 -68 88 -154q33 -102 33 -223q0 -41 -5 -86h-634q6 -70 30 -115q23 -43 66 -76q41 -31 94 -43q66 -14 117 -14q74 0 143 14 q92 18 154 39v-188q-35 -16 -142 -37q-95 -18 -196 -19q-109 0 -197 27q-98 29 -162 84q-70 59 -108 154q-41 98 -41 229zM334 598h381q0 45 -13 82q-14 41 -34 68q-22 28 -56 43q-41 18 -77 18q-39 0 -80 -18q-39 -18 -62 -43q-25 -27 -41 -68q-10 -25 -18 -82z" />
<glyph unicode="&#xe9;" horiz-adv-x="1048" d="M199 969zM439 1124l118 349h230l-164 -349h-184zM80 469q0 125 39 229q39 102 100 164q65 65 148 99q80 33 170 32.5t169.5 -29t133.5 -87.5q59 -68 88 -154q33 -102 33 -223q0 -41 -5 -86h-634q6 -70 30 -115q23 -43 66 -76q41 -31 94 -43q66 -14 117 -14q74 0 143 14 q92 18 154 39v-188q-35 -16 -142 -37q-95 -18 -196 -19q-109 0 -197 27q-98 29 -162 84q-70 59 -108 154q-41 98 -41 229zM334 598h381q0 45 -13 82q-14 41 -34 68q-22 28 -56 43q-41 18 -77 18q-39 0 -80 -18q-39 -18 -62 -43q-25 -27 -41 -68q-10 -25 -18 -82z" />
<glyph unicode="&#xea;" horiz-adv-x="1048" d="M131 969zM217 1124l211 349h207l209 -349h-185l-127 211h-4l-125 -211h-186zM80 469q0 125 39 229q39 102 100 164q65 65 148 99q80 33 170 32.5t169.5 -29t133.5 -87.5q59 -68 88 -154q33 -102 33 -223q0 -41 -5 -86h-634q6 -70 30 -115q23 -43 66 -76q41 -31 94 -43 q66 -14 117 -14q74 0 143 14q92 18 154 39v-188q-35 -16 -142 -37q-95 -18 -196 -19q-109 0 -197 27q-98 29 -162 84q-70 59 -108 154q-41 98 -41 229zM334 598h381q0 45 -13 82q-14 41 -34 68q-22 28 -56 43q-41 18 -77 18q-39 0 -80 -18q-39 -18 -62 -43q-25 -27 -41 -68 q-10 -25 -18 -82z" />
<glyph unicode="&#xeb;" horiz-adv-x="1048" d="M135 969zM221 1192v219h217v-219h-217zM631 1192v219h219v-219h-219zM80 469q0 125 39 229q39 102 100 164q65 65 148 99q80 33 170 32.5t169.5 -29t133.5 -87.5q59 -68 88 -154q33 -102 33 -223q0 -41 -5 -86h-634q6 -70 30 -115q23 -43 66 -76q41 -31 94 -43 q66 -14 117 -14q74 0 143 14q92 18 154 39v-188q-35 -16 -142 -37q-95 -18 -196 -19q-109 0 -197 27q-98 29 -162 84q-70 59 -108 154q-41 98 -41 229zM334 598h381q0 45 -13 82q-14 41 -34 68q-22 28 -56 43q-41 18 -77 18q-39 0 -80 -18q-39 -18 -62 -43q-25 -27 -41 -68 q-10 -25 -18 -82z" />
<glyph unicode="&#xec;" horiz-adv-x="507" d="M135 969h238v-969h-238v969zM-197 969zM30 1473h232l119 -349h-185z" />
<glyph unicode="&#xed;" horiz-adv-x="507" d="M135 969h238v-969h-238v969zM-84 969zM156 1124l118 349h230l-164 -349h-184z" />
<glyph unicode="&#xee;" horiz-adv-x="507" d="M135 969h238v-969h-238v969zM-143 969zM-57 1124l211 349h207l209 -349h-185l-127 211h-4l-125 -211h-186z" />
<glyph unicode="&#xef;" horiz-adv-x="507" d="M135 969h238v-969h-238v969zM-135 969zM-49 1192v219h217v-219h-217zM361 1192v219h219v-219h-219z" />
<glyph unicode="&#xf0;" horiz-adv-x="1114" d="M80 457q0 100 31 186q33 92 84 152q59 68 127 102q78 39 161 39q80 0 135 -27q61 -29 99 -65l4 2q-27 57 -82 139q-53 78 -96 131l-277 -74l-51 162l203 56q-66 70 -101 100l-104 88h311l66 -57l34.5 -36l30.5 -32l234 66l49 -164l-162 -43q53 -70 101 -148 q43 -72 79 -162q33 -80 56 -174q18 -76 18 -184q0 -131 -33 -229q-33 -100 -96 -170q-61 -68 -151 -105q-84 -35 -195 -35q-113 0 -199 33q-82 31 -149 98q-59 61 -94 150q-33 86 -33 201zM326 457q0 -74 16 -123q18 -55 47 -90t76 -56q43 -18 92 -18q51 0 94 18.5t74 55.5 q29 35 47 90q16 49 16 123q0 68 -18 118q-18 49 -51 91q-33 39 -76 57t-92 18q-51 0 -90 -18q-45 -20 -72 -53q-29 -35 -47 -90q-16 -49 -16 -123z" />
<glyph unicode="&#xf1;" horiz-adv-x="1134" d="M129 0v969h197l22 -135h4q23 31 54 59q35 31 71 51q41 23 92 35q57 14 105 14q53 0 102 -12q51 -12 90 -37q41 -25 74 -67q31 -39 49 -97q12 -41 15 -67q2 -25 2 -84v-629h-238v592q0 49 -2 67q-4 35 -10 50q-16 43 -56 65q-35 20 -88 21q-70 0 -133 -33t-112 -94v-668 h-238zM213 969zM246 1188q0 43 6 80q4 29 31 69q20 33 57 51.5t84 18.5q35 0 78 -14q35 -12 69.5 -31t65.5 -33q29 -14 53 -14q27 0 39 18.5t12 65.5h156q0 -2 1 -14.5t1 -22.5q0 -35 -8 -70q-10 -41 -31 -71q-23 -31 -57 -50q-37 -18 -82 -18q-35 0 -78 14q-39 12 -72 31 l-67 33q-29 14 -49 14q-29 0 -41 -18q-10 -14 -11 -66h-157v27z" />
<glyph unicode="&#xf2;" horiz-adv-x="1132" d="M80 483q0 111 35 209q35 96 96 162q61 63 154 102q90 37 200 37q115 0 205 -37q92 -39 154 -102q61 -66 96 -162q35 -98 35 -209q0 -109 -35 -207q-33 -94 -98 -161q-61 -63 -154 -103q-88 -37 -201 -37q-117 0 -205 37t-151 103q-66 68 -98 161q-33 92 -33 207zM326 483 q0 -84 16 -135q18 -59 51 -98q31 -35 78 -60q41 -20 96 -20q57 0 99 20q49 25 75 60q31 40 49.5 98.5t18.5 134.5q0 78 -18 138q-18 58 -50 98q-29 37 -77 59q-43 20 -98.5 20.5t-96.5 -20.5q-49 -25 -76 -59q-35 -45 -51 -98q-16 -52 -16 -138zM84 969zM311 1473h232 l119 -349h-185z" />
<glyph unicode="&#xf3;" horiz-adv-x="1132" d="M80 483q0 111 35 209q35 96 96 162q61 63 154 102q90 37 200 37q115 0 205 -37q92 -39 154 -102q61 -66 96 -162q35 -98 35 -209q0 -109 -35 -207q-33 -94 -98 -161q-61 -63 -154 -103q-88 -37 -201 -37q-117 0 -205 37t-151 103q-66 68 -98 161q-33 92 -33 207zM326 483 q0 -84 16 -135q18 -59 51 -98q31 -35 78 -60q41 -20 96 -20q57 0 99 20q49 25 75 60q31 40 49.5 98.5t18.5 134.5q0 78 -18 138q-18 58 -50 98q-29 37 -77 59q-43 20 -98.5 20.5t-96.5 -20.5q-49 -25 -76 -59q-35 -45 -51 -98q-16 -52 -16 -138zM238 969zM478 1124l118 349 h230l-164 -349h-184z" />
<glyph unicode="&#xf4;" horiz-adv-x="1132" d="M80 483q0 111 35 209q35 96 96 162q61 63 154 102q90 37 200 37q115 0 205 -37q92 -39 154 -102q61 -66 96 -162q35 -98 35 -209q0 -109 -35 -207q-33 -94 -98 -161q-61 -63 -154 -103q-88 -37 -201 -37q-117 0 -205 37t-151 103q-66 68 -98 161q-33 92 -33 207zM326 483 q0 -84 16 -135q18 -59 51 -98q31 -35 78 -60q41 -20 96 -20q57 0 99 20q49 25 75 60q31 40 49.5 98.5t18.5 134.5q0 78 -18 138q-18 58 -50 98q-29 37 -77 59q-43 20 -98.5 20.5t-96.5 -20.5q-49 -25 -76 -59q-35 -45 -51 -98q-16 -52 -16 -138zM158 969zM244 1124l211 349 h207l209 -349h-185l-127 211h-4l-125 -211h-186z" />
<glyph unicode="&#xf5;" horiz-adv-x="1132" d="M80 483q0 111 35 209q35 96 96 162q61 63 154 102q90 37 200 37q115 0 205 -37q92 -39 154 -102q61 -66 96 -162q35 -98 35 -209q0 -109 -35 -207q-33 -94 -98 -161q-61 -63 -154 -103q-88 -37 -201 -37q-117 0 -205 37t-151 103q-66 68 -98 161q-33 92 -33 207zM326 483 q0 -84 16 -135q18 -59 51 -98q31 -35 78 -60q41 -20 96 -20q57 0 99 20q49 25 75 60q31 40 49.5 98.5t18.5 134.5q0 78 -18 138q-18 58 -50 98q-29 37 -77 59q-43 20 -98.5 20.5t-96.5 -20.5q-49 -25 -76 -59q-35 -45 -51 -98q-16 -52 -16 -138zM203 969zM236 1188 q0 43 6 80q4 29 31 69q20 33 57 51.5t84 18.5q35 0 78 -14q35 -12 69.5 -31t65.5 -33q29 -14 53 -14q27 0 39 18.5t12 65.5h156q0 -2 1 -14.5t1 -22.5q0 -35 -8 -70q-10 -41 -31 -71q-23 -31 -57 -50q-37 -18 -82 -18q-35 0 -78 14q-39 12 -72 31l-67 33q-29 14 -49 14 q-29 0 -41 -18q-10 -14 -11 -66h-157v27z" />
<glyph unicode="&#xf6;" horiz-adv-x="1132" d="M80 483q0 111 35 209q35 96 96 162q61 63 154 102q90 37 200 37q115 0 205 -37q92 -39 154 -102q61 -66 96 -162q35 -98 35 -209q0 -109 -35 -207q-33 -94 -98 -161q-61 -63 -154 -103q-88 -37 -201 -37q-117 0 -205 37t-151 103q-66 68 -98 161q-33 92 -33 207zM326 483 q0 -84 16 -135q18 -59 51 -98q31 -35 78 -60q41 -20 96 -20q57 0 99 20q49 25 75 60q31 40 49.5 98.5t18.5 134.5q0 78 -18 138q-18 58 -50 98q-29 37 -77 59q-43 20 -98.5 20.5t-96.5 -20.5q-49 -25 -76 -59q-35 -45 -51 -98q-16 -52 -16 -138zM164 969zM250 1192v219h217 v-219h-217zM660 1192v219h219v-219h-219z" />
<glyph unicode="&#xf7;" d="M115 436v191h852v-191h-852zM436 74v207h207v-207h-207zM436 782v207h207v-207h-207z" />
<glyph unicode="&#xf8;" horiz-adv-x="1132" d="M80 86l84 88q-43 70 -64 141q-20 74 -20 168q0 111 35 209q35 96 96 162q61 63 154 102q90 37 200 37q82 0 160 -22q72 -20 131 -62l80 84l119 -110l-84 -90q41 -66 61 -140q23 -80 23 -170q0 -109 -35 -207q-33 -94 -98 -161q-61 -63 -154 -103q-88 -37 -201 -37 q-90 0 -159 21q-72 20 -132 61l-77 -82zM326 483q0 -45 2 -65q2 -29 12 -58l367 392q-59 47 -142 47q-55 0 -96 -21q-49 -25 -76 -59q-35 -45 -51 -98q-16 -52 -16 -138zM426 215q57 -45 141 -45q57 0 99 20q49 25 75 60q31 40 49.5 98.5t18.5 134.5q0 72 -14 123z" />
<glyph unicode="&#xf9;" horiz-adv-x="1114" d="M121 377v592h235v-568q0 -35 9 -84q6 -39 20 -61q25 -45 68 -66q41 -20 104 -20q68 0 111 23q46 25 67 73q25 53 25 131v572h235v-592q0 -117 -41 -199q-20 -47 -59 -84q-35 -35 -86 -63q-43 -25 -111 -41q-57 -14 -141 -15q-147 0 -242 50q-96 49 -145 133 q-27 49 -37 98q-12 55 -12 121zM78 969zM305 1473h232l119 -349h-185z" />
<glyph unicode="&#xfa;" horiz-adv-x="1114" d="M121 377v592h235v-568q0 -35 9 -84q6 -39 20 -61q25 -45 68 -66q41 -20 104 -20q68 0 111 23q46 25 67 73q25 53 25 131v572h235v-592q0 -117 -41 -199q-20 -47 -59 -84q-35 -35 -86 -63q-43 -25 -111 -41q-57 -14 -141 -15q-147 0 -242 50q-96 49 -145 133 q-27 49 -37 98q-12 55 -12 121zM225 969zM465 1124l118 349h230l-164 -349h-184z" />
<glyph unicode="&#xfb;" horiz-adv-x="1114" d="M121 377v592h235v-568q0 -35 9 -84q6 -39 20 -61q25 -45 68 -66q41 -20 104 -20q68 0 111 23q46 25 67 73q25 53 25 131v572h235v-592q0 -117 -41 -199q-20 -47 -59 -84q-35 -35 -86 -63q-43 -25 -111 -41q-57 -14 -141 -15q-147 0 -242 50q-96 49 -145 133 q-27 49 -37 98q-12 55 -12 121zM162 969zM248 1124l211 349h207l209 -349h-185l-127 211h-4l-125 -211h-186z" />
<glyph unicode="&#xfc;" horiz-adv-x="1114" d="M121 377v592h235v-568q0 -35 9 -84q6 -39 20 -61q25 -45 68 -66q41 -20 104 -20q68 0 111 23q46 25 67 73q25 53 25 131v572h235v-592q0 -117 -41 -199q-20 -47 -59 -84q-35 -35 -86 -63q-43 -25 -111 -41q-57 -14 -141 -15q-147 0 -242 50q-96 49 -145 133 q-27 49 -37 98q-12 55 -12 121zM156 969zM242 1192v219h217v-219h-217zM652 1192v219h219v-219h-219z" />
<glyph unicode="&#xfd;" horiz-adv-x="1050" d="M10 969h254l146 -351q63 -154 114 -296h4q18 53 107 278l149 369h258l-624 -1434h-234l222 518zM197 969zM437 1124l118 349h230l-164 -349h-184z" />
<glyph unicode="&#xfe;" horiz-adv-x="1124" d="M129 -465v1913h238v-418v-80q0 -14 -1 -31.5t-1 -23.5h4q43 43 104 70q68 29 148 28q72 0 149.5 -30.5t137 -90t100.5 -157.5q39 -92 39 -223q0 -135 -39 -232q-41 -98 -101 -162q-61 -63 -137 -94q-72 -29 -149 -29q-80 0 -148 29q-61 27 -104 70h-4q0 -6 1 -23.5 t1 -32.5v-79v-404h-238zM367 260q4 -4 36 -33q6 -4 48 -30q23 -14 57 -25q27 -8 65 -8q53 0 99 22q43 23 71.5 66t42.5 100q14 55 15 131q0 78 -15 133q-14 57 -42.5 100.5t-71.5 65.5q-45 23 -99 23q-31 0 -65 -10q-41 -12 -57 -23q-41 -27 -48 -31q-27 -25 -36 -34v-447z " />
<glyph unicode="&#xff;" horiz-adv-x="1050" d="M10 969h254l146 -351q63 -154 114 -296h4q18 53 107 278l149 369h258l-624 -1434h-234l222 518zM127 969zM213 1192v219h217v-219h-217zM623 1192v219h219v-219h-219z" />
<glyph unicode="&#x131;" horiz-adv-x="507" d="M135 969h238v-969h-238v969z" />
<glyph unicode="&#x152;" horiz-adv-x="2142" d="M100 670q0 152 43 280q43 127 125 219q80 90 201 144q115 51 266 51q133 0 240 -45q100 -43 172 -121h4v139h856v-204h-621v-347h535v-204h-535v-377h658v-205h-893v137h-4q-70 -76 -170 -119q-101 -43 -240 -43q-150 0 -266 52q-119 51 -201 143q-86 94 -127 219 q-43 129 -43 281zM352 670q0 -123 31 -215q29 -86 84 -152q49 -59 125 -90q74 -31 160 -31t159 31q78 33 127 90q51 61 82 152q31 92 31 215q0 121 -31 213q-31 90 -82 151.5t-127 91.5q-70 29 -159.5 29t-159.5 -29q-72 -31 -125 -92q-55 -66 -84 -151q-31 -92 -31 -213z " />
<glyph unicode="&#x153;" horiz-adv-x="1777" d="M80 483q0 111 35 209q33 92 96 162q57 63 149 102q86 37 195 37q123 0 217 -53q90 -51 152 -137h4q23 37 67 82q33 33 80 59q41 25 94 37q49 12 97 12q90 0 170 -28q82 -31 135 -88q55 -61 86 -154q33 -98 33 -223q0 -20 -4 -86h-635q6 -70 30 -115q23 -43 66 -76 q41 -31 94 -43q66 -14 117 -14q74 0 143 14q92 18 154 39v-188q-35 -14 -72 -23q-76 -18 -82 -18q-57 -8 -88 -10q-61 -4 -90 -5q-74 0 -123 11q-53 10 -110 34q-39 16 -95 60q-37 29 -71 82h-4q-27 -37 -68 -76q-39 -35 -84 -59q-51 -27 -104 -39q-55 -12 -119 -13 q-104 0 -190.5 37t-145.5 103q-63 70 -96 161.5t-33 206.5zM326 483q0 -84 16 -135q18 -59 51 -98q31 -35 78 -60q41 -20 96 -20q57 0 99 20q49 25 75 60q31 40 49.5 98.5t18.5 134.5q0 78 -18 138q-18 58 -50 98q-29 37 -77 59q-43 20 -98.5 20.5t-96.5 -20.5 q-49 -25 -76 -59q-35 -45 -51 -98q-16 -52 -16 -138zM1063 598h381q0 45 -12 82q-14 41 -35 68q-22 28 -56 43q-41 18 -77 18q-39 0 -80 -18q-39 -18 -62 -43q-25 -27 -41 -68q-10 -25 -18 -82z" />
<glyph unicode="&#x178;" horiz-adv-x="1298" d="M20 1337h273l354 -575h4l357 575h272l-508 -798v-539h-246v539zM330 1673h223v-225h-223v225zM742 1673h225v-225h-225v225zM248 1337z" />
<glyph unicode="&#x2c6;" horiz-adv-x="798" d="M0 969zM86 1124l211 349h207l209 -349h-185l-127 211h-4l-125 -211h-186z" />
<glyph unicode="&#x2da;" horiz-adv-x="798" d="M399 1090q-57 0 -100 14q-47 16 -78 41q-33 27 -51 63q-20 41 -20 86t20 86t51 65.5t78 41.5q37 12 100.5 12t100.5 -12q51 -16 80 -41q31 -25 51 -66q18 -37 18 -86t-18.5 -86t-50.5 -63q-29 -25 -80 -41q-44 -14 -101 -14zM399 1386q-47 0 -71 -22q-29 -25 -29 -70 q0 -43 28.5 -67.5t71.5 -24.5t72 25q31 27 31 67q0 43 -31 70q-25 22 -72 22zM0 969z" />
<glyph unicode="&#x2dc;" horiz-adv-x="798" d="M0 969zM33 1188q0 43 6 80q4 29 31 69q20 33 57 51.5t84 18.5q35 0 78 -14q35 -12 69.5 -31t65.5 -33q29 -14 53 -14q27 0 39 18.5t12 65.5h156q0 -2 1 -14.5t1 -22.5q0 -35 -8 -70q-10 -41 -31 -71q-23 -31 -57 -50q-37 -18 -82 -18q-35 0 -78 14q-39 12 -72 31l-67 33 q-29 14 -49 14q-29 0 -41 -18q-10 -14 -11 -66h-157v27z" />
<glyph unicode="&#x3bc;" horiz-adv-x="1234" d="M1190 -2q-18 -4 -55 -8q-41 -4 -52 -4q-86 0 -139 47q-49 43 -65 129h-5q-23 -49 -57 -86q-33 -37 -69 -58q-43 -25 -78 -32q-45 -10 -82 -11q-31 0 -62 7q-29 6 -61 20q-23 10 -51 35q-23 20 -39 49h-6q4 -25 6 -53q4 -37 6 -76q2 -14 3 -46t1 -48q2 -35 2 -107v-221 h-237v1434h237v-523q0 -53 2 -73q2 -27 10 -54q23 -72 66 -102q47 -35 115 -35q70 0 127 35q53 33 81 107q10 25 17 71q6 43 6 101v473h236v-619q0 -27 4 -67q2 -23 14 -52q6 -16 29 -30q18 -12 49 -13q25 0 47 7v-197z" />
<glyph unicode="&#x2000;" horiz-adv-x="878" />
<glyph unicode="&#x2001;" horiz-adv-x="1757" />
<glyph unicode="&#x2002;" horiz-adv-x="878" />
<glyph unicode="&#x2003;" horiz-adv-x="1757" />
<glyph unicode="&#x2004;" horiz-adv-x="585" />
<glyph unicode="&#x2005;" horiz-adv-x="438" />
<glyph unicode="&#x2006;" horiz-adv-x="292" />
<glyph unicode="&#x2007;" horiz-adv-x="292" />
<glyph unicode="&#x2008;" horiz-adv-x="217" />
<glyph unicode="&#x2009;" horiz-adv-x="350" />
<glyph unicode="&#x200a;" horiz-adv-x="96" />
<glyph unicode="&#x2011;" horiz-adv-x="679" d="M121 393v215h440v-215h-440z" />
<glyph unicode="&#x2012;" horiz-adv-x="679" d="M121 393v215h440v-215h-440z" />
<glyph unicode="&#x2013;" horiz-adv-x="999" d="M0 403v185h999v-185h-999z" />
<glyph unicode="&#x2014;" horiz-adv-x="1699" d="M0 403v185h1700v-185h-1700z" />
<glyph unicode="&#x2018;" horiz-adv-x="495" d="M31 1337h213l192 -551h-254z" />
<glyph unicode="&#x2019;" horiz-adv-x="495" d="M59 786l154 551h254l-195 -551h-213z" />
<glyph unicode="&#x201a;" horiz-adv-x="495" d="M32 -299l154 551h254l-195 -551h-213z" />
<glyph unicode="&#x201c;" horiz-adv-x="931" d="M31 1337h213l192 -551h-254zM434 1337h221l217 -551h-262z" />
<glyph unicode="&#x201d;" horiz-adv-x="931" d="M59 786l154 551h254l-195 -551h-213zM465 786l174 551h262l-217 -551h-219z" />
<glyph unicode="&#x201e;" horiz-adv-x="931" d="M32 -299l154 551h254l-195 -551h-213zM438 -299l174 551h262l-217 -551h-219z" />
<glyph unicode="&#x2022;" horiz-adv-x="907" d="M139 668q0 66 25 123q25 59 65.5 100t100 65.5t125 24.5t123.5 -25q59 -25 100 -65.5t65 -99.5q25 -57 25 -123t-24.5 -125.5t-65.5 -100.5t-100 -65q-57 -25 -123 -25t-125.5 24.5t-100.5 65.5t-65.5 100.5t-24.5 125.5z" />
<glyph unicode="&#x2026;" horiz-adv-x="1796" d="M166 0v266h268v-266h-268zM764 0v266h268v-266h-268zM1364 0v266h268v-266h-268z" />
<glyph unicode="&#x202f;" horiz-adv-x="350" />
<glyph unicode="&#x2039;" horiz-adv-x="608" d="M76 473l246 387h202l-198 -387l198 -385h-202z" />
<glyph unicode="&#x203a;" horiz-adv-x="608" d="M86 88l199 385l-199 387h203l246 -387l-246 -385h-203z" />
<glyph unicode="&#x2044;" horiz-adv-x="456" d="M782 1274l-977 -1309l-129 101l975 1306z" />
<glyph unicode="&#x2215;" horiz-adv-x="456" d="M782 1274l-977 -1309l-129 101l975 1306z" />
<glyph unicode="&#x205f;" horiz-adv-x="438" />
<glyph unicode="&#x2074;" horiz-adv-x="729" d="M330 1016q-57 -135 -82 -174l2 -2q33 4 112 4h31v125h203v-125h98v-170h-98v-162h-203v162h-350v133l207 530h211z" />
<glyph unicode="&#x20ac;" d="M127 303v162h104v27q0 4 -1 12t-1 14q0 23 4 64h-106v159h133q49 170 176 260.5t328 90.5q18 0 63 -5q41 -4 64 -8l57 -12q29 -6 45 -14v-201q-41 14 -102 27q-59 12 -113 12q-199 0 -266 -150h338v-159h-377q-2 -18 -2 -58v-32q0 -6 1 -15.5t1 -11.5h301v-162h-264 q34 -68 98 -98q59 -29 174 -29q33 0 54 2q41 4 61.5 8t56.5 13q33 8 50 14v-199q-27 -12 -52 -16l-61 -12q-20 -4 -66 -9q-23 -2 -63 -2q-414 0 -506 328h-129z" />
<glyph unicode="&#x2122;" horiz-adv-x="1751" d="M96 1194v143h578v-143h-205v-541h-164v541h-209zM768 653v684h252l78 -227l41 -119l26 -84h6q0 4 2.5 8.5t3.5 7.5t2 9t3 10q2 10 7 22.5t9 26.5l19 56l20 63l80 227h250v-684h-158v316v96q0 16 1 35.5t3 43t2 38.5h-6q-8 -35 -27 -86q-31 -96 -39 -115l-116 -328h-117 l-117 328l-39 115q-16 51 -26 86h-6q4 -82 4 -117q0 -20 1 -52t1 -44v-316h-160z" />
<glyph unicode="&#xe000;" horiz-adv-x="970" d="M0 970h970v-970h-970v970z" />
<glyph unicode="&#xfb01;" horiz-adv-x="1159" d="M10 774v195h164v90q0 113 39 190q39 80 102 127q70 53 148 74q86 23 170 23q78 0 135 -9q68 -10 121 -24v-189q-39 10 -107 21q-51 8 -118 8q-33 0 -95 -12q-47 -10 -82 -35q-35 -27 -55 -66q-20 -41 -20 -104v-94h612v-969h-238v774h-374v-774h-238v774h-164z" />
<glyph unicode="&#xfb02;" horiz-adv-x="1163" d="M10 774v195h164v90q0 113 39 190q37 74 106 127q72 53 150 74q90 23 176 23q92 0 203 -17q86 -12 176 -39v-1417h-238v1264q-61 16 -122 16q-33 0 -95 -12q-45 -8 -80 -35q-39 -29 -57 -66q-20 -41 -20 -104v-94h237v-195h-237v-774h-238v774h-164z" />
<glyph unicode="&#xfb03;" horiz-adv-x="1771" d="M10 774v195h164v125q0 102 27 170q29 76 75 118q51 47 115 68q72 23 150 23q47 0 90 -7q41 -6 76 -18v-188q-20 6 -66 14q-35 6 -70 6q-37 0 -71 -10q-23 -6 -49 -33q-20 -20 -31 -57q-8 -31 -8 -84v-127h374v88q0 113 39 190q40 80 105 129q72 55 145 74q86 23 170 23 q80 0 137 -9q61 -8 119 -24v-189q-43 10 -108 21q-51 8 -117 8q-33 0 -94 -12q-45 -8 -80 -35q-39 -29 -58 -66q-20 -41 -20 -104v-94h612v-969h-235v774h-377v-774h-238v774h-374v-774h-238v774h-164z" />
<glyph unicode="&#xfb04;" horiz-adv-x="1775" d="M10 774v195h164v125q0 102 27 170q29 76 75 118q51 47 115 68q72 23 150 23q47 0 90 -7q41 -6 76 -18v-188q-16 6 -68 14q-34 6 -68 6q-37 0 -71 -10q-23 -6 -49 -33q-20 -20 -31 -57q-8 -31 -8 -84v-127h374v90q0 109 41 190q39 76 105 127q70 53 151 74q90 23 174 23 q102 0 197 -15q90 -14 182 -41v-1417h-235v1264q-66 16 -125 16q-33 0 -94 -12q-45 -8 -80 -35q-39 -29 -58 -66q-20 -41 -20 -104v-94h240v-195h-240v-774h-238v774h-374v-774h-238v774h-164z" />
<glyph horiz-adv-x="813" d="M506 590h-4l-33 -33q-18 -15 -43 -31q-20 -12 -53 -22q-27 -8 -66 -8q-61 0 -102 16t-76 51q-31 31 -47 76t-16 96q0 66 22 105q29 49 64 73q41 29 88 43q45 14 102 15q23 0 76 -8q49 -8 74 -17v27q0 125 -150 125q-51 0 -102 -13q-66 -16 -117 -34v170q63 18 143 28 q59 8 105 8q96 0 157 -20q74 -25 107 -57q39 -39 57 -95q16 -49 17 -127v-229q0 -88 2 -123q0 -16 1 -48t3 -46h-199zM492 809q-8 2 -25.5 5t-24.5 5q-28 6 -49 6q-23 0 -51 -8q-14 -4 -35 -20q-12 -10 -20 -29q-6 -14 -6 -33q0 -35 20 -57q23 -25 66 -25q35 0 71 21 q35 18 54 43v92z" />
<glyph horiz-adv-x="874" d="M438 496q-86 0 -151 26q-74 31 -119 76q-49 49 -76 119q-27 68 -26 160q0 90 26 157q27 72 78 121q47 47 117 76q66 27 151 26q84 0 150 -26q74 -31 119 -76q51 -49 77 -121q27 -68 27 -157q0 -92 -27 -160q-27 -70 -75 -119q-47 -47 -117 -76q-66 -26 -154 -26zM438 672 q74 0 115 49q41 51 41 155.5t-43 153.5q-45 51 -112.5 51t-112.5 -51q-43 -49 -43 -153q0 -106 42.5 -155.5t112.5 -49.5z" />
<glyph horiz-adv-x="798" d="M406 1657l139 -248h-189l-190 248h240zM0 1337z" />
<glyph horiz-adv-x="798" d="M555 1657l-188 -248h-189l137 248h240zM0 1337z" />
<glyph horiz-adv-x="798" d="M297 1657h207l215 -248h-207l-111 127h-4l-110 -127h-205zM0 1337z" />
<glyph horiz-adv-x="798" d="M252 1657q35 0 78 -15q35 -12 69 -30l66 -33q29 -14 53 -14q27 0 39 18.5t12 65.5h156q0 -4 1 -15.5t1 -17.5q0 -45 -8 -78q-9 -37 -31 -68q-23 -31 -57 -49q-37 -18 -82 -18q-35 0 -78 14q-35 12 -69.5 30.5t-65.5 33.5q-29 14 -53 14q-29 0 -41 -18q-10 -14 -11 -66 h-157v33q0 45 8 78q10 41 29 67q23 31 57 49q37 19 84 19zM0 1339z" />
<glyph horiz-adv-x="798" d="M82 1673h223v-225h-223v225zM494 1673h225v-225h-225v225zM0 1337z" />
<glyph horiz-adv-x="798" d="M399 1366q-47 0 -100 14q-39 10 -78 39q-33 23 -51 62q-20 41 -20 82q0 43 20 84q18 39 51 61q39 29 78 39q45 12 100.5 12t100.5 -12q41 -10 80 -39q33 -23 51 -61q18 -37 18 -84q0 -45 -18 -82q-18 -39 -51 -62q-39 -29 -80 -39q-54 -14 -101 -14zM399 1649 q-43 0 -71.5 -22.5t-28.5 -63.5t29 -64q27 -20 71.5 -20t71.5 20q31 25 31 64t-31 63q-29 23 -72 23zM0 1337z" />
</font>
</defs>
</svg>
