<?xml version="1.0" standalone="no"?>
<!DOCTYPE svg PUBLIC "-//W3C//DTD SVG 1.1//EN" "http://www.w3.org/Graphics/SVG/1.1/DTD/svg11.dtd" >
<svg xmlns="http://www.w3.org/2000/svg">
<metadata>
This is a custom SVG webfont generated by Font Squirrel.
Copyright   :  2005 Microsoft Corporation All Rights Reserved
Designer    : Jeremy Tankard
Foundry     : Microsoft Corporation
Foundry URL : httpwwwmicrosoftcomtypographyctfonts
</metadata>
<defs>
<font id="webfontiZHb2Bz5" horiz-adv-x="1048" >
<font-face units-per-em="2048" ascent="1524" descent="-524" />
<missing-glyph horiz-adv-x="409" />
<glyph unicode="&#x9;" horiz-adv-x="409" />
<glyph unicode="&#xd;" horiz-adv-x="409" />
<glyph unicode=" "  horiz-adv-x="409" />
<glyph unicode="&#x09;" horiz-adv-x="409" />
<glyph unicode="&#xa0;" horiz-adv-x="409" />
<glyph unicode="!" horiz-adv-x="540" d="M174 0v195h193v-195h-193zM180 1337h180l-24 -907h-131z" />
<glyph unicode="&#x22;" horiz-adv-x="741" d="M123 844v493h156v-493h-156zM465 844v493h153v-493h-153z" />
<glyph unicode="#" horiz-adv-x="1339" d="M121 389v131h219l61 297h-198v131h225l80 389h147l-80 -389h306l80 389h147l-80 -389h193v-131h-220l-61 -297h199v-131h-226l-79 -389h-150l82 389h-305l-80 -389h-148l80 389h-192zM487 520h306l61 297h-305z" />
<glyph unicode="$" d="M139 707q0 57 25 106q27 53 65 84q51 39 99 57q61 23 127 29v104h133v-102q88 -4 151 -14q47 -8 125 -33v-137q-59 16 -129 33q-68 15 -147 18v-285q66 -12 117 -26q61 -16 106 -43q46 -28 74 -74q29 -47 28 -117q0 -55 -22 -104q-20 -45 -66 -80q-49 -39 -102 -57 q-70 -25 -135 -33v-109h-133v101q-33 0 -95 4q-8 0 -90 12q-49 6 -75 14q-14 4 -54 21v137q27 -10 76 -25q33 -10 107 -20q55 -8 125 -8h6v286q-61 10 -115 25q-63 16 -102 43q-39 25 -70 76q-29 47 -29 117zM297 713q0 -55 39 -82q41 -29 119 -43v260q-158 -22 -158 -135z M588 170q45 8 65 14q27 8 54 27q23 16 37 40.5t14 53.5q0 31 -13 49q-10 14 -34 33q-20 14 -54 25q-39 12 -69 16v-258z" />
<glyph unicode="%" horiz-adv-x="1646" d="M1305 852q66 0 117 -27q55 -29 90 -82q37 -55 57.5 -135t20.5 -190q0 -113 -20.5 -193t-57.5 -135q-35 -53 -90 -82q-51 -27 -117 -26q-63 0 -115 26q-55 29 -90 82q-37 55 -57.5 135t-20.5 193q0 111 20.5 190.5t57.5 134.5q35 53 90 82q52 27 115 27zM1305 102 q70 0 107 78q35 72 34 238q0 164 -34 235q-37 76 -107 76q-68 0 -104 -76q-35 -72 -35 -235q0 -166 35 -238q36 -78 104 -78zM1264 1364l102 -80l-979 -1309l-100 78zM342 1364q66 0 117 -27q55 -29 90 -82q37 -55 57.5 -135t20.5 -190q0 -113 -20.5 -193t-57.5 -135 q-35 -53 -90 -82q-51 -27 -117 -26q-63 0 -115 26q-55 29 -90 82q-37 55 -57.5 135t-20.5 193q0 111 20.5 190.5t57.5 134.5q35 53 90 82q52 27 115 27zM342 614q70 0 107 78q35 72 34 238q0 164 -34 235q-37 76 -107 76q-68 0 -104 -76q-35 -72 -35 -235q0 -166 35 -238 q36 -78 104 -78z" />
<glyph unicode="&#x26;" horiz-adv-x="1370" d="M100 324q0 76 23 137q22 58 61 104q35 39 88 80q39 29 105 66l-76 75q-27 27 -63 80q-25 35 -41 86q-14 43 -15 101q0 76 27 131q27 57 76 96q49 40 116 61q72 23 152 23q70 0 141 -21q63 -18 112.5 -55t78.5 -94q27 -53 26 -127q0 -76 -24 -131q-23 -49 -70 -100 q-41 -43 -98 -82q-51 -35 -115 -68l35.5 -34.5t40.5 -41.5l86 -90l94 -96l94 -98q51 68 82 157q29 88 33 213h160q-4 -147 -49 -264q-45 -115 -127 -209l80 -82l67 -69l47 -49q10 -10 18 -17l7 -6h-199l-3 3l-4 4t-10 11.5t-20 20.5l-88 88q-96 -72 -209 -113 q-109 -39 -227 -39q-115 0 -188 29q-76 29 -127 80q-53 53 -74 111q-23 63 -23 129zM262 336q0 -49 14 -86q16 -43 47 -74t78 -49q51 -20 111 -21q37 0 80 7q51 8 88 20q49 18 88 37q47 25 86 53l-100 103l-103 104l-96 98q-23 25 -44.5 45.5l-39.5 38.5q-45 -27 -82 -53 q-39 -29 -65 -61q-33 -41 -45 -72q-17 -43 -17 -90zM344 1053q0 -43 10 -72q12 -35 33 -63q20 -31 53 -66q31 -33 72 -72q47 23 90 51q43 27 78 60q31 29 51 72q18 40 19 92q0 49 -15 80q-15 34 -43 55q-29 23 -63 31q-41 10 -82 10q-96 0 -149.5 -45t-53.5 -133z" />
<glyph unicode="'" horiz-adv-x="399" d="M123 844v493h156v-493h-156z" />
<glyph unicode="(" horiz-adv-x="612" d="M111 518q0 125 16 213q18 96 47 187q23 68 68 155q45 86 75 129q55 76 74 96q37 41 66 66l86 -82q-55 -58 -105 -135q-61 -96 -90 -170q-39 -100 -59 -209q-25 -129 -25 -250q0 -119 25 -248q20 -109 59 -209q29 -74 90 -170q53 -84 105 -137l-86 -80q-29 25 -66 66 q-18 20 -74 96q-31 43 -75 129q-45 88 -68 156q-31 94 -47 186q-16 90 -16 211z" />
<glyph unicode=")" horiz-adv-x="612" d="M72 -246q51 53 104 137q57 88 88 170q43 111 62 209q23 119 22 248q0 131 -22 250q-18 98 -62 209q-31 82 -88 170q-49 77 -104 135l86 82q16 -14 63 -66q29 -31 76 -96q31 -43 76 -129q41 -78 65 -155q29 -90 47 -187q18 -98 19 -213q0 -109 -19 -211q-16 -92 -47 -186 q-25 -78 -65 -156q-45 -86 -76 -129q-47 -66 -76 -96q-47 -51 -63 -66z" />
<glyph unicode="*" horiz-adv-x="1099" d="M121 965l45 139l174 -57l178 -105l4 4l-45 203v188h146v-188l-43 -203l4 -4l178 105l174 57l45 -139l-174 -58l-207 -20l-2 -4l154 -148l112 -153l-116 -86l-113 153l-82 201h-4l-82 -201l-113 -153l-116 86l110 153l156 148l-2 4l-207 20z" />
<glyph unicode="+" d="M115 455v133h340v362h141v-362h340v-133h-340v-363h-141v363h-340z" />
<glyph unicode="," horiz-adv-x="538" d="M20 -389l166 606h174l-190 -606h-150z" />
<glyph unicode="-" horiz-adv-x="679" d="M121 426v145h440v-145h-440z" />
<glyph unicode="." horiz-adv-x="540" d="M174 0v195h193v-195h-193z" />
<glyph unicode="/" horiz-adv-x="561" d="M18 -250l379 1587h150l-381 -1587h-148z" />
<glyph unicode="0" horiz-adv-x="1050" d="M90 473q0 113 29 199q31 92 86 159q57 70 137 107t184.5 37t186.5 -37q78 -35 137 -107q57 -70 84 -159q29 -96 29 -199q0 -104 -31 -196.5t-84 -157.5q-57 -70 -137 -107t-184.5 -37t-186.5 37q-78 35 -137 107q-57 72 -84 157q-29 97 -29 197zM252 473q0 -78 20 -154 q20 -74 54 -114q39 -49 88 -72q57 -27 112 -27q61 0 115 27q47 25 86 72q33 41 53 114q20 76 21 154q0 80 -21 156q-20 72 -55 116q-39 47 -86 72q-53 27 -113 27q-61 0 -114 -27q-47 -25 -86 -72q-35 -45 -56 -116q-18 -68 -18 -156z" />
<glyph unicode="1" horiz-adv-x="917" d="M90 672v143l381 135h135v-807h262v-143h-737v143h320v641z" />
<glyph unicode="2" horiz-adv-x="1044" d="M156 0v102l211 160q94 70 168 141q72 70 110 132q39 63 39 129q0 86 -55 133q-53 45 -160 45q-74 0 -152 -23q-82 -25 -151 -57v131q57 33 139 57q83 25 184 25q82 0 144 -21q80 -27 115 -57q47 -41 71 -96q27 -59 27 -129q0 -78 -35 -147.5t-92 -133.5 q-47 -51 -139 -123l-172 -127v-4q113 6 206 6h314v-143h-772z" />
<glyph unicode="3" horiz-adv-x="927" d="M68 -221q78 -33 143 -45q82 -14 131 -15q90 0 153.5 22.5t100.5 59.5q39 39 53 86q16 53 17 103q0 129 -82 186t-242 57h-104v134h61q80 0 147 20q61 18 103 53q37 31 57 82q18 47 19 101q0 57 -20.5 98t-55.5 67q-41 31 -84 41q-49 12 -103 13q-66 0 -137 -16.5 t-137 -43.5v133q86 35 158 48q74 12 131 12q90 0 174 -27q72 -23 127 -72t81.5 -110t26.5 -141q0 -51 -12 -100.5t-39 -88.5q-31 -45 -71 -74q-49 -35 -107 -51v-4q63 -8 102 -24q49 -22 86 -62q41 -45 60 -94q23 -61 22 -135q0 -92 -30 -166q-35 -82 -90 -129 q-66 -55 -150 -82q-92 -29 -205 -29q-76 0 -153 17q-72 14 -131 43v133z" />
<glyph unicode="4" horiz-adv-x="1056" d="M92 0v115l393 835h168l-385 -817v-4l150 4h219v303h154v-303h196v-133h-196v-387h-154v387h-545z" />
<glyph unicode="5" horiz-adv-x="980" d="M117 -221q70 -31 139 -45q63 -12 123 -13q80 0 147 23q63 20 107 61q39 37 61 91q23 55 23 108q0 70 -22.5 121t-67.5 84q-46 34 -117 49q-76 16 -174 16q-61 0 -174 -10l94 686h621v-143h-484l-55 -397q23 2 55 2q121 0 207 -27q94 -29 152 -78q66 -55 94 -125 q33 -78 33 -170q0 -90 -35 -170t-96 -135q-63 -59 -154 -88q-98 -33 -209 -33q-80 0 -143 15q-74 16 -125 45v133z" />
<glyph unicode="6" horiz-adv-x="1073" d="M111 575q0 100 16 205q16 102 49 187q37 92 80 161q45 72 111 125q65 52 141 80q86 31 170 31q72 0 131 -16q63 -18 90 -31v-131q-47 18 -94 28q-63 14 -117 15q-72 0 -139 -31q-72 -33 -123 -90q-53 -59 -94 -156q-37 -88 -53 -225h4q61 35 137 57q78 23 143 23 q82 0 166 -27q68 -23 129 -75q55 -49 86 -123t31 -170q0 -94 -29 -176q-27 -76 -84 -138q-53 -55 -131 -90q-74 -33 -176 -33q-109 0 -188 41q-78 41 -140 121q-55 74 -88 189q-28 102 -28 249zM272 582q0 -125 21 -209q23 -90 59.5 -149.5t91.5 -88.5q53 -29 115 -29 q49 0 100 21q46 18 80 55q35 39 54 92q18 55 18 123q0 78 -20 127q-25 57 -56 84q-35 29 -82 45q-43 14 -102 15q-72 0 -145 -25q-71 -22 -134 -61z" />
<glyph unicode="7" horiz-adv-x="874" d="M39 807v143h784v-104l-551 -1233h-161l532 1194h-604z" />
<glyph unicode="8" horiz-adv-x="1052" d="M94 348q0 70 23 131q23 63 55 101q35 39 84 69q41 25 100 39v4q-45 16 -92 47q-39 27 -74 70q-31 40 -49 92q-18 53 -18 113q0 84 35 149q35 68 90 111q61 47 129 67q78 23 149 23q74 0 152 -23q68 -20 129 -67q55 -43 90 -111q35 -66 35 -149q0 -55 -21 -113 q-18 -49 -53 -92q-39 -45 -76 -70q-43 -29 -94 -47v-4q57 -14 103 -39q51 -29 86 -69q39 -45 59 -101q23 -61 22 -131q0 -80 -30 -147q-33 -72 -88 -119q-63 -53 -135 -78q-82 -29 -179 -29q-94 0 -176 29q-76 27 -137 78q-51 43 -86 119q-33 71 -33 147zM256 354 q0 -59 20 -102q25 -53 58 -80t86 -47q49 -18 106 -19q59 0 109 19q53 20 86 47q29 25 55 80q20 43 21 102q0 68 -21 111q-20 45 -57 78q-35 33 -86 51q-49 18 -107 24q-55 -6 -104 -24q-51 -18 -86 -51q-37 -33 -57 -78q-23 -50 -23 -111zM285 1010q0 -102 63 -166 q68 -68 178 -88q111 20 179 88q63 63 63 166q0 59 -16 94q-20 45 -52 70q-35 29 -75.5 43t-98.5 14q-55 0 -96 -14.5t-76 -42.5q-31 -25 -51 -70q-18 -39 -18 -94z" />
<glyph unicode="9" horiz-adv-x="1073" d="M100 539q0 94 27 172q29 82 80 139t131 92q74 33 176 33q113 0 193 -41q83 -43 141 -123q53 -72 86 -199q31 -117 31 -270q0 -111 -15 -199q-16 -98 -43 -180q-25 -76 -76 -153q-45 -70 -110 -119q-61 -47 -147.5 -76t-188.5 -29q-74 0 -143 17q-66 16 -115 43v133 q53 -27 113 -41q70 -16 131 -17q90 0 166 29q78 29 131 88.5t88 155.5t43 229h-4q-16 -12 -64 -30q-51 -23 -74 -27q-53 -12 -82 -16q-43 -6 -81 -7q-78 0 -154 27q-74 27 -125 74q-53 49 -84 125q-31 74 -31 170zM262 555q0 -76 18.5 -127t51.5 -84q31 -31 80 -47 q43 -14 104 -14q84 0 152 22q82 27 135 60q0 123 -23 217q-20 86 -59 147q-35 55 -92 86q-53 29 -119 29q-49 0 -100 -21q-43 -16 -78 -55q-33 -37 -51 -90q-19 -55 -19 -123z" />
<glyph unicode=":" horiz-adv-x="540" d="M174 0v195h193v-195h-193zM174 612v195h193v-195h-193z" />
<glyph unicode=";" horiz-adv-x="544" d="M20 -389l166 606h174l-190 -606h-150zM174 612v195h193v-195h-193z" />
<glyph unicode="&#x3c;" d="M115 469v125l821 414v-154l-653 -322v-4l653 -321v-152z" />
<glyph unicode="=" d="M115 272v134h821v-134h-821zM115 639v131h821v-131h-821z" />
<glyph unicode="&#x3e;" d="M115 55v150l661 323v4l-661 324v152l821 -410v-135z" />
<glyph unicode="?" horiz-adv-x="872" d="M80 1165v133q59 31 131 48q77 18 154 18q90 0 170 -23q72 -20 127 -65q57 -47 81 -98q29 -61 29 -129q0 -61 -18 -107q-20 -51 -49 -86q-31 -37 -68 -68l-76 -61q-33 -25 -65 -53q-31 -28 -56 -62q-20 -29 -36.5 -73.5t-16.5 -92.5v-16h-135q-2 18 -2 45q0 76 18 123 q20 51 56 96q31 39 75 74l78 63q18 14 51 43q23 20 43 48q20 29 29 53q10 35 10 67q0 43 -18 78q-20 37 -51 60q-34 25 -80 37q-53 14 -105 14q-66 0 -147 -21q-53 -14 -129 -45zM223 0v195h191v-195h-191z" />
<glyph unicode="@" horiz-adv-x="2068" d="M180 451q0 206 62 374q61 168 176 289q114 120 276 184q166 66 361 66q176 0 336 -57q154 -55 264 -160q115 -109 174 -248q61 -145 61 -321q0 -137 -32 -242q-35 -113 -91 -184q-58 -77 -135 -117q-76 -39 -168 -39q-45 0 -75 8q-33 8 -56 29q-29 25 -39 41 q-12 18 -22 51h-4l-49 -47q-29 -27 -64 -43q-27 -14 -80 -29q-35 -10 -96 -10q-74 0 -121 18q-59 23 -96 58q-39 37 -62 90q-23 55 -22 119q0 72 24.5 127t71.5 96q43 37 111 59q61 20 141 20.5t131 -12.5q52 -12 98 -30h5v57q0 51 -13 94q-12 45 -39 74q-29 33 -73 47 q-49 16 -113 16q-72 0 -137 -12q-45 -8 -125 -39v131q31 14 55 23q51 14 70 18q49 8 76 11q53 4 79 4q95 0 166 -25q72 -25 117 -70q49 -51 70 -108q23 -68 22 -144v-391q0 -49 17 -75q15 -25 61 -25q53 0 100 35q43 33 78 94q35 66 53 141q18 80 19 170q0 162 -55 285 q-57 129 -148 207q-98 86 -219 127q-125 43 -268 43q-117 0 -230 -31q-102 -29 -182 -80q-78 -51 -137 -123q-55 -68 -94 -157q-37 -86 -56 -183q-18 -95 -18 -196q0 -160 47 -297q45 -133 139 -234q92 -98 231.5 -153.5t323.5 -55.5q94 0 166 9q102 12 150 22q98 23 125 31 q61 20 102 37v-135q-35 -14 -104 -35q-59 -18 -134 -31q-82 -14 -153.5 -22.5t-163.5 -8.5q-120 0 -234 25q-113 25 -210 74q-100 49 -181 120q-80 70 -139 168q-57 92 -88 215q-33 128 -33 263zM838 281q0 -40 12 -68q12 -29 35 -47q23 -20 53 -29q35 -10 66 -10 q35 0 75 10q20 4 68 27q27 12 61 39q29 23 52 45v170q-10 4 -21.5 6t-21.5 4q-14 4 -48 12q-18 4 -55 9q-41 4 -65 4q-100 0 -155.5 -43t-55.5 -129z" />
<glyph unicode="A" horiz-adv-x="1300" d="M35 0l545 1337h141l545 -1337h-176l-160 403h-559l-160 -403h-176zM428 551h442l-49 125q-74 186 -168 454h-4q-98 -274 -172 -454z" />
<glyph unicode="B" horiz-adv-x="1214" d="M170 0v1337h334h84q8 0 69 -6l58 -6q18 -2 51 -10q68 -18 115 -47t88 -72q37 -40 55 -92q18 -51 18 -113q0 -55 -10 -94q-12 -47 -37 -84q-20 -33 -67 -68q-33 -25 -99 -49v-4q68 -10 113 -32.5t84 -61.5q37 -37 55 -90q18 -52 19 -117q0 -49 -15 -98q-18 -61 -45 -100 q-35 -51 -86 -91q-53 -41 -131 -65q-53 -18 -133 -29q-66 -8 -174 -8h-346zM334 147h196q68 0 129 7q63 6 103 20q49 16 78 39q37 29 51 51q18 29 29 62q8 27 8 63q0 41 -8 72q-9 34 -31 61q-16 23 -53 45q-25 16 -84 31q-41 8 -68 10q-53 4 -96 4h-254v-465zM334 760h248 q37 0 82 4q37 4 63 12q74 25 108.5 78t34.5 127q0 78 -34 121q-39 49 -113 69q-33 10 -88 15q-98 6 -119 6h-182v-432z" />
<glyph unicode="C" horiz-adv-x="1206" d="M121 651q0 152 47 287q43 125 137 225q90 96 217 148q131 53 287 53q29 0 82 -4q31 -2 78 -10q35 -6 69 -17q41 -12 56 -18v-144q-57 20 -131 33q-82 14 -144 15q-111 0 -207 -37q-104 -41 -168 -105q-70 -70 -110.5 -176t-40.5 -244t37 -239q35 -98 108 -168 q72 -68 168 -98q98 -31 219 -31q47 0 72 2t74 10q25 4 73 17q33 8 64 18v-145q-61 -23 -137 -35q-77 -12 -160 -13q-170 0 -297 45.5t-217 135.5q-84 86 -131 211q-45 122 -45 284z" />
<glyph unicode="D" horiz-adv-x="1372" d="M170 0v1337h305q94 0 170 -6q68 -6 146 -26q121 -35 204 -93q82 -55 144 -139q57 -80 86 -182q29 -104 28 -215q0 -113 -28 -221q-25 -94 -88 -185q-55 -80 -146 -143q-78 -55 -205 -92q-78 -20 -145 -27q-102 -8 -168 -8h-303zM334 147h123q92 0 166 7q63 6 135 26 q158 49 239 174q84 127 84 322q0 190 -84 311t-239 170q-72 20 -135 27q-98 8 -166 8h-123v-1045z" />
<glyph unicode="E" horiz-adv-x="1128" d="M170 0v1337h811v-145h-647v-432h575v-148h-575v-465h686v-147h-850z" />
<glyph unicode="F" horiz-adv-x="1032" d="M170 0v1337h799v-145h-635v-432h563v-148h-563v-612h-164z" />
<glyph unicode="G" horiz-adv-x="1366" d="M121 639q0 160 53 297q51 135 150 229q94 92 233 146q137 53 299 53q31 0 88 -4q33 -2 84 -10q31 -4 74 -17q39 -10 57 -18v-144q-57 20 -137 33q-90 14 -158 15q-109 0 -217 -35q-100 -33 -182 -105q-78 -68 -125 -176q-47 -106 -47 -248q0 -145 37 -239 q40 -101 110 -166q76 -70 170 -98q102 -31 224 -31q57 0 112 6q68 8 98 16v398h-305v147h469v-647q-14 -8 -61 -23q-33 -10 -92 -20q-63 -10 -113 -16q-58 -6 -117 -7q-168 0 -303 48q-131 45 -221 133q-89 86 -135 209q-45 120 -45 274z" />
<glyph unicode="H" horiz-adv-x="1366" d="M170 0v1337h164v-577h700v577h162v-1337h-162v612h-700v-612h-164z" />
<glyph unicode="I" horiz-adv-x="501" d="M170 0v1337h164v-1337h-164z" />
<glyph unicode="J" horiz-adv-x="765" d="M59 8v144q25 -10 82 -23q39 -8 92 -8q51 0 84 8q37 8 66 35q25 23 41 63q14 37 14 101v1009h164v-1030q0 -84 -24 -145q-23 -57 -72 -103q-43 -41 -113 -63q-61 -20 -145 -21q-66 0 -117 11q-45 8 -72 22z" />
<glyph unicode="K" horiz-adv-x="1236" d="M170 0v1337h164v-659h2l614 659h201l-625 -665l672 -672h-211l-651 655h-2v-655h-164z" />
<glyph unicode="L" horiz-adv-x="1064" d="M170 0v1337h164v-1190h651v-147h-815z" />
<glyph unicode="M" horiz-adv-x="1681" d="M170 0v1337h236l315 -755q49 -117 119 -314h4q59 172 119 314l315 755h235v-1337h-163v647q0 246 14 510h-8q-66 -182 -139 -358l-338 -799h-74l-338 799q-59 139 -139 358h-9q14 -260 15 -510v-647h-164z" />
<glyph unicode="N" horiz-adv-x="1425" d="M170 0v1337h162l524 -745l244 -365h6q-12 195 -12 400v710h161v-1337h-161l-525 745q-131 188 -243 365h-7q14 -215 15 -428v-682h-164z" />
<glyph unicode="O" horiz-adv-x="1495" d="M121 667.5q0 151.5 43 280.5q41 125 127 219q84 92 196 144q119 53 261 53q145 0 263.5 -53.5t196.5 -143.5q84 -98 125 -219q43 -129 43 -280q0 -147 -45 -279q-45 -129 -125 -219q-82 -92 -198 -143q-115 -51 -258 -52q-150 0 -265 52q-121 55 -198 143 q-80 92 -123 219t-43 278.5zM293 668q0 -141 35 -238q41 -111 96 -172q61 -68 145 -102q86 -35 181 -35q92 0 178 35q84 35 145.5 102.5t96 172t34.5 237.5q0 129 -35 237q-33 102 -96 172q-61 68 -145 105t-180 37q-95 0 -179 -37t-145 -105q-63 -70 -96 -172 q-35 -108 -35 -237z" />
<glyph unicode="P" horiz-adv-x="1167" d="M170 0v1337h371q76 0 153 -10q71 -9 129 -31q123 -45 183 -127q61 -86 61 -211q0 -104 -39 -180q-39 -74 -119 -129q-72 -49 -186 -78q-106 -27 -252 -26q-66 0 -137 6v-551h-164zM334 698l67 -6q25 -2 68 -2q117 0 196.5 18.5t133.5 53.5q51 33 73.5 84t22.5 112 q0 78 -37 127q-39 51 -106 76q-47 16 -101 23q-74 8 -129 8h-188v-494z" />
<glyph unicode="Q" horiz-adv-x="1513" d="M121 668q0 152 43 280q41 125 127 219q84 92 196 144q119 53 261 53q145 0 264 -53q121 -53 196 -142q84 -96 125 -217q43 -125 43 -270q0 -100 -20 -182q-20 -86 -58 -158q-35 -70 -88 -129q-49 -55 -112 -96v-4q84 12 155 18q80 7 124 7q15 0 28 -1v-147q-47 2 -102 6 q-74 4 -127 4q-72 0 -109 -2q-18 -2 -55 -4t-56 -4l-104 -6q-70 -4 -100 -4q-145 0 -267 51q-119 49 -198 139q-78 88 -123 217q-43 125 -43 281zM293 668q0 -141 35 -238q41 -111 96 -172q61 -68 145 -102q86 -35 181 -35q92 0 178 35q84 35 145.5 102.5t96 172t34.5 237.5 q0 129 -35 237q-33 102 -96 172q-61 68 -145 105t-180 37q-95 0 -179 -37t-145 -105q-63 -70 -96 -172q-35 -108 -35 -237z" />
<glyph unicode="R" horiz-adv-x="1210" d="M170 0v1337h346q88 0 150 -6q66 -6 112 -20q141 -37 215 -129t74 -230q0 -74 -27 -143q-25 -66 -71 -113q-43 -43 -113 -75q-59 -29 -145 -46v-4l436 -571h-205l-412 555h-196v-555h-164zM334 700h160q76 0 129 7q51 6 94 18q86 25 131 82q47 59 47 149q0 82 -45 137.5 t-119 75.5q-27 8 -86 17q-49 6 -127 6h-184v-492z" />
<glyph unicode="S" horiz-adv-x="1128" d="M127 51v150q33 -16 82 -32.5t92 -25.5q66 -12 98 -16q49 -6 93 -6q80 0 133 10q57 10 110 41q49 27 76 76q29 51 29 123q0 59 -25 98q-23 37 -65 63q-47 29 -95 43q-20 6 -60 15.5t-52 13.5q-63 14 -152 41q-70 20 -133 64q-59 41 -94 102q-37 66 -37 162q0 100 37 174 t98 123q59 47 146 69q94 25 176 25q113 0 200 -21q90 -20 168 -55v-149q-86 35 -170 55q-102 25 -190 25q-72 0 -131 -17q-57 -16 -94 -47t-56 -74q-16 -39 -16 -98t22.5 -96t65.5 -64q41 -25 94 -41q52 -15 111 -30q51 -12 153 -41q72 -20 136 -64q55 -37 94 -106 q37 -65 37 -166q0 -104 -39 -180t-107 -125q-63 -45 -164 -72q-88 -23 -206 -23q-51 0 -106.5 6.5t-104.5 18.5q-76 18 -91 25q-57 22 -63 26z" />
<glyph unicode="T" horiz-adv-x="1136" d="M41 1192v145h1057v-145h-449v-1192h-162v1192h-446z" />
<glyph unicode="U" horiz-adv-x="1372" d="M166 512v825h162v-829q0 -46 6 -92q6 -49 20 -86q34 -98 117 -154q82 -55 215 -55q82 0 131 16q61 20 98 47q39 27 70 76q27 43 43 96q12 45 14 74q4 53 5 78v829h161v-825q0 -63 -4 -98q-8 -63 -16 -95q-16 -66 -58 -137q-35 -61 -98 -108q-68 -51 -147 -74 q-86 -25 -201 -25q-111 0 -192 25q-88 27 -142 66q-66 49 -98 100q-37 59 -59 129q-14 45 -21 106q-6 58 -6 111z" />
<glyph unicode="V" horiz-adv-x="1241" d="M41 1337h168l256 -688q104 -283 156 -440h4q66 201 153 440l256 688h168l-510 -1337h-141z" />
<glyph unicode="W" horiz-adv-x="1804" d="M41 1337h170l225 -784q57 -197 92 -340h4q37 158 43 180q12 49 23.5 89l19.5 69l203 786h162l205 -786q82 -315 86 -338h4q41 174 90 340l227 784h170l-411 -1337h-166l-207 795q-55 211 -76 321h-4q-10 -66 -76 -321l-207 -795h-165z" />
<glyph unicode="X" horiz-adv-x="1193" d="M20 0l480 682l-451 655h178l373 -540h4l371 540h180l-455 -657l476 -680h-183l-393 567h-2l-393 -567h-185z" />
<glyph unicode="Y" horiz-adv-x="1216" d="M41 1337h176l389 -649h4l389 649h179l-488 -798v-539h-164v539z" />
<glyph unicode="Z" horiz-adv-x="1198" d="M100 0v102l779 1090h-760v145h971v-100l-777 -1090h787v-147h-1000z" />
<glyph unicode="[" horiz-adv-x="645" d="M160 -299v1636h426v-123h-281v-1390h281v-123h-426z" />
<glyph unicode="\" horiz-adv-x="561" d="M-6 1337h147l379 -1587h-147z" />
<glyph unicode="]" horiz-adv-x="645" d="M59 -176h283v1390h-283v123h426v-1636h-426v123z" />
<glyph unicode="^" d="M49 543l408 821h137l407 -821h-149l-326 661h-4l-323 -661h-150z" />
<glyph unicode="_" horiz-adv-x="999" d="M0 -141h999v-133h-999v133z" />
<glyph unicode="`" horiz-adv-x="698" d="M0 950zM209 1473h168l123 -349h-131z" />
<glyph unicode="a" horiz-adv-x="1001" d="M94 281q0 68 27 127q25 55 72 96q43 37 110 59q61 20 141 21q72 0 138 -13q61 -12 112 -30h4v65q0 39 -6 70q-8 37 -16 53q-25 49 -82 80t-156 31q-71 0 -135 -13q-49 -10 -127 -39v132q31 14 57 22l68 19q47 8 78 10q53 4 80 4q145 0 235 -51.5t131 -135.5 q14 -29 21 -69q8 -53 8 -84v-635h-131l-16 104h-5q-8 -10 -49 -47q-20 -18 -65 -41q-35 -18 -84 -30q-39 -10 -96 -11q-72 0 -127 21q-57 20 -99 59q-43 39 -63 97q-25 68 -25 129zM256 281q0 -49 12 -76q16 -35 39 -55q29 -25 58 -33q37 -10 71 -11q53 0 94 15q47 16 76 35 q39 25 58 41q33 29 34 30v191q-12 4 -102 22q-58 12 -129 13q-100 0 -155.5 -43t-55.5 -129z" />
<glyph unicode="b" horiz-adv-x="1095" d="M160 0v1448h155v-588h2q49 53 119 84q68 31 156 31q45 0 86 -8q46 -9 92 -31q41 -18 88 -59q45 -39 74 -89q35 -57 51 -126q18 -74 18 -170q0 -139 -34 -232q-35 -90 -97 -160q-57 -63 -135 -94q-76 -31 -155 -31q-66 0 -109 15q-41 14 -78 37q-33 20 -53 45q-4 4 -27 34 h-4l-33 -106h-116zM315 238q31 -37 37 -43q23 -23 54 -41q39 -23 69 -33q47 -14 84 -15q70 0 121 27q49 27 88 78q33 45 53 117q18 68 19 151q0 115 -27 183q-29 76 -68 110q-43 41 -88 55q-43 14 -94 15q-71 0 -135 -31q-66 -31 -113 -78v-495z" />
<glyph unicode="c" horiz-adv-x="897" d="M94 463q0 88 21 170q16 70 53 131q31 53 80 96q51 45 96 66q53 25 107 37q55 12 106 12q74 0 133 -14q57 -14 109 -41v-129q-65 25 -117 36q-51 12 -109 13q-49 0 -114 -21q-55 -18 -103 -61q-43 -39 -71 -115q-29 -74 -29 -178q0 -80 20 -141q23 -68 62 -113t102 -74 q59 -27 142 -26q58 0 116 12q55 12 115 35v-129q-33 -16 -45 -21q-37 -12 -59 -16q-66 -12 -70 -12q-49 -4 -76 -5q-90 0 -180 29q-86 29 -150 88q-66 63 -102 154q-37 92 -37 217z" />
<glyph unicode="d" horiz-adv-x="1095" d="M94 463q0 90 21 176q16 66 51 133q27 51 76 96q37 35 88 62q47 25 94 35q51 10 88 10q84 0 152 -29q55 -25 114 -86h4v588h156v-1448h-119l-31 106h-4q-25 -29 -43 -47q-29 -29 -55 -43q-35 -18 -76 -30q-37 -10 -98 -11q-82 0 -154 27q-78 29 -133 84t-94 152 q-37 92 -37 225zM256 465q0 -72 20 -148q18 -68 53.5 -114.5t86.5 -71.5q52 -25 116 -25q41 0 89 15q45 14 71 33q47 33 56 41q18 18 34 43v495q-51 51 -110.5 80t-136.5 29q-39 0 -93 -17q-45 -14 -90 -59q-39 -39 -67.5 -114.5t-28.5 -186.5z" />
<glyph unicode="e" horiz-adv-x="1017" d="M94 463q0 131 37 225q39 98 96 160q61 63 138 94q82 33 163.5 33t149.5 -27q70 -27 121 -84q49 -53 80 -145q29 -84 28 -217v-21v-39h-651q0 -92 27 -153q25 -59 75 -103q47 -41 111 -59q57 -16 137 -16q77 0 142 12q53 10 126 35v-129q-47 -23 -126 -39 q-70 -14 -160 -15q-104 0 -193 25q-82 23 -155 86q-68 57 -107 150q-39 90 -39 227zM262 575h481q0 59 -14 105q-15 49 -43 86q-23 31 -70 55q-39 20 -94 20.5t-98 -20.5q-47 -23 -80 -57q-35 -39 -55.5 -84.5t-26.5 -104.5z" />
<glyph unicode="f" horiz-adv-x="649" d="M31 817v133h166v146q0 98 28 172q29 76 74 116q49 45 115 68q61 20 139 21q61 0 88 -5q41 -6 59 -12v-131q-41 8 -65.5 10t-61.5 2q-51 0 -94 -12q-41 -12 -69 -41q-27 -27 -43 -76q-14 -43 -15 -112v-146h283v-133h-283v-817h-155v817h-166z" />
<glyph unicode="g" horiz-adv-x="1085" d="M94 457q0 131 37 229t94 162q59 66 135 96q78 31 158 31q59 0 109 -17q41 -14 78 -36q33 -20 53 -45q23 -27 26 -35h4l31 108h119v-1005q0 -109 -37 -193q-35 -80 -100 -135q-59 -49 -158 -80q-88 -27 -203 -26q-90 0 -168 16q-63 12 -114 39v131q18 -8 65 -23 q37 -12 66 -16q45 -8 69.5 -10t77.5 -2q166 0 256 77.5t90 237.5v127h-4q-55 -59 -116 -84q-70 -29 -156 -29q-45 0 -86 9q-46 9 -92 30q-47 23 -88 58q-45 39 -74 88q-35 57 -51 127q-21 82 -21 170zM256 469q0 -109 29 -182q29 -76 67 -111q45 -41 90 -55.5t95 -14.5 q68 0 135 29q53 23 110 80v498q-8 12 -37 41q-23 23 -53 41q-45 27 -69 34q-41 12 -84 13q-72 0 -123 -27q-49 -27 -88 -78q-33 -45 -54 -116q-18 -68 -18 -152z" />
<glyph unicode="h" horiz-adv-x="1089" d="M160 0v1448h155v-629h2q16 23 60 62q33 29 69 49q39 20 84 33q46 12 99 12q55 0 106 -14q55 -16 101 -52q49 -39 75 -102q29 -68 29 -170v-637h-156v610q0 115 -43 174q-43 57 -143 58q-78 0 -156 -45q-70 -41 -127 -121v-676h-155z" />
<glyph unicode="i" horiz-adv-x="473" d="M156 1171v172h163v-172h-163zM160 0v950h155v-950h-155z" />
<glyph unicode="j" horiz-adv-x="493" d="M-121 -338q31 -9 62 -12q41 -4 61 -4q96 0 135 39q41 41 41 120v1145h156v-1163q0 -127 -76 -203q-74 -74 -238 -73q-41 0 -81 6q-31 4 -60 14v131zM174 1171v172h164v-172h-164z" />
<glyph unicode="k" horiz-adv-x="995" d="M160 0v1448h155v-922h2l449 424h201l-463 -438l463 -512h-195l-455 506h-2v-506h-155z" />
<glyph unicode="l" horiz-adv-x="473" d="M160 0v1448h155v-1448h-155z" />
<glyph unicode="m" horiz-adv-x="1695" d="M150 0v950h120l29 -133h4q20 29 57 61.5t68 51.5q35 20 82 33q46 12 98 12q106 0 176 -51q74 -53 109 -140h4q68 92 143 140q84 51 189 51q55 0 106 -14q59 -16 103 -52q47 -37 77.5 -102.5t30.5 -169.5v-637h-153v610q0 63 -13 107q-12 41 -39 71q-27 29 -61 41 q-37 12 -80 13q-80 0 -151 -45q-66 -43 -123 -121v-676h-156v610q0 63 -12 107q-12 41 -39 71q-27 29 -62 41q-37 12 -79 13q-80 0 -152 -45q-61 -39 -121 -121v-676h-155z" />
<glyph unicode="n" horiz-adv-x="1079" d="M150 0v950h120l29 -133h4q20 29 57 62q39 35 70 51q37 20 86 33q45 12 102 12q61 0 121 -18.5t101 -57.5q39 -37 65 -104q25 -66 25 -158v-637h-156v610q0 121 -47 178q-45 53 -137 54q-78 0 -156 -45q-72 -43 -129 -121v-676h-155z" />
<glyph unicode="o" horiz-adv-x="1091" d="M94 473q0 109 33 207q31 92 90 158q55 61 143 100q82 37 186.5 37t188.5 -37t142 -100q59 -66 89.5 -158t30.5 -207q0 -104 -32 -203q-31 -92 -90.5 -157.5t-141.5 -102.5q-78 -35 -186 -35q-111 0 -189 35q-84 37 -143 103q-55 61 -88 157q-33 99 -33 203zM256 473 q0 -82 22.5 -153.5t61.5 -116.5q43 -49 90 -72q52 -25 117 -25q63 0 114.5 25t92.5 72q35 41 59 116q23 72 23 154q0 86 -23 158q-25 76 -59 117q-41 47 -92.5 71.5t-114.5 24.5q-65 0 -117 -25q-51 -25 -92 -71q-35 -41 -59 -117q-23 -72 -23 -158z" />
<glyph unicode="p" horiz-adv-x="1085" d="M150 -465v1415h116l33 -108h4q12 20 33 39q27 23 55 41q33 20 84 36q53 16 105 17q84 0 155.5 -26.5t130.5 -86.5q57 -57 92 -151q33 -90 33 -226q0 -96 -18 -174q-16 -70 -51 -135q-25 -47 -76 -94q-37 -35 -88 -62q-47 -25 -94 -34q-51 -10 -91 -11q-82 0 -149 29 q-63 27 -117 84h-2v-553h-155zM305 215q55 -55 111 -80q63 -29 135 -29q39 0 92 17q47 14 92 59q39 39 68 117q27 72 26 184q0 92 -16 150q-18 66 -53 113t-86 71.5t-119 24.5q-47 0 -86 -13q-45 -14 -72 -32q-41 -29 -55 -43q-16 -16 -37 -41v-498z" />
<glyph unicode="q" horiz-adv-x="1071" d="M90 457q0 131 37 229t94 162q59 66 135 96q78 31 156 31q59 0 109 -17q47 -16 77 -36q41 -29 52 -41q12 -14 28 -39h4l33 108h117v-1415h-156v553h-2q-55 -57 -119 -84q-70 -29 -153 -29q-45 0 -86 9q-46 9 -92 30q-47 23 -88 58q-45 39 -74 88q-37 63 -53 127 q-19 74 -19 170zM252 469q0 -115 27 -182q29 -72 69 -111q45 -41 90 -55.5t92 -14.5q68 0 136 29q53 23 110 80v498q-12 18 -34.5 40.5t-53.5 41.5q-45 27 -70 34q-40 12 -86 13q-70 0 -120 -27q-49 -27 -88 -78q-33 -45 -54 -116q-18 -68 -18 -152z" />
<glyph unicode="r" horiz-adv-x="684" d="M150 0v950h120l29 -151h4q23 37 57 69q39 35 74 56q43 25 92 37q57 14 107 14h20q2 0 8.5 -1t10.5 -1v-150h-13q-51 0 -108 -10q-63 -10 -100 -29q-51 -25 -84 -51q-35 -29 -62 -71v-662h-155z" />
<glyph unicode="s" horiz-adv-x="827" d="M94 29v131q55 -23 119 -39q55 -14 131 -15q49 0 100 11q35 6 78 30q35 18 51 48q16 27 17 69q0 39 -17 66q-15 25 -43 43q-25 16 -61 28q-29 10 -76 21q-94 23 -102 24q-53 16 -96 43q-41 27 -70 74q-27 45 -27 119q0 72 29 129t72 92t106 53q61 18 129 19q84 0 148 -14 q55 -12 123 -39v-131q-61 22 -123 36q-66 16 -125 17q-55 0 -94 -12.5t-64 -31t-37 -45t-12 -59.5q0 -41 16 -63q18 -25 47 -41q27 -14 66 -25l78 -18q59 -12 102 -27q49 -15 92 -43q39 -25 65.5 -78t26.5 -129q0 -70 -28 -127q-31 -61 -78 -94q-57 -41 -123 -57 q-72 -18 -156 -19q-66 0 -94 5q-49 6 -76 14q-34 9 -55 18q-2 2 -17.5 7.5t-21.5 9.5z" />
<glyph unicode="t" horiz-adv-x="710" d="M14 817v133h185v260h153v-260h285v-133h-285v-555q0 -29 10 -59q9 -28 31 -49q20 -20 51 -33q27 -10 78 -10q43 0 66 4q59 10 63 12v-129q-18 -8 -61 -14q-53 -8 -98 -9q-74 0 -130 19q-53 18 -92 53q-37 35 -55 82q-16 43 -16 111v577h-185z" />
<glyph unicode="u" horiz-adv-x="1058" d="M139 367v583h156v-581q0 -84 20 -133q25 -59 78 -94.5t137 -35.5q86 0 141.5 39t76.5 103q18 49 18 121v581h154v-583q0 -61 -5 -91q-6 -41 -18 -75q-18 -49 -49 -92q-25 -35 -78 -70q-49 -33 -106 -47q-66 -16 -137.5 -16.5t-133.5 16.5q-55 14 -102 45q-43 29 -76 69 q-31 41 -49 89q-14 35 -20.5 78t-6.5 94z" />
<glyph unicode="v" horiz-adv-x="944" d="M31 950h159l189 -528l90 -264h4q34 104 92 264l189 528h161l-360 -950h-164z" />
<glyph unicode="w" horiz-adv-x="1456" d="M41 950h156l176 -592q41 -143 53 -188h4q14 68 53 209l158 571h174l160 -571l53 -209h4q16 61 53 188l177 592h155l-311 -950h-162l-156 567q-43 154 -59 226h-4q-33 -139 -57 -226l-156 -567h-160z" />
<glyph unicode="x" horiz-adv-x="931" d="M20 0l361 483l-348 467h172l262 -366h2l258 366h172l-346 -471l358 -479h-168l-276 381h-4l-275 -381h-168z" />
<glyph unicode="y" horiz-adv-x="980" d="M31 950h157l295 -745h6l299 745h164l-594 -1415h-153l203 483z" />
<glyph unicode="z" horiz-adv-x="909" d="M70 0v84l538 729v4h-522v133h719v-98l-529 -715v-4h564v-133h-770z" />
<glyph unicode="{" horiz-adv-x="614" d="M121 459v121q18 0 59 4q29 2 56 16q25 12 41 41t16 74q0 55 -19 100q-18 47 -41 86q-25 45 -40 84q-18 43 -19 96q0 39 14 82q16 49 52 84q41 41 108.5 65.5t177.5 24.5h33v-123h-10q-111 0 -164 -34q-55 -37 -55 -103q0 -43 14 -78q20 -49 35 -73q18 -31 37 -84 q14 -41 14 -103q0 -57 -14.5 -94t-39 -65.5t-44.5 -40.5q-27 -16 -37 -19v-4q16 -4 36.5 -16.5t45 -41t39 -65.5t14.5 -94t-12 -96q-10 -37 -33 -76l-37 -80q-18 -39 -18 -88q0 -63 55 -100q53 -35 164 -35h10v-123h-33q-111 0 -178 24.5t-108 65.5q-33 33 -52 84 q-14 41 -14 80q0 33 6 59q2 14 17 49q10 27 20 46l27 47q14 25 35 77q14 37 14 91q0 45 -16.5 73.5t-40.5 40.5q-27 14 -56 17q-41 4 -59 4z" />
<glyph unicode="|" horiz-adv-x="464" d="M160 -465v1913h145v-1913h-145z" />
<glyph unicode="}" horiz-adv-x="614" d="M55 -176h13q113 0 163 35q53 35 54 100q0 53 -17 88q-25 53 -39 80q-23 39 -32 76q-12 39 -13 96q0 51 17 94q16 41 37 66q25 29 45 41t39 16v4q-14 2 -39 19q-20 12 -45 41q-20 25 -37 65q-16 43 -17 94q0 61 15 103q18 53 37 84q14 25 34 73q14 35 15 78q0 68 -54 103 q-51 35 -163 34h-13v123h33q111 0 178.5 -24.5t108.5 -65.5q35 -35 51 -84q14 -43 14 -82q0 -57 -16 -96t-41 -84q-29 -49 -43 -86q-18 -45 -18 -100q0 -45 16 -74t41 -41q27 -14 55 -16q41 -4 62 -4v-121q-20 0 -62 -4q-29 -2 -55 -17q-25 -12 -41 -40.5t-16 -73.5 q0 -53 14 -91q16 -43 37 -77l24 -47q16 -29 23 -46q8 -23 14 -49t6 -59q0 -39 -14 -80q-18 -51 -51 -84q-41 -41 -108.5 -65.5t-178.5 -24.5h-33v123z" />
<glyph unicode="~" d="M98 420q14 33 39 59q25 28 56 49q23 16 67 31q37 12 80 12q45 0 98 -16q43 -12 97 -35l83 -33q37 -14 76 -14q51 0 84 25q37 27 60 65l100 -71q-16 -37 -39 -62q-23 -27 -53 -47q-29 -20 -68 -33q-31 -10 -80 -10q-43 0 -86 12q-63 18 -86 29l-94 39q-41 16 -90 16 q-47 0 -82 -24q-37 -27 -59 -66z" />
<glyph unicode="&#xa1;" horiz-adv-x="540" d="M174 756v194h193v-194h-193zM180 -387l25 905h131l24 -905h-180z" />
<glyph unicode="&#xa2;" d="M154 598q0 100 28 190q27 80 82 150q47 57 129 100q80 43 168 54v161h133v-155q58 -3 111 -13q57 -10 86 -24v-135q-41 14 -94 24q-49 8 -103 13v-703q41 0 107 10q47 8 100 27v-137q-39 -14 -96 -24.5t-111 -12.5v-148h-133v152q-193 20 -301 139q-106 115 -106 332z M311 600q0 -84 17 -135q20 -63 49 -98q33 -39 80 -64q43 -23 104 -33v680q-57 -12 -100 -39q-47 -29 -80 -69q-31 -41 -51 -103q-19 -59 -19 -139z" />
<glyph unicode="&#xa3;" d="M119 0v143h149l41 332h-110v137h127l12 90q14 100 37 158q27 63 71 113q45 47 105 71q61 25 145 25q43 0 66 -2q18 -2 61 -10q25 -4 56 -17q33 -12 45 -18v-133q-43 20 -105 33q-68 14 -112 14q-53 0 -93 -16q-35 -14 -61 -48q-23 -27 -39 -81q-12 -37 -22 -121l-7 -58 h318v-137h-334l-43 -332h530v-143h-837z" />
<glyph unicode="&#xa4;" d="M94 324l142 141q-31 43 -50 94q-16 47 -16 111q0 53 16 108q14 51 47 96l-137 140l84 84l139 -140q43 31 97 50q47 16 108 16q63 0 111 -16q59 -20 96 -47l137 137l86 -84l-139 -140q31 -43 49 -96q16 -47 17 -108q0 -63 -17 -111q-18 -53 -49 -96l139 -139l-84 -84 l-141 139q-51 -37 -94 -49q-55 -16 -111 -17q-57 0 -108 19q-59 20 -97 47l-139 -139zM307 670q0 -45 17 -88q14 -37 45 -72q23 -27 69 -47q40 -18 86 -19q49 0 88 19q47 20 70 47q31 35 45 72q16 43 16 88t-16 88q-14 37 -45 71q-23 27 -70 48q-39 18 -88 18q-46 0 -86 -18 q-47 -20 -69 -48q-31 -35 -45 -71q-17 -43 -17 -88z" />
<glyph unicode="&#xa5;" d="M82 1044h168l272 -497h4l273 497h168l-303 -532h200v-133h-262v-141h262v-134h-262v-131h-156v131h-262v134h262v141h-262v133h201z" />
<glyph unicode="&#xa6;" horiz-adv-x="464" d="M160 231h145v-696h-145v696zM160 721v727h145v-727h-145z" />
<glyph unicode="&#xa7;" horiz-adv-x="872" d="M100 -227q78 -29 119 -39q57 -14 123 -15q82 0 127 35q43 33 43 111q0 43 -23 98q-23 53 -59 113l-80 127l-88 143q-47 84 -61 117q-37 82 -51 125q-18 57 -33 135q-14 82 -15 145q0 147 37 242q37 96 97 152q63 59 129 79q74 23 139 23q76 0 147 -16q63 -14 121 -37 v-133q-88 31 -121 39q-57 14 -127 14q-84 0 -123 -39q-41 -41 -41 -107q0 -41 23 -96q16 -41 57 -110.5t76 -122.5q29 -43 86 -138q31 -51 64 -118q23 -47 53 -129q27 -72 37 -138q14 -86 14 -151q0 -147 -37 -242q-39 -98 -94 -151q-63 -59 -133 -80q-78 -23 -148 -23 q-76 0 -141 17q-61 15 -117 37v133zM221 913q0 -76 15 -135q16 -68 36 -127q18 -53 54 -119q41 -78 63.5 -116.5l44 -73.5l39.5 -66q47 -76 74 -139q31 -72 49 -137q16 -59 16 -129v-23h13q14 41 20 95q6 49 6 94q0 57 -14 133q-10 55 -35 125q-18 53 -53 119l-62 112 l-84 144q-29 47 -73 141q-33 68 -51 137q-18 68 -19 129v25h-10q-14 -43 -21 -96q-8 -62 -8 -93z" />
<glyph unicode="&#xa8;" horiz-adv-x="698" d="M0 950zM80 1171v166h160v-166h-160zM461 1171v166h160v-166h-160z" />
<glyph unicode="&#xa9;" horiz-adv-x="1685" d="M150 670q0 147 53 276q51 127 145 219t219 146q129 53 277 53q145 0 274 -53q127 -53 219.5 -145.5t145.5 -219.5q53 -129 53 -276q0 -150 -53 -279q-53 -125 -145.5 -219t-219.5 -145q-123 -51 -274 -52q-154 0 -277 52q-125 51 -219 145t-145 219q-53 129 -53 279z M283 670q0 -115 41 -221q39 -104 114 -183q72 -76 176 -121q102 -45 230 -45q125 0 227 45q104 45 176 121q78 82 117 183q41 106 41 220.5t-41 221.5q-37 98 -117 180q-76 78 -176 123q-98 43 -227 43q-131 0 -230 -43q-100 -45 -176 -123q-76 -80 -114 -180 q-41 -106 -41 -221zM481 659q0 96 29 166q33 78 82 127q55 55 125 82q78 31 155 31q33 0 95 -8q37 -4 71 -21v-125q-34 12 -73 19q-53 8 -82 8q-61 0 -103 -16q-51 -20 -82 -52q-39 -39 -55 -86q-18 -51 -18 -120q0 -76 16 -119q18 -51 53 -82q37 -33 82 -47.5t111 -14.5 q35 0 82 7q35 4 78 20v-127q-34 -12 -80 -18q-45 -6 -95 -7q-89 0 -159 25q-74 27 -125 74q-49 45 -78 121q-29 73 -29 163z" />
<glyph unicode="&#xaa;" horiz-adv-x="776" d="M530 596h-4q-20 -25 -34 -37q-18 -16 -50 -33q-20 -12 -61 -22q-37 -10 -70 -10q-49 0 -94 16t-74 45q-37 37 -51 70q-16 39 -16 94q0 53 18 96q18 41 56 76q29 27 83 47q43 16 105 16q57 0 98 -8q55 -12 84 -20h4v51q0 68 -43 106q-41 39 -139 39q-47 0 -104 -10 q-45 -8 -101 -29v119q40 18 99 31q49 10 122 10q145 0 227.5 -67.5t82.5 -190.5v-473h-125zM524 811q-41 10 -78 16q-43 6 -90 7q-31 0 -55 -7q-27 -6 -43 -20q-18 -15 -31 -37q-10 -18 -10 -51q0 -47 33 -76t82 -29q57 0 106 25q45 23 86 57v115z" />
<glyph unicode="&#xab;" horiz-adv-x="995" d="M111 473l292 377h152l-260 -377l260 -375h-152zM508 473l264 377h146l-226 -377l226 -375h-146z" />
<glyph unicode="&#xac;" d="M115 455v133h821v-496h-141v363h-680z" />
<glyph unicode="&#xad;" horiz-adv-x="679" d="M121 426v145h440v-145h-440z" />
<glyph unicode="&#x2010;" horiz-adv-x="679" d="M121 426v145h440v-145h-440z" />
<glyph unicode="&#xae;" horiz-adv-x="1269" d="M150 879q0 100 38 194q35 84 103 152q66 66 153 102q89 37 191 37q101 0 190 -37q90 -37 156 -102q68 -68 102 -152q37 -90 37 -194.5t-36.5 -192.5t-102.5 -154q-61 -61 -156 -100q-89 -37 -190 -37t-191 37t-153 100q-66 66 -103 154q-38 95 -38 193zM256 879 q0 -84 27 -152q31 -76 75 -125q47 -49 121 -82q70 -31 156 -31t156 31q74 33 120 82q45 49 76 125q29 74 29 152q0 80 -29 153q-29 72 -76 123q-49 53 -120 84q-70 31 -156 31t-156 -31q-72 -31 -121 -84q-47 -51 -75 -123q-27 -67 -27 -153zM457 635v495h172q27 0 76 -8 q35 -6 63 -24q25 -16 45 -47q16 -25 16 -70q0 -63 -32.5 -96t-89.5 -45v-4l135 -201h-115l-121 188h-51v-188h-98zM555 909h55q59 0 88 17q27 14 27 55q0 27 -18.5 45t-69.5 18h-82v-135z" />
<glyph unicode="&#xaf;" horiz-adv-x="698" d="M0 950zM80 1171v129h541v-129h-541z" />
<glyph unicode="&#x2c9;" horiz-adv-x="698" d="M0 950zM80 1171v129h541v-129h-541z" />
<glyph unicode="&#xb0;" horiz-adv-x="835" d="M80 1026q0 68 26 135q23 57 72 107q45 45 107 69q68 27 133 27t133 -27q66 -27 108 -69q45 -45 70 -107q27 -68 27 -135.5t-27 -132.5q-25 -61 -70 -107q-43 -43 -108 -69q-68 -27 -133.5 -27t-132.5 27q-61 25 -107 69q-49 49 -72 107q-26 65 -26 133zM227 1026 q0 -41 15 -76q16 -37 39 -63q18 -23 61 -41q31 -14 76 -15q47 0 78 15q39 18 59 41q27 31 41 63q12 29 12 76q0 51 -12 80t-41 61q-20 23 -59 41q-37 16 -78 17q-39 0 -76 -17q-43 -18 -61 -41q-25 -29 -39 -61q-15 -35 -15 -80z" />
<glyph unicode="&#xb1;" d="M115 0v131h821v-131h-821zM115 532v134h340v284h141v-284h340v-134h-340v-284h-141v284h-340z" />
<glyph unicode="&#xb2;" horiz-adv-x="638" d="M49 512v90l158 178q82 92 112 138q45 66 66 110q23 51 23 94q0 35 -11 54q-14 25 -30 38q-16 12 -45 21q-25 6 -58 6q-61 0 -100 -12q-45 -14 -101 -37v121q37 18 93 33q70 18 125 18q70 0 118 -18q55 -20 84 -48q35 -31 49 -71q18 -51 19 -90q0 -55 -19 -107 q-20 -55 -57 -110q-51 -76 -98 -129l-150 -162v-4q76 6 133 6h222v-119h-533z" />
<glyph unicode="&#xb3;" horiz-adv-x="604" d="M41 530v119q37 -16 88 -26q43 -8 94 -9q43 0 84 11q33 8 60 30q23 20 32 45q10 27 11 56q0 66 -51.5 96.5t-145.5 30.5h-68v116h52q98 0 145 35q45 33 45 99q0 33 -10 51t-35 33q-29 16 -47.5 20t-58.5 4q-53 0 -95 -8q-39 -8 -88 -29v121q27 12 88 27q51 12 107 12 q63 0 119 -16q45 -14 88 -45q39 -29 57 -70t18 -88q0 -37 -8 -64q-9 -31 -24 -55q-14 -23 -43 -45q-27 -20 -64 -33v-4q29 -2 59.5 -16.5t51.5 -36.5q25 -29 35 -60q14 -43 14 -83q0 -63 -23 -107q-25 -46 -67 -80q-39 -31 -103 -49q-61 -18 -129 -18q-45 0 -102 10 q-55 10 -86 26z" />
<glyph unicode="&#xb4;" horiz-adv-x="698" d="M0 950zM215 1124l123 349h168l-162 -349h-129z" />
<glyph unicode="&#xb5;" horiz-adv-x="1179" d="M846 143q-51 -94 -131 -131t-180 -37q-72 0 -131.5 25t-90.5 72h-4l4 -363l2 -174h-155v1415h155v-590q0 -70 15 -112q14 -45 45 -78q27 -29 71 -45q41 -14 93 -14q70 0 118 20q55 23 91 64q39 45 59 108q18 55 18 152v495h156v-639q0 -57 6 -98q6 -40 18.5 -61.5 t30.5 -30.5q20 -10 43 -10q2 0 8.5 1t12.5 1q8 0 24 4v-123q-25 -4 -39 -6t-38 -2q-51 0 -80 10q-31 10 -55.5 32.5t-39.5 49.5q-12 25 -22 65h-4z" />
<glyph unicode="&#xb6;" horiz-adv-x="1183" d="M94 823q0 117 39 209q41 96 109 162q74 72 166 106q96 37 217 37h389v-1724h-156v1587h-205v-1587h-155v709q-88 18 -164 61q-74 43 -127 109q-55 68 -82 149q-31 92 -31 182z" />
<glyph unicode="&#xb7;" horiz-adv-x="540" d="M174 393v195h193v-195h-193z" />
<glyph unicode="&#x2219;" horiz-adv-x="540" d="M174 393v195h193v-195h-193z" />
<glyph unicode="&#xb8;" horiz-adv-x="698" d="M152 -358l51 -11q31 -6 67 -6q20 0 58 4q28 3 49 13q23 10 35 24q14 18 14 39q0 23 -14 37q-12 12 -39 22q-31 12 -62 15q-41 4 -82 6l66 215h121l-35 -127q40 -6 74 -18q39 -14 57 -31q25 -22 37 -49q12 -29 12 -66q0 -51 -22 -90q-22 -37 -62 -61q-41 -25 -88 -37 q-41 -10 -104 -10q-55 0 -78 4q-39 6 -55 14v113z" />
<glyph unicode="&#xb9;" horiz-adv-x="630" d="M55 1139v127l236 86h129v-721h172v-119h-518v119h205v581z" />
<glyph unicode="&#xba;" horiz-adv-x="837" d="M621 868q0 70 -15 113q-16 51 -41 78q-33 37 -63 49q-35 14 -82 14q-92 0 -148 -63q-55 -65 -55 -191q0 -68 14 -110q18 -55 41 -80q29 -31 66 -47q39 -16 82 -17q90 0 145 64q56 64 56 190zM764 868q0 -78 -27 -151q-25 -70 -71 -119q-43 -47 -109 -76 q-63 -29 -137 -28.5t-141 28.5q-63 27 -109 76q-43 45 -70 119q-25 68 -24 151q0 86 24 154q25 66 72 117q49 53 109 78q61 27 139 26.5t139 -26.5q59 -25 109 -78q45 -47 69 -117q27 -74 27 -154z" />
<glyph unicode="&#xbb;" horiz-adv-x="995" d="M80 98l225 375l-225 377h145l264 -377l-264 -375h-145zM442 98l260 375l-260 377h152l293 -377l-293 -375h-152z" />
<glyph unicode="&#xbc;" horiz-adv-x="1669" d="M55 1139v127l236 86h129v-721h172v-119h-518v119h205v581zM1183 309v-4l93 6h104v193h143v-193h97v-117h-97v-188h-143v188h-344v99l229 538h144zM1371 1364l102 -80l-979 -1309l-100 78z" />
<glyph unicode="&#xbd;" horiz-adv-x="1775" d="M55 1139v127l236 86h129v-721h172v-119h-518v119h205v581zM1371 1364l102 -80l-979 -1309l-100 78zM1194 6v90l158 178q82 92 112 138q45 66 66 110q23 51 23 94q0 35 -11 54q-14 25 -30 38q-16 12 -45 21q-25 6 -58 6q-61 0 -100 -12q-45 -14 -101 -37v121q37 18 93 33 q70 18 125 18q70 0 118 -18q55 -20 84 -48q35 -31 49 -71q18 -51 19 -90q0 -55 -19 -107q-20 -55 -57 -110q-51 -76 -98 -129l-150 -162v-4q76 6 133 6h222v-119h-533z" />
<glyph unicode="&#xbe;" horiz-adv-x="1591" d="M1106 309v-4l93 6h104v193h143v-193h97v-117h-97v-188h-143v188h-344v99l229 538h144zM1274 1364l102 -80l-979 -1309l-100 78zM41 530v119q37 -16 88 -26q43 -8 94 -9q43 0 84 11q33 8 60 30q23 20 32 45q10 27 11 56q0 66 -51.5 96.5t-145.5 30.5h-68v116h52 q98 0 145 35q45 33 45 99q0 33 -10 51t-35 33q-29 16 -47.5 20t-58.5 4q-53 0 -95 -8q-39 -8 -88 -29v121q27 12 88 27q51 12 107 12q63 0 119 -16q45 -14 88 -45q39 -29 57 -70t18 -88q0 -37 -8 -64q-9 -31 -24 -55q-14 -23 -43 -45q-27 -20 -64 -33v-4q29 -2 59.5 -16.5 t51.5 -36.5q25 -29 35 -60q14 -43 14 -83q0 -63 -23 -107q-25 -46 -67 -80q-39 -31 -103 -49q-61 -18 -129 -18q-45 0 -102 10q-55 10 -86 26z" />
<glyph unicode="&#xbf;" horiz-adv-x="872" d="M100 -98q0 51 17 100q12 39 45 82q23 31 61 66l23.5 20l20.5 17.5t26 19.5l69 57q35 29 64 64q27 33 43 78t16 98v14h138q2 -16 2 -43q0 -72 -22.5 -129t-55.5 -96q-33 -37 -78 -74l-82 -63q-2 -2 -20.5 -17.5t-26.5 -23.5q-23 -23 -41 -47q-16 -23 -27 -52 q-10 -31 -10 -65q0 -43 19 -78q20 -37 51 -59q34 -25 80 -37q53 -14 104 -15q70 0 148 21q57 14 129 45v-133q-59 -31 -131 -47q-76 -18 -152 -19q-90 0 -170 23q-76 20 -129 65q-57 47 -82 99q-29 61 -29 129zM459 756v194h190v-194h-190z" />
<glyph unicode="&#xc0;" horiz-adv-x="1300" d="M35 0l545 1337h141l545 -1337h-176l-160 403h-559l-160 -403h-176zM428 551h442l-49 125q-74 186 -168 454h-4q-98 -274 -172 -454zM570 1657l145 -248h-137l-182 248h174zM244 1337z" />
<glyph unicode="&#xc1;" horiz-adv-x="1300" d="M35 0l545 1337h141l545 -1337h-176l-160 403h-559l-160 -403h-176zM428 551h442l-49 125q-74 186 -168 454h-4q-98 -274 -172 -454zM909 1657l-180 -248h-139l147 248h172zM440 1337z" />
<glyph unicode="&#xc2;" horiz-adv-x="1300" d="M35 0l545 1337h141l545 -1337h-176l-160 403h-559l-160 -403h-176zM428 551h442l-49 125q-74 186 -168 454h-4q-98 -274 -172 -454zM731 1657l215 -248h-158l-137 152h-4l-135 -152h-158l215 248h162zM301 1337z" />
<glyph unicode="&#xc3;" horiz-adv-x="1300" d="M35 0l545 1337h141l545 -1337h-176l-160 403h-559l-160 -403h-176zM428 551h442l-49 125q-74 186 -168 454h-4q-98 -274 -172 -454zM506 1640q43 0 80 -14q51 -20 71 -31q16 -10 64 -32q29 -14 55 -15q35 0 47 23q14 25 15 61h125v-20q0 -23 -9 -68q-6 -35 -26 -61 q-25 -33 -54 -45q-37 -16 -81 -17q-43 0 -80 15q-39 14 -72 32q-18 10 -35.5 18.5t-27.5 12.5q-29 14 -56 14q-35 0 -47 -22q-14 -25 -14 -61h-125v14q0 35 6 71.5t28.5 65.5t53.5 43q37 16 82 16zM299 1337z" />
<glyph unicode="&#xc4;" horiz-adv-x="1300" d="M35 0l545 1337h141l545 -1337h-176l-160 403h-559l-160 -403h-176zM428 551h442l-49 125q-74 186 -168 454h-4q-98 -274 -172 -454zM379 1448v170h162v-170h-162zM762 1448v170h162v-170h-162zM301 1337z" />
<glyph unicode="&#xc5;" horiz-adv-x="1300" d="M35 0l545 1337h141l545 -1337h-176l-160 403h-559l-160 -403h-176zM428 551h442l-49 125q-74 186 -168 454h-4q-98 -274 -172 -454zM649 1376q-47 0 -90 13q-39 12 -72 36q-31 25 -49 60t-18 78q0 47 18 79q18 35 49 60q29 23 72 35t90 12t90 -12.5t72 -34.5 q31 -25 49 -60q18 -33 19 -79q0 -43 -18.5 -78t-49.5 -60q-33 -25 -72 -36q-43 -13 -90 -13zM649 1653q-43 0 -76 -23q-31 -20 -30 -67q0 -43 30 -66q33 -23 76 -22.5t76 22.5q31 23 31 66q0 47 -31 67q-33 23 -76 23zM299 1337z" />
<glyph unicode="&#xc6;" horiz-adv-x="1812" d="M31 0l706 1337h887v-145h-639l57 -432h521v-148h-502l59 -465h615v-147h-754l-51 401h-514l-211 -401h-174zM494 551h417l-80 641h-4z" />
<glyph unicode="&#xc7;" horiz-adv-x="1206" d="M121 651q0 152 47 287q43 125 137 225q90 96 217 148q131 53 287 53q29 0 82 -4q31 -2 78 -10q35 -6 69 -17q41 -12 56 -18v-144q-57 20 -131 33q-82 14 -144 15q-111 0 -207 -37q-104 -41 -168 -105q-70 -70 -110.5 -176t-40.5 -244t37 -239q35 -98 108 -168 q72 -68 168 -98q98 -31 219 -31q47 0 72 2t74 10q25 4 73 17q33 8 64 18v-145q-61 -23 -137 -35q-77 -12 -160 -13h-29q-4 0 -12 1t-14 1l-29 -104q40 -6 74 -18q39 -14 57 -31q29 -25 39 -49q12 -29 12 -66q0 -51 -22 -90q-22 -37 -62 -61q-39 -25 -90 -37 q-41 -10 -102 -10q-55 0 -78 4q-39 6 -55 14v113q16 -4 26 -7q6 0 16.5 -2t16.5 -4q20 -4 31 -4h28q18 0 56 4q31 4 51 13q23 10 35 24.5t12 39t-12 36.5t-41 22q-31 12 -62 15q-41 4 -82 6l64 205q-127 23 -223 76q-102 57 -164 139q-66 86 -98 198q-33 111 -33 248z" />
<glyph unicode="&#xc8;" horiz-adv-x="1128" d="M170 0v1337h811v-145h-647v-432h575v-148h-575v-465h686v-147h-850zM527 1657l145 -248h-137l-182 248h174zM201 1337z" />
<glyph unicode="&#xc9;" horiz-adv-x="1128" d="M170 0v1337h811v-145h-647v-432h575v-148h-575v-465h686v-147h-850zM821 1657l-180 -248h-139l147 248h172zM352 1337z" />
<glyph unicode="&#xca;" horiz-adv-x="1128" d="M170 0v1337h811v-145h-647v-432h575v-148h-575v-465h686v-147h-850zM657 1657l215 -248h-158l-137 152h-4l-135 -152h-158l215 248h162zM227 1337z" />
<glyph unicode="&#xcb;" horiz-adv-x="1128" d="M170 0v1337h811v-145h-647v-432h575v-148h-575v-465h686v-147h-850zM301 1448v170h162v-170h-162zM684 1448v170h162v-170h-162zM223 1337z" />
<glyph unicode="&#xcc;" horiz-adv-x="501" d="M170 0v1337h164v-1337h-164zM199 1657l145 -248h-137l-182 248h174zM-127 1337z" />
<glyph unicode="&#xcd;" horiz-adv-x="501" d="M170 0v1337h164v-1337h-164zM489 1657l-180 -248h-139l147 248h172zM20 1337z" />
<glyph unicode="&#xce;" horiz-adv-x="501" d="M170 0v1337h164v-1337h-164zM338 1657l215 -248h-158l-137 152h-4l-135 -152h-158l215 248h162zM-92 1337z" />
<glyph unicode="&#xcf;" horiz-adv-x="501" d="M170 0v1337h164v-1337h-164zM-14 1448v170h162v-170h-162zM369 1448v170h162v-170h-162zM-92 1337z" />
<glyph unicode="&#xd0;" horiz-adv-x="1402" d="M59 612v148h142v577h305q92 0 170 -6q66 -6 143 -26q121 -35 205 -93q86 -59 145 -139q57 -80 86 -182q29 -104 29 -215q0 -113 -29 -221q-25 -94 -88 -185q-55 -80 -145 -143q-78 -55 -205 -92q-78 -20 -145 -27q-102 -8 -168 -8h-303v612h-142zM362 147h123q94 0 168 7 q61 6 133 26q160 51 242 174q84 127 84 322q0 190 -84 311t-242 170q-72 23 -133 27q-98 8 -168 8h-123v-432h345v-148h-345v-465z" />
<glyph unicode="&#xd1;" horiz-adv-x="1425" d="M170 0v1337h162l524 -745l244 -365h6q-12 195 -12 400v710h161v-1337h-161l-525 745q-131 188 -243 365h-7q14 -215 15 -428v-682h-164zM580 1640q43 0 80 -14q51 -20 71 -31q16 -10 64 -32q29 -14 55 -15q35 0 47 23q14 25 15 61h125v-20q0 -23 -9 -68q-6 -35 -26 -61 q-25 -33 -54 -45q-37 -16 -81 -17q-43 0 -80 15q-39 14 -72 32q-18 10 -35.5 18.5t-27.5 12.5q-29 14 -56 14q-35 0 -47 -22q-14 -25 -14 -61h-125v14q0 35 6 71.5t28.5 65.5t53.5 43q37 16 82 16zM373 1337z" />
<glyph unicode="&#xd2;" horiz-adv-x="1495" d="M121 667.5q0 151.5 43 280.5q41 125 127 219q84 92 196 144q119 53 261 53q145 0 263.5 -53.5t196.5 -143.5q84 -98 125 -219q43 -129 43 -280q0 -147 -45 -279q-45 -129 -125 -219q-82 -92 -198 -143q-115 -51 -258 -52q-150 0 -265 52q-121 55 -198 143 q-80 92 -123 219t-43 278.5zM293 668q0 -141 35 -238q41 -111 96 -172q61 -68 145 -102q86 -35 181 -35q92 0 178 35q84 35 145.5 102.5t96 172t34.5 237.5q0 129 -35 237q-33 102 -96 172q-61 68 -145 105t-180 37q-95 0 -179 -37t-145 -105q-63 -70 -96 -172 q-35 -108 -35 -237zM682 1657l145 -248h-137l-182 248h174zM356 1337z" />
<glyph unicode="&#xd3;" horiz-adv-x="1495" d="M121 667.5q0 151.5 43 280.5q41 125 127 219q84 92 196 144q119 53 261 53q145 0 263.5 -53.5t196.5 -143.5q84 -98 125 -219q43 -129 43 -280q0 -147 -45 -279q-45 -129 -125 -219q-82 -92 -198 -143q-115 -51 -258 -52q-150 0 -265 52q-121 55 -198 143 q-80 92 -123 219t-43 278.5zM293 668q0 -141 35 -238q41 -111 96 -172q61 -68 145 -102q86 -35 181 -35q92 0 178 35q84 35 145.5 102.5t96 172t34.5 237.5q0 129 -35 237q-33 102 -96 172q-61 68 -145 105t-180 37q-95 0 -179 -37t-145 -105q-63 -70 -96 -172 q-35 -108 -35 -237zM989 1657l-180 -248h-139l147 248h172zM520 1337z" />
<glyph unicode="&#xd4;" horiz-adv-x="1495" d="M121 667.5q0 151.5 43 280.5q41 125 127 219q84 92 196 144q119 53 261 53q145 0 263.5 -53.5t196.5 -143.5q84 -98 125 -219q43 -129 43 -280q0 -147 -45 -279q-45 -129 -125 -219q-82 -92 -198 -143q-115 -51 -258 -52q-150 0 -265 52q-121 55 -198 143 q-80 92 -123 219t-43 278.5zM293 668q0 -141 35 -238q41 -111 96 -172q61 -68 145 -102q86 -35 181 -35q92 0 178 35q84 35 145.5 102.5t96 172t34.5 237.5q0 129 -35 237q-33 102 -96 172q-61 68 -145 105t-180 37q-95 0 -179 -37t-145 -105q-63 -70 -96 -172 q-35 -108 -35 -237zM831 1657l215 -248h-158l-137 152h-4l-135 -152h-158l215 248h162zM401 1337z" />
<glyph unicode="&#xd5;" horiz-adv-x="1495" d="M121 667.5q0 151.5 43 280.5q41 125 127 219q84 92 196 144q119 53 261 53q145 0 263.5 -53.5t196.5 -143.5q84 -98 125 -219q43 -129 43 -280q0 -147 -45 -279q-45 -129 -125 -219q-82 -92 -198 -143q-115 -51 -258 -52q-150 0 -265 52q-121 55 -198 143 q-80 92 -123 219t-43 278.5zM293 668q0 -141 35 -238q41 -111 96 -172q61 -68 145 -102q86 -35 181 -35q92 0 178 35q84 35 145.5 102.5t96 172t34.5 237.5q0 129 -35 237q-33 102 -96 172q-61 68 -145 105t-180 37q-95 0 -179 -37t-145 -105q-63 -70 -96 -172 q-35 -108 -35 -237zM606 1640q43 0 80 -14q51 -20 71 -31q16 -10 64 -32q29 -14 55 -15q35 0 47 23q14 25 15 61h125v-20q0 -23 -9 -68q-6 -35 -26 -61q-25 -33 -54 -45q-37 -16 -81 -17q-43 0 -80 15q-39 14 -72 32q-18 10 -35.5 18.5t-27.5 12.5q-29 14 -56 14 q-35 0 -47 -22q-14 -25 -14 -61h-125v14q0 35 6 71.5t28.5 65.5t53.5 43q37 16 82 16zM399 1337z" />
<glyph unicode="&#xd6;" horiz-adv-x="1495" d="M121 667.5q0 151.5 43 280.5q41 125 127 219q84 92 196 144q119 53 261 53q145 0 263.5 -53.5t196.5 -143.5q84 -98 125 -219q43 -129 43 -280q0 -147 -45 -279q-45 -129 -125 -219q-82 -92 -198 -143q-115 -51 -258 -52q-150 0 -265 52q-121 55 -198 143 q-80 92 -123 219t-43 278.5zM293 668q0 -141 35 -238q41 -111 96 -172q61 -68 145 -102q86 -35 181 -35q92 0 178 35q84 35 145.5 102.5t96 172t34.5 237.5q0 129 -35 237q-33 102 -96 172q-61 68 -145 105t-180 37q-95 0 -179 -37t-145 -105q-63 -70 -96 -172 q-35 -108 -35 -237zM475 1448v170h162v-170h-162zM858 1448v170h162v-170h-162zM397 1337z" />
<glyph unicode="&#xd7;" d="M104 848l95 92l325 -326l328 326l92 -92l-326 -328l326 -325l-92 -93l-328 326l-325 -326l-93 93l326 325z" />
<glyph unicode="&#xd8;" horiz-adv-x="1495" d="M121 72l129 145q-61 84 -96 203q-33 111 -33 248q0 152 43 280q41 125 127 219q84 92 196 144q119 53 261 53q111 0 221 -37q101 -34 178 -98l121 135l108 -96l-131 -148q65 -89 98 -202q33 -111 33 -250q0 -147 -45 -279q-45 -129 -125 -219q-82 -92 -198 -143 q-115 -51 -258 -52q-119 0 -224 35q-98 33 -178 101l-121 -136zM293 668q0 -98 18 -179q18 -78 54 -145l675 766q-53 49 -133 80q-76 29 -159 29q-95 0 -179 -37t-145 -105q-63 -70 -96 -172q-35 -108 -35 -237zM455 229q59 -53 135 -82q72 -27 160 -26q92 0 178 35 q84 35 145.5 102.5t96 172t34.5 237.5q0 100 -18 180q-16 68 -56 143z" />
<glyph unicode="&#xd9;" horiz-adv-x="1372" d="M166 512v825h162v-829q0 -46 6 -92q6 -49 20 -86q34 -98 117 -154q82 -55 215 -55q82 0 131 16q61 20 98 47q39 27 70 76q27 43 43 96q12 45 14 74q4 53 5 78v829h161v-825q0 -63 -4 -98q-8 -63 -16 -95q-16 -66 -58 -137q-35 -61 -98 -108q-68 -51 -147 -74 q-86 -25 -201 -25q-111 0 -192 25q-88 27 -142 66q-66 49 -98 100q-37 59 -59 129q-14 45 -21 106q-6 58 -6 111zM619 1657l145 -248h-137l-182 248h174zM293 1337z" />
<glyph unicode="&#xda;" horiz-adv-x="1372" d="M166 512v825h162v-829q0 -46 6 -92q6 -49 20 -86q34 -98 117 -154q82 -55 215 -55q82 0 131 16q61 20 98 47q39 27 70 76q27 43 43 96q12 45 14 74q4 53 5 78v829h161v-825q0 -63 -4 -98q-8 -63 -16 -95q-16 -66 -58 -137q-35 -61 -98 -108q-68 -51 -147 -74 q-86 -25 -201 -25q-111 0 -192 25q-88 27 -142 66q-66 49 -98 100q-37 59 -59 129q-14 45 -21 106q-6 58 -6 111zM924 1657l-180 -248h-139l147 248h172zM455 1337z" />
<glyph unicode="&#xdb;" horiz-adv-x="1372" d="M166 512v825h162v-829q0 -46 6 -92q6 -49 20 -86q34 -98 117 -154q82 -55 215 -55q82 0 131 16q61 20 98 47q39 27 70 76q27 43 43 96q12 45 14 74q4 53 5 78v829h161v-825q0 -63 -4 -98q-8 -63 -16 -95q-16 -66 -58 -137q-35 -61 -98 -108q-68 -51 -147 -74 q-86 -25 -201 -25q-111 0 -192 25q-88 27 -142 66q-66 49 -98 100q-37 59 -59 129q-14 45 -21 106q-6 58 -6 111zM766 1657l215 -248h-158l-137 152h-4l-135 -152h-158l215 248h162zM336 1337z" />
<glyph unicode="&#xdc;" horiz-adv-x="1372" d="M166 512v825h162v-829q0 -46 6 -92q6 -49 20 -86q34 -98 117 -154q82 -55 215 -55q82 0 131 16q61 20 98 47q39 27 70 76q27 43 43 96q12 45 14 74q4 53 5 78v829h161v-825q0 -63 -4 -98q-8 -63 -16 -95q-16 -66 -58 -137q-35 -61 -98 -108q-68 -51 -147 -74 q-86 -25 -201 -25q-111 0 -192 25q-88 27 -142 66q-66 49 -98 100q-37 59 -59 129q-14 45 -21 106q-6 58 -6 111zM416 1448v170h162v-170h-162zM799 1448v170h162v-170h-162zM338 1337z" />
<glyph unicode="&#xdd;" horiz-adv-x="1216" d="M41 1337h176l389 -649h4l389 649h179l-488 -798v-539h-164v539zM852 1657l-180 -248h-139l147 248h172zM383 1337z" />
<glyph unicode="&#xde;" horiz-adv-x="1161" d="M170 0v1337h164v-270h192q84 0 162 -10q71 -9 129 -31q121 -43 182 -127q63 -86 64 -211q0 -100 -41 -176q-40 -74 -117 -123q-70 -43 -184 -70q-111 -25 -250 -24q-66 0 -137 6v-301h-164zM334 451l67 -7q25 -2 68 -2q123 0 197 15q82 16 129 45q49 31 71 78 q23 49 23 108q0 78 -37 127q-39 51 -107 76q-47 16 -100 22q-55 6 -129 7h-182v-469z" />
<glyph unicode="&#xdf;" horiz-adv-x="1247" d="M160 0v993q0 108 30 197q29 84 91 151q55 61 145 97q88 35 197 35q98 0 163 -23q70 -25 115 -64q47 -41 68 -88q23 -51 22.5 -106t-18.5 -98q-20 -47 -45 -78q-31 -39 -60 -64q-20 -18 -59 -57q-23 -23 -45 -59q-18 -31 -19 -72q0 -35 15 -57q16 -27 39 -43 q20 -16 55 -33l64 -31q43 -18 86 -43q45 -27 79.5 -57.5t57.5 -83.5q23 -51 22.5 -121t-28.5 -131q-29 -59 -78 -101q-53 -45 -123 -65q-74 -23 -156 -23q-57 0 -82 5q-45 8 -67 14q-35 10 -54 18q-27 12 -34 17v131q4 -2 24.5 -10.5l30.5 -12.5q41 -14 53 -16q37 -8 56 -10 q37 -4 59 -5q47 0 100 15q43 12 78 37q33 25 51 57q16 31 17 74q0 41 -17 73q-14 27 -41 52q-23 20 -61 41q-29 16 -70 32l-82 41q-49 27 -73 50q-33 29 -54 71q-18 37 -18 103q0 63 16 102q20 47 45 80q23 31 60 63l59 60q25 25 45 59q18 31 19 72q0 33 -13 59 q-10 25 -37 47q-20 18 -67 33q-33 10 -98 10q-78 0 -137.5 -24.5t-96.5 -71.5q-37 -45 -55 -113q-18 -63 -19 -143v-985h-155z" />
<glyph unicode="&#xe0;" horiz-adv-x="1001" d="M94 281q0 68 27 127q25 55 72 96q43 37 110 59q61 20 141 21q72 0 138 -13q61 -12 112 -30h4v65q0 39 -6 70q-8 37 -16 53q-25 49 -82 80t-156 31q-71 0 -135 -13q-49 -10 -127 -39v132q31 14 57 22l68 19q47 8 78 10q53 4 80 4q145 0 235 -51.5t131 -135.5 q14 -29 21 -69q8 -53 8 -84v-635h-131l-16 104h-5q-8 -10 -49 -47q-20 -18 -65 -41q-35 -18 -84 -30q-39 -10 -96 -11q-72 0 -127 21q-57 20 -99 59q-43 39 -63 97q-25 68 -25 129zM256 281q0 -49 12 -76q16 -35 39 -55q29 -25 58 -33q37 -10 71 -11q53 0 94 15q47 16 76 35 q39 25 58 41q33 29 34 30v191q-12 4 -102 22q-58 12 -129 13q-100 0 -155.5 -43t-55.5 -129zM70 950zM279 1473h168l123 -349h-131z" />
<glyph unicode="&#xe1;" horiz-adv-x="1001" d="M94 281q0 68 27 127q25 55 72 96q43 37 110 59q61 20 141 21q72 0 138 -13q61 -12 112 -30h4v65q0 39 -6 70q-8 37 -16 53q-25 49 -82 80t-156 31q-71 0 -135 -13q-49 -10 -127 -39v132q31 14 57 22l68 19q47 8 78 10q53 4 80 4q145 0 235 -51.5t131 -135.5 q14 -29 21 -69q8 -53 8 -84v-635h-131l-16 104h-5q-8 -10 -49 -47q-20 -18 -65 -41q-35 -18 -84 -30q-39 -10 -96 -11q-72 0 -127 21q-57 20 -99 59q-43 39 -63 97q-25 68 -25 129zM256 281q0 -49 12 -76q16 -35 39 -55q29 -25 58 -33q37 -10 71 -11q53 0 94 15q47 16 76 35 q39 25 58 41q33 29 34 30v191q-12 4 -102 22q-58 12 -129 13q-100 0 -155.5 -43t-55.5 -129zM199 950zM414 1124l123 349h168l-162 -349h-129z" />
<glyph unicode="&#xe2;" horiz-adv-x="1001" d="M94 281q0 68 27 127q25 55 72 96q43 37 110 59q61 20 141 21q72 0 138 -13q61 -12 112 -30h4v65q0 39 -6 70q-8 37 -16 53q-25 49 -82 80t-156 31q-71 0 -135 -13q-49 -10 -127 -39v132q31 14 57 22l68 19q47 8 78 10q53 4 80 4q145 0 235 -51.5t131 -135.5 q14 -29 21 -69q8 -53 8 -84v-635h-131l-16 104h-5q-8 -10 -49 -47q-20 -18 -65 -41q-35 -18 -84 -30q-39 -10 -96 -11q-72 0 -127 21q-57 20 -99 59q-43 39 -63 97q-25 68 -25 129zM256 281q0 -49 12 -76q16 -35 39 -55q29 -25 58 -33q37 -10 71 -11q53 0 94 15q47 16 76 35 q39 25 58 41q33 29 34 30v191q-12 4 -102 22q-58 12 -129 13q-100 0 -155.5 -43t-55.5 -129zM156 950zM217 1124l209 349h158l211 -349h-141l-148 246h-4l-145 -246h-140z" />
<glyph unicode="&#xe3;" horiz-adv-x="1001" d="M94 281q0 68 27 127q25 55 72 96q43 37 110 59q61 20 141 21q72 0 138 -13q61 -12 112 -30h4v65q0 39 -6 70q-8 37 -16 53q-25 49 -82 80t-156 31q-71 0 -135 -13q-49 -10 -127 -39v132q31 14 57 22l68 19q47 8 78 10q53 4 80 4q145 0 235 -51.5t131 -135.5 q14 -29 21 -69q8 -53 8 -84v-635h-131l-16 104h-5q-8 -10 -49 -47q-20 -18 -65 -41q-35 -18 -84 -30q-39 -10 -96 -11q-72 0 -127 21q-57 20 -99 59q-43 39 -63 97q-25 68 -25 129zM256 281q0 -49 12 -76q16 -35 39 -55q29 -25 58 -33q37 -10 71 -11q53 0 94 15q47 16 76 35 q39 25 58 41q33 29 34 30v191q-12 4 -102 22q-58 12 -129 13q-100 0 -155.5 -43t-55.5 -129zM135 950zM174 1178v22q0 23 8 68q6 29 27 61q20 31 53 45q37 16 80 16.5t80 -14.5q39 -14 71 -33l66 -32q33 -16 55 -17q29 0 45 23q14 20 15 65h123v-22q0 -23 -9 -68 q-6 -29 -26 -61q-20 -31 -54 -45q-37 -16 -79.5 -16.5t-79.5 14.5q-39 14 -72 33l-66 32q-33 16 -55 17q-29 0 -45 -23q-14 -20 -14 -65h-123z" />
<glyph unicode="&#xe4;" horiz-adv-x="1001" d="M94 281q0 68 27 127q25 55 72 96q43 37 110 59q61 20 141 21q72 0 138 -13q61 -12 112 -30h4v65q0 39 -6 70q-8 37 -16 53q-25 49 -82 80t-156 31q-71 0 -135 -13q-49 -10 -127 -39v132q31 14 57 22l68 19q47 8 78 10q53 4 80 4q145 0 235 -51.5t131 -135.5 q14 -29 21 -69q8 -53 8 -84v-635h-131l-16 104h-5q-8 -10 -49 -47q-20 -18 -65 -41q-35 -18 -84 -30q-39 -10 -96 -11q-72 0 -127 21q-57 20 -99 59q-43 39 -63 97q-25 68 -25 129zM256 281q0 -49 12 -76q16 -35 39 -55q29 -25 58 -33q37 -10 71 -11q53 0 94 15q47 16 76 35 q39 25 58 41q33 29 34 30v191q-12 4 -102 22q-58 12 -129 13q-100 0 -155.5 -43t-55.5 -129zM150 950zM230 1171v166h160v-166h-160zM611 1171v166h160v-166h-160z" />
<glyph unicode="&#xe5;" horiz-adv-x="1001" d="M94 281q0 68 27 127q25 55 72 96q43 37 110 59q61 20 141 21q72 0 138 -13q61 -12 112 -30h4v65q0 39 -6 70q-8 37 -16 53q-25 49 -82 80t-156 31q-71 0 -135 -13q-49 -10 -127 -39v132q31 14 57 22l68 19q47 8 78 10q53 4 80 4q145 0 235 -51.5t131 -135.5 q14 -29 21 -69q8 -53 8 -84v-635h-131l-16 104h-5q-8 -10 -49 -47q-20 -18 -65 -41q-35 -18 -84 -30q-39 -10 -96 -11q-72 0 -127 21q-57 20 -99 59q-43 39 -63 97q-25 68 -25 129zM256 281q0 -49 12 -76q16 -35 39 -55q29 -25 58 -33q37 -10 71 -11q53 0 94 15q47 16 76 35 q39 25 58 41q33 29 34 30v191q-12 4 -102 22q-58 12 -129 13q-100 0 -155.5 -43t-55.5 -129zM479 1100q-39 0 -90 14q-39 12 -72 37q-31 25 -49 61.5t-18 81.5t18.5 82t48.5 62q37 29 72 39q51 14 90 14t90 -14q35 -10 72 -39q31 -25 49.5 -62t18.5 -82t-18.5 -81.5 t-49.5 -61.5q-33 -25 -72 -37q-51 -14 -90 -14zM479 1393q-43 0 -76 -27q-31 -25 -30.5 -72t31 -71.5t75.5 -24.5t76 24.5t31 71.5t-31 72q-33 27 -76 27zM129 950z" />
<glyph unicode="&#xe6;" horiz-adv-x="1591" d="M94 281q0 68 27 127q25 55 72 96q43 37 110 59q61 20 141 21q78 0 139.5 -12.5t110.5 -30.5h4v57q0 121 -59 180q-61 61 -201 62q-71 0 -135 -13q-49 -10 -127 -39v132q16 8 57 20q57 16 66 18q70 12 78 13q53 4 82 4q71 0 123 -12q49 -12 92 -35q31 -16 65 -56 q28 -31 49 -67h5q57 86 133 127q80 43 180 43q83 0 154 -31q74 -33 122 -92q51 -63 76 -156q25 -96 23 -200v-54h-633q0 -90 24 -153q23 -61 68 -102.5t104 -59.5q55 -16 136 -16q74 0 139 12q76 14 129 35v-129q-55 -27 -127 -41q-74 -16 -162 -13q-115 4 -207 37 q-90 33 -153 109h-4q-43 -39 -64 -53q-31 -23 -80 -48q-41 -20 -96 -32.5t-121 -12.5q-80 0 -141 21q-66 23 -107 59q-45 41 -67 97q-25 58 -25 129zM256 281q0 -45 14 -76q16 -35 39 -55q29 -25 62 -33q41 -10 80 -11q51 0 94 13q53 14 80 28q37 18 63 39q31 23 45 41 q-31 76 -37 189q-43 14 -102 24q-66 12 -127 13q-100 0 -155.5 -43t-55.5 -129zM854 575h463q0 51 -16.5 104.5t-40.5 86.5q-23 31 -70 55q-39 20 -94.5 20.5t-96.5 -20.5q-45 -23 -73 -57q-33 -39 -49 -84q-17 -42 -23 -105z" />
<glyph unicode="&#xe7;" horiz-adv-x="897" d="M94 463q0 88 21 170q16 70 53 131q31 53 80 96q51 45 96 66q53 25 107 37q55 12 106 12q76 0 133 -14q59 -14 109 -41v-129q-65 25 -117 36q-51 12 -109 13q-53 0 -114 -21q-57 -18 -103 -61q-43 -41 -71.5 -117t-28.5 -176q0 -80 20 -141q23 -68 62 -113t102 -74 q59 -27 142 -26q58 0 116 12q55 12 115 35v-129q-14 -8 -41 -19q-31 -12 -55 -16q-20 -4 -66 -12q-33 -6 -69 -7l-27 -102q37 -6 72 -18q39 -14 57 -31q29 -25 39 -49q12 -29 12 -66q0 -51 -22 -90q-22 -37 -62 -61q-39 -25 -90 -37q-41 -10 -102 -10q-55 0 -78 4 q-39 6 -55 14v113q16 -4 26 -7q4 0 16.5 -2t16.5 -4q20 -4 31 -4h28q18 0 56 4q31 4 51 13q23 10 35 24.5t12 39t-12.5 36.5t-40.5 22q-31 12 -62 15q-41 4 -82 6l62 199q-78 12 -146 49q-66 37 -116.5 96t-77.5 141q-29 87 -29 193z" />
<glyph unicode="&#xe8;" horiz-adv-x="1017" d="M100 950zM309 1473h168l123 -349h-131zM94 463q0 131 37 225q39 98 96 160q61 63 138 94q82 33 163.5 33t149.5 -27q70 -27 121 -84q49 -53 80 -145q29 -84 28 -217v-21v-39h-651q0 -92 27 -153q25 -59 75 -103q47 -41 111 -59q57 -16 137 -16q77 0 142 12q53 10 126 35 v-129q-47 -23 -126 -39q-70 -14 -160 -15q-104 0 -193 25q-82 23 -155 86q-68 57 -107 150q-39 90 -39 227zM262 575h481q0 59 -14 105q-15 49 -43 86q-23 31 -70 55q-39 20 -94 20.5t-98 -20.5q-47 -23 -80 -57q-35 -39 -55.5 -84.5t-26.5 -104.5z" />
<glyph unicode="&#xe9;" horiz-adv-x="1017" d="M238 950zM453 1124l123 349h168l-162 -349h-129zM94 463q0 131 37 225q39 98 96 160q61 63 138 94q82 33 163.5 33t149.5 -27q70 -27 121 -84q49 -53 80 -145q29 -84 28 -217v-21v-39h-651q0 -92 27 -153q25 -59 75 -103q47 -41 111 -59q57 -16 137 -16q77 0 142 12 q53 10 126 35v-129q-47 -23 -126 -39q-70 -14 -160 -15q-104 0 -193 25q-82 23 -155 86q-68 57 -107 150q-39 90 -39 227zM262 575h481q0 59 -14 105q-15 49 -43 86q-23 31 -70 55q-39 20 -94 20.5t-98 -20.5q-47 -23 -80 -57q-35 -39 -55.5 -84.5t-26.5 -104.5z" />
<glyph unicode="&#xea;" horiz-adv-x="1017" d="M170 950zM231 1124l209 349h158l211 -349h-141l-148 246h-4l-145 -246h-140zM94 463q0 131 37 225q39 98 96 160q61 63 138 94q82 33 163.5 33t149.5 -27q70 -27 121 -84q49 -53 80 -145q29 -84 28 -217v-21v-39h-651q0 -92 27 -153q25 -59 75 -103q47 -41 111 -59 q57 -16 137 -16q77 0 142 12q53 10 126 35v-129q-47 -23 -126 -39q-70 -14 -160 -15q-104 0 -193 25q-82 23 -155 86q-68 57 -107 150q-39 90 -39 227zM262 575h481q0 59 -14 105q-15 49 -43 86q-23 31 -70 55q-39 20 -94 20.5t-98 -20.5q-47 -23 -80 -57 q-35 -39 -55.5 -84.5t-26.5 -104.5z" />
<glyph unicode="&#xeb;" horiz-adv-x="1017" d="M172 950zM252 1171v166h160v-166h-160zM633 1171v166h160v-166h-160zM94 463q0 131 37 225q39 98 96 160q61 63 138 94q82 33 163.5 33t149.5 -27q70 -27 121 -84q49 -53 80 -145q29 -84 28 -217v-21v-39h-651q0 -92 27 -153q25 -59 75 -103q47 -41 111 -59 q57 -16 137 -16q77 0 142 12q53 10 126 35v-129q-47 -23 -126 -39q-70 -14 -160 -15q-104 0 -193 25q-82 23 -155 86q-68 57 -107 150q-39 90 -39 227zM262 575h481q0 59 -14 105q-15 49 -43 86q-23 31 -70 55q-39 20 -94 20.5t-98 -20.5q-47 -23 -80 -57 q-35 -39 -55.5 -84.5t-26.5 -104.5z" />
<glyph unicode="&#xec;" horiz-adv-x="473" d="M160 0v950h155v-950h-155zM-180 950zM29 1473h168l123 -349h-131z" />
<glyph unicode="&#xed;" horiz-adv-x="473" d="M160 0v950h155v-950h-155zM-39 950zM176 1124l123 349h168l-162 -349h-129z" />
<glyph unicode="&#xee;" horiz-adv-x="473" d="M160 0v950h155v-950h-155zM-104 950zM-43 1124l209 349h158l211 -349h-141l-148 246h-4l-145 -246h-140z" />
<glyph unicode="&#xef;" horiz-adv-x="473" d="M160 0v950h155v-950h-155zM-104 950zM-24 1171v166h160v-166h-160zM357 1171v166h160v-166h-160z" />
<glyph unicode="&#xf0;" horiz-adv-x="1075" d="M94 449q0 100 33 194q29 86 86 152q55 65 129 98q76 35 162 35q77 0 135 -25q63 -27 104 -67l2 2q-37 74 -86 147q-59 88 -106 143l-264 -71l-35 123l203 57q-39 41 -113 111l-111 100h195l86 -78q39 -37 90 -94l252 70l35 -125l-195 -54q57 -74 105 -149q49 -80 86 -166 q39 -92 59 -180q20 -90 21 -193q0 -115 -29 -200q-31 -92 -86 -160q-57 -72 -135 -107q-80 -37 -182 -37q-100 0 -187 35q-80 33 -137 96q-53 59 -86 150q-31 87 -31 193zM256 449q0 -84 20 -146q23 -66 58 -106q41 -49 88 -68q55 -23 113 -23q59 0 112 27q47 25 86 72 q37 45 55 114q20 76 21 150q0 88 -25 152q-23 59 -65 102q-35 35 -88 55q-49 18 -99 19q-63 0 -112 -24.5t-86 -67.5q-35 -41 -58 -109q-20 -61 -20 -147z" />
<glyph unicode="&#xf1;" horiz-adv-x="1079" d="M150 0v950h120l29 -133h4q20 29 57 62q39 35 70 51q37 20 86 33q45 12 102 12q61 0 121 -18.5t101 -57.5q39 -37 65 -104q25 -66 25 -158v-637h-156v610q0 121 -47 178q-45 53 -137 54q-78 0 -156 -45q-72 -43 -129 -121v-676h-155zM182 950zM221 1178v22q0 23 8 68 q6 29 27 61q20 31 53 45q37 16 80 16.5t80 -14.5q39 -14 71 -33l66 -32q33 -16 55 -17q29 0 45 23q14 20 15 65h123v-22q0 -23 -9 -68q-6 -29 -26 -61q-20 -31 -54 -45q-37 -16 -79.5 -16.5t-79.5 14.5q-39 14 -72 33l-66 32q-33 16 -55 17q-29 0 -45 -23q-14 -20 -14 -65 h-123z" />
<glyph unicode="&#xf2;" horiz-adv-x="1091" d="M94 473q0 109 33 207q31 92 90 158q55 61 143 100q82 37 186.5 37t188.5 -37t142 -100q59 -66 89.5 -158t30.5 -207q0 -104 -32 -203q-31 -92 -90.5 -157.5t-141.5 -102.5q-78 -35 -186 -35q-111 0 -189 35q-84 37 -143 103q-55 61 -88 157q-33 99 -33 203zM256 473 q0 -82 22.5 -153.5t61.5 -116.5q43 -49 90 -72q52 -25 117 -25q63 0 114.5 25t92.5 72q35 41 59 116q23 72 23 154q0 86 -23 158q-25 76 -59 117q-41 47 -92.5 71.5t-114.5 24.5q-65 0 -117 -25q-51 -25 -92 -71q-35 -41 -59 -117q-23 -72 -23 -158zM117 950zM326 1473h168 l123 -349h-131z" />
<glyph unicode="&#xf3;" horiz-adv-x="1091" d="M94 473q0 109 33 207q31 92 90 158q55 61 143 100q82 37 186.5 37t188.5 -37t142 -100q59 -66 89.5 -158t30.5 -207q0 -104 -32 -203q-31 -92 -90.5 -157.5t-141.5 -102.5q-78 -35 -186 -35q-111 0 -189 35q-84 37 -143 103q-55 61 -88 157q-33 99 -33 203zM256 473 q0 -82 22.5 -153.5t61.5 -116.5q43 -49 90 -72q52 -25 117 -25q63 0 114.5 25t92.5 72q35 41 59 116q23 72 23 154q0 86 -23 158q-25 76 -59 117q-41 47 -92.5 71.5t-114.5 24.5q-65 0 -117 -25q-51 -25 -92 -71q-35 -41 -59 -117q-23 -72 -23 -158zM274 950zM489 1124 l123 349h168l-162 -349h-129z" />
<glyph unicode="&#xf4;" horiz-adv-x="1091" d="M94 473q0 109 33 207q31 92 90 158q55 61 143 100q82 37 186.5 37t188.5 -37t142 -100q59 -66 89.5 -158t30.5 -207q0 -104 -32 -203q-31 -92 -90.5 -157.5t-141.5 -102.5q-78 -35 -186 -35q-111 0 -189 35q-84 37 -143 103q-55 61 -88 157q-33 99 -33 203zM256 473 q0 -82 22.5 -153.5t61.5 -116.5q43 -49 90 -72q52 -25 117 -25q63 0 114.5 25t92.5 72q35 41 59 116q23 72 23 154q0 86 -23 158q-25 76 -59 117q-41 47 -92.5 71.5t-114.5 24.5q-65 0 -117 -25q-51 -25 -92 -71q-35 -41 -59 -117q-23 -72 -23 -158zM193 950zM254 1124 l209 349h158l211 -349h-141l-148 246h-4l-145 -246h-140z" />
<glyph unicode="&#xf5;" horiz-adv-x="1091" d="M94 473q0 109 33 207q31 92 90 158q55 61 143 100q82 37 186.5 37t188.5 -37t142 -100q59 -66 89.5 -158t30.5 -207q0 -104 -32 -203q-31 -92 -90.5 -157.5t-141.5 -102.5q-78 -35 -186 -35q-111 0 -189 35q-84 37 -143 103q-55 61 -88 157q-33 99 -33 203zM256 473 q0 -82 22.5 -153.5t61.5 -116.5q43 -49 90 -72q52 -25 117 -25q63 0 114.5 25t92.5 72q35 41 59 116q23 72 23 154q0 86 -23 158q-25 76 -59 117q-41 47 -92.5 71.5t-114.5 24.5q-65 0 -117 -25q-51 -25 -92 -71q-35 -41 -59 -117q-23 -72 -23 -158zM188 950zM227 1178v22 q0 23 8 68q6 29 27 61q20 31 53 45q37 16 80 16.5t80 -14.5q39 -14 71 -33l66 -32q33 -16 55 -17q29 0 45 23q14 20 15 65h123v-22q0 -23 -9 -68q-6 -29 -26 -61q-20 -31 -54 -45q-37 -16 -79.5 -16.5t-79.5 14.5q-39 14 -72 33l-66 32q-33 16 -55 17q-29 0 -45 -23 q-14 -20 -14 -65h-123z" />
<glyph unicode="&#xf6;" horiz-adv-x="1091" d="M94 473q0 109 33 207q31 92 90 158q55 61 143 100q82 37 186.5 37t188.5 -37t142 -100q59 -66 89.5 -158t30.5 -207q0 -104 -32 -203q-31 -92 -90.5 -157.5t-141.5 -102.5q-78 -35 -186 -35q-111 0 -189 35q-84 37 -143 103q-55 61 -88 157q-33 99 -33 203zM256 473 q0 -82 22.5 -153.5t61.5 -116.5q43 -49 90 -72q52 -25 117 -25q63 0 114.5 25t92.5 72q35 41 59 116q23 72 23 154q0 86 -23 158q-25 76 -59 117q-41 47 -92.5 71.5t-114.5 24.5q-65 0 -117 -25q-51 -25 -92 -71q-35 -41 -59 -117q-23 -72 -23 -158zM195 950zM275 1171v166 h160v-166h-160zM656 1171v166h160v-166h-160z" />
<glyph unicode="&#xf7;" d="M115 455v133h821v-133h-821zM444 92v164h160v-164h-160zM444 784v166h160v-166h-160z" />
<glyph unicode="&#xf8;" horiz-adv-x="1091" d="M94 59l86 99q-43 63 -63 141q-23 84 -23 174q0 109 33 207q31 92 90 158q55 61 143 100q82 37 187 37q80 0 151 -23q70 -23 123 -63l76 86l100 -84l-86 -98q41 -63 64 -144q23 -84 22 -176q0 -104 -32 -203q-31 -92 -90.5 -157.5t-141.5 -102.5q-78 -35 -186 -35 q-80 0 -154 23q-68 20 -123 63l-75 -86zM256 473q0 -104 35 -190l434 493q-74 68 -178 68q-65 0 -117 -25q-51 -25 -92 -71q-35 -41 -59 -117q-23 -72 -23 -158zM369 172q76 -66 178 -66q63 0 114.5 25t92.5 72q35 41 59 116q23 72 23 154q0 49 -11 105q-10 59 -24 88z" />
<glyph unicode="&#xf9;" horiz-adv-x="1058" d="M139 367v583h156v-581q0 -84 20 -133q25 -59 78 -94.5t137 -35.5q86 0 141.5 39t76.5 103q18 49 18 121v581h154v-583q0 -61 -5 -91q-6 -41 -18 -75q-18 -49 -49 -92q-25 -35 -78 -70q-49 -33 -106 -47q-66 -16 -137.5 -16.5t-133.5 16.5q-55 14 -102 45q-43 29 -76 69 q-31 41 -49 89q-14 35 -20.5 78t-6.5 94zM102 950zM311 1473h168l123 -349h-131z" />
<glyph unicode="&#xfa;" horiz-adv-x="1058" d="M139 367v583h156v-581q0 -84 20 -133q25 -59 78 -94.5t137 -35.5q86 0 141.5 39t76.5 103q18 49 18 121v581h154v-583q0 -61 -5 -91q-6 -41 -18 -75q-18 -49 -49 -92q-25 -35 -78 -70q-49 -33 -106 -47q-66 -16 -137.5 -16.5t-133.5 16.5q-55 14 -102 45q-43 29 -76 69 q-31 41 -49 89q-14 35 -20.5 78t-6.5 94zM248 950zM463 1124l123 349h168l-162 -349h-129z" />
<glyph unicode="&#xfb;" horiz-adv-x="1058" d="M139 367v583h156v-581q0 -84 20 -133q25 -59 78 -94.5t137 -35.5q86 0 141.5 39t76.5 103q18 49 18 121v581h154v-583q0 -61 -5 -91q-6 -41 -18 -75q-18 -49 -49 -92q-25 -35 -78 -70q-49 -33 -106 -47q-66 -16 -137.5 -16.5t-133.5 16.5q-55 14 -102 45q-43 29 -76 69 q-31 41 -49 89q-14 35 -20.5 78t-6.5 94zM182 950zM243 1124l209 349h158l211 -349h-141l-148 246h-4l-145 -246h-140z" />
<glyph unicode="&#xfc;" horiz-adv-x="1058" d="M139 367v583h156v-581q0 -84 20 -133q25 -59 78 -94.5t137 -35.5q86 0 141.5 39t76.5 103q18 49 18 121v581h154v-583q0 -61 -5 -91q-6 -41 -18 -75q-18 -49 -49 -92q-25 -35 -78 -70q-49 -33 -106 -47q-66 -16 -137.5 -16.5t-133.5 16.5q-55 14 -102 45q-43 29 -76 69 q-31 41 -49 89q-14 35 -20.5 78t-6.5 94zM180 950zM260 1171v166h160v-166h-160zM641 1171v166h160v-166h-160z" />
<glyph unicode="&#xfd;" horiz-adv-x="980" d="M31 950h157l295 -745h6l299 745h164l-594 -1415h-153l203 483zM197 950zM412 1124l123 349h168l-162 -349h-129z" />
<glyph unicode="&#xfe;" horiz-adv-x="1085" d="M150 -465v1913h155v-588h2q57 61 119 86q70 29 156 29q35 0 86 -10q46 -9 92 -31q47 -23 88 -57q39 -33 74 -91q33 -53 51 -129q18 -74 18 -168q0 -100 -18 -176q-16 -70 -51 -135q-27 -51 -76 -96q-37 -35 -88 -62q-47 -25 -94 -34q-51 -10 -91 -11q-82 0 -149 29 q-63 27 -117 84h-2v-553h-155zM305 215q55 -55 111 -80q63 -29 135 -29q39 0 92 17q45 14 90 59q39 39 68 117q27 72 26 182q0 109 -26 181q-29 76 -68 112q-41 37 -90 53q-45 14 -92 15q-78 0 -135 -29q-61 -31 -111 -80v-518z" />
<glyph unicode="&#xff;" horiz-adv-x="980" d="M31 950h157l295 -745h6l299 745h164l-594 -1415h-153l203 483zM137 950zM217 1171v166h160v-166h-160zM598 1171v166h160v-166h-160z" />
<glyph unicode="&#x131;" horiz-adv-x="473" d="M160 0v950h155v-950h-155z" />
<glyph unicode="&#x152;" horiz-adv-x="2162" d="M121 667.5q0 151.5 43 280.5q41 125 127 219q82 90 196 144q117 53 254 53q154 0 271 -61q119 -61 188 -166h4v200h811v-145h-649v-432h578v-148h-578v-465h686v-147h-848v205h-4q-74 -106 -186 -168q-114 -61 -271 -62q-143 0 -258 52q-119 53 -196 143q-82 96 -125 219 q-43 127 -43 278.5zM293 668q0 -141 35 -238q41 -111 96 -172q61 -68 145 -102q86 -35 181 -35q92 0 178 35q84 35 145.5 102.5t96 172t34.5 237.5q0 129 -35 237q-33 102 -96 172q-61 68 -145 105t-180 37q-95 0 -179 -37t-145 -105q-63 -70 -96 -172q-35 -108 -35 -237z " />
<glyph unicode="&#x153;" horiz-adv-x="1757" d="M94 473q0 109 33 207q31 92 90 158q57 63 141 100q83 37 185 37q135 0 225 -64q94 -66 141 -168h4q55 115 148 175q90 57 207 57q84 0 157 -31q76 -31 125 -92q47 -59 74 -154q25 -88 25 -192q0 -43 -2 -64h-652q0 -92 27 -153q25 -59 76 -103q47 -41 110 -59 q57 -16 140 -16q74 0 139 12q53 10 127 35v-129q-49 -23 -125 -39q-70 -14 -162 -15q-71 0 -135 13q-68 12 -117 39q-57 31 -96 69q-41 41 -70 105h-4q-53 -106 -143 -166t-219 -60q-111 0 -189 35t-139 103q-55 61 -88 157q-33 99 -33 203zM256 473q0 -82 22.5 -153.5 t61.5 -116.5q43 -49 90 -72q52 -25 117 -25q63 0 114.5 25t92.5 72q35 41 59 116q23 72 23 154q0 86 -23 158q-25 76 -59 117q-41 47 -92.5 71.5t-114.5 24.5q-65 0 -117 -25q-51 -25 -92 -71q-35 -41 -59 -117q-23 -72 -23 -158zM1004 575h479q0 59 -15 105q-15 49 -43 86 q-25 31 -67 55q-39 20 -96 21q-55 0 -99 -21q-47 -23 -80 -57q-35 -39 -55 -84q-16 -39 -24 -105z" />
<glyph unicode="&#x178;" horiz-adv-x="1216" d="M41 1337h176l389 -649h4l389 649h179l-488 -798v-539h-164v539zM336 1448v170h162v-170h-162zM719 1448v170h162v-170h-162zM258 1337z" />
<glyph unicode="&#x2c6;" horiz-adv-x="698" d="M0 950zM61 1124l209 349h158l211 -349h-141l-148 246h-4l-145 -246h-140z" />
<glyph unicode="&#x2da;" horiz-adv-x="698" d="M350 1100q-39 0 -90 14q-39 12 -72 37q-31 25 -49 61.5t-18 81.5t18.5 82t48.5 62q37 29 72 39q51 14 90 14t90 -14q35 -10 72 -39q31 -25 49.5 -62t18.5 -82t-18.5 -81.5t-49.5 -61.5q-33 -25 -72 -37q-51 -14 -90 -14zM350 1393q-43 0 -76 -27q-31 -25 -30.5 -72 t31 -71.5t75.5 -24.5t76 24.5t31 71.5t-31 72q-33 27 -76 27zM0 950z" />
<glyph unicode="&#x2dc;" horiz-adv-x="698" d="M0 950zM39 1178v22q0 23 8 68q6 29 27 61q20 31 53 45q37 16 80 16.5t80 -14.5q39 -14 71 -33l66 -32q33 -16 55 -17q29 0 45 23q14 20 15 65h123v-22q0 -23 -9 -68q-6 -29 -26 -61q-20 -31 -54 -45q-37 -16 -79.5 -16.5t-79.5 14.5q-39 14 -72 33l-66 32q-33 16 -55 17 q-29 0 -45 -23q-14 -20 -14 -65h-123z" />
<glyph unicode="&#x3bc;" horiz-adv-x="1179" d="M846 143q-51 -94 -131 -131t-180 -37q-72 0 -131.5 25t-90.5 72h-4l4 -363l2 -174h-155v1415h155v-590q0 -70 15 -112q14 -45 45 -78q27 -29 71 -45q41 -14 93 -14q70 0 118 20q55 23 91 64q39 45 59 108q18 55 18 152v495h156v-639q0 -57 6 -98q6 -40 18.5 -61.5 t30.5 -30.5q20 -10 43 -10q2 0 8.5 1t12.5 1q8 0 24 4v-123q-25 -4 -39 -6t-38 -2q-51 0 -80 10q-31 10 -55.5 32.5t-39.5 49.5q-12 25 -22 65h-4z" />
<glyph unicode="&#x2000;" horiz-adv-x="874" />
<glyph unicode="&#x2001;" horiz-adv-x="1748" />
<glyph unicode="&#x2002;" horiz-adv-x="874" />
<glyph unicode="&#x2003;" horiz-adv-x="1748" />
<glyph unicode="&#x2004;" horiz-adv-x="581" />
<glyph unicode="&#x2005;" horiz-adv-x="436" />
<glyph unicode="&#x2006;" horiz-adv-x="290" />
<glyph unicode="&#x2007;" horiz-adv-x="290" />
<glyph unicode="&#x2008;" horiz-adv-x="217" />
<glyph unicode="&#x2009;" horiz-adv-x="348" />
<glyph unicode="&#x200a;" horiz-adv-x="96" />
<glyph unicode="&#x2011;" horiz-adv-x="679" d="M121 426v145h440v-145h-440z" />
<glyph unicode="&#x2012;" horiz-adv-x="679" d="M121 426v145h440v-145h-440z" />
<glyph unicode="&#x2013;" horiz-adv-x="999" d="M0 432v125h999v-125h-999z" />
<glyph unicode="&#x2014;" horiz-adv-x="1699" d="M0 432v125h1700v-125h-1700z" />
<glyph unicode="&#x2018;" horiz-adv-x="448" d="M59 1337h144l176 -493h-172z" />
<glyph unicode="&#x2019;" horiz-adv-x="448" d="M70 844l145 493h174l-176 -493h-143z" />
<glyph unicode="&#x201a;" horiz-adv-x="448" d="M23 -268l145 493h174l-176 -493h-143z" />
<glyph unicode="&#x201c;" horiz-adv-x="808" d="M80 1337h143l156 -493h-172zM420 1337h143l176 -493h-176z" />
<glyph unicode="&#x201d;" horiz-adv-x="808" d="M70 844l145 493h174l-176 -493h-143zM399 844l174 493h177l-205 -493h-146z" />
<glyph unicode="&#x201e;" horiz-adv-x="808" d="M23 -268l145 493h174l-176 -493h-143zM352 -268l174 493h177l-205 -493h-146z" />
<glyph unicode="&#x2022;" horiz-adv-x="907" d="M139 668q0 66 25 123q25 59 65.5 100t100 65.5t125 24.5t123.5 -25q59 -25 100 -65.5t65 -99.5q25 -57 25 -123t-24.5 -125.5t-65.5 -100.5t-100 -65q-57 -25 -123 -25t-125.5 24.5t-100.5 65.5t-65.5 100.5t-24.5 125.5z" />
<glyph unicode="&#x2026;" horiz-adv-x="1622" d="M174 0v195h193v-195h-193zM717 0v195h190v-195h-190zM1257 0v195h191v-195h-191z" />
<glyph unicode="&#x202f;" horiz-adv-x="348" />
<glyph unicode="&#x2039;" horiz-adv-x="598" d="M111 473l264 377h145l-225 -377l225 -375h-145z" />
<glyph unicode="&#x203a;" horiz-adv-x="598" d="M80 98l225 375l-225 377h145l264 -377l-264 -375h-145z" />
<glyph unicode="&#x2044;" horiz-adv-x="456" d="M666 1364l102 -80l-979 -1309l-100 78z" />
<glyph unicode="&#x2215;" horiz-adv-x="456" d="M666 1364l102 -80l-979 -1309l-100 78z" />
<glyph unicode="&#x205f;" horiz-adv-x="436" />
<glyph unicode="&#x2070;" horiz-adv-x="684" d="M342 1364q66 0 117 -27q55 -29 90 -82q37 -55 57.5 -135t20.5 -190q0 -113 -20.5 -193t-57.5 -135q-35 -53 -90 -82q-51 -27 -117 -26q-63 0 -115 26q-55 29 -90 82q-37 55 -57.5 135t-20.5 193q0 111 20.5 190.5t57.5 134.5q35 53 90 82q52 27 115 27zM342 614 q70 0 107 78q35 72 34 238q0 164 -34 235q-37 76 -107 76q-68 0 -104 -76q-35 -72 -35 -235q0 -166 35 -238q36 -78 104 -78z" />
<glyph unicode="&#x2074;" horiz-adv-x="673" d="M188 815v-4l93 6h104v193h143v-193h97v-117h-97v-188h-143v188h-344v99l229 538h144z" />
<glyph unicode="&#x20ac;" d="M111 319v134h104q0 10 -1 22l-1 12v19q0 8 1 24.5t1 22.5q0 27 2 41h-106v133h133q27 82 65 141q43 63 102.5 108.5t141.5 70.5q74 23 176 22q43 0 66 -2q37 -4 61 -8q31 -6 55 -12q33 -8 45 -15v-135q-63 20 -104 27q-74 12 -113 12q-117 0 -207 -51q-82 -47 -122 -158 h370v-133h-399q-4 -25 -4 -39v-41q0 -43 2 -61h326v-134h-304q35 -115 119 -161q82 -47 223 -47q35 0 56 2q37 4 59 8l57 12t52 14v-135q-41 -16 -108.5 -26.5t-127.5 -10.5q-209 0 -334 91q-121 88 -161 253h-125z" />
<glyph unicode="&#x2122;" horiz-adv-x="1751" d="M102 1229v108h578v-108h-227v-576h-121v576h-230zM795 653v684h182l119 -297l28.5 -77.5t20.5 -55.5q12 -31 26 -73h7l24 73l51 133l117 297h184v-684h-118v330v139q0 47 4 80h-6q-37 -101 -86 -221l-131 -328h-84l-132 328q-41 96 -86 221h-6q4 -33 4 -80v-139v-330 h-118z" />
<glyph unicode="&#xe000;" horiz-adv-x="950" d="M0 950h950v-950h-950v950z" />
<glyph unicode="&#xfb01;" horiz-adv-x="1097" d="M31 817v133h166v111q0 109 39 192q35 76 98 127q61 49 139 70q84 23 164 23q39 0 61.5 -2.5t63.5 -6.5l61 -12q37 -8 51 -12v-131q-14 4 -108 20q-47 8 -113 8q-145 0 -223 -67.5t-78 -210.5v-109h586v-950h-156v817h-430v-817h-155v817h-166z" />
<glyph unicode="&#xfb02;" horiz-adv-x="1097" d="M31 817v133h166v111q0 109 39 190q37 78 98 127q63 51 141 72q84 23 164 23q29 0 86 -5q29 -2 82 -10q61 -10 72 -12q57 -16 59 -16v-1430h-156v1323q-20 6 -63 10q-41 4 -64 4q-147 0 -225 -67.5t-78 -210.5v-109h283v-133h-283v-817h-155v817h-166z" />
<glyph unicode="&#xfb03;" horiz-adv-x="1683" d="M31 817v133h166v150q0 94 28 168q28 71 74 117t111 67q61 20 137 21q25 0 69 -5q39 -4 56 -8v-131q-12 2 -33 4t-25 2q-16 2 -47 2q-51 0 -90 -12q-41 -12 -69 -41q-23 -23 -41 -76q-14 -43 -15 -112v-146h430v111q0 109 39 192q35 76 99 127q59 47 141 70q84 23 162 23 q39 0 61.5 -2.5t63.5 -6.5l61 -12q37 -8 51 -12v-131q-10 2 -110 20q-47 8 -109 8q-147 0 -225 -67.5t-78 -210.5v-109h586v-950h-156v817h-430v-817h-156v817h-430v-817h-155v817h-166z" />
<glyph unicode="&#xfb04;" horiz-adv-x="1683" d="M31 817v133h166v150q0 94 28 168q28 71 74 117t111 67q61 20 137 21q25 0 69 -5q39 -4 56 -8v-131q-12 2 -34 4t-24 2q-18 2 -47 2q-51 0 -90 -12q-41 -12 -69 -41q-23 -23 -41 -76q-14 -43 -15 -112v-146h430v111q0 109 39 190q37 78 99 127q63 51 141 72q84 23 166 23 q29 0 86 -5q25 -2 80 -10q66 -10 73 -12q49 -14 58 -16v-1430h-156v1325q-39 8 -63 10q-20 2 -64 2q-147 0 -225 -67.5t-78 -210.5v-109h283v-133h-283v-817h-156v817h-430v-817h-155v817h-166z" />
<glyph horiz-adv-x="776" d="M530 596h-4q-20 -25 -34 -37q-18 -16 -50 -33q-20 -12 -61 -22q-37 -10 -70 -10q-49 0 -94 16t-74 45q-37 37 -51 70q-16 39 -16 94q0 53 18 96q18 41 56 76q29 27 83 47q43 16 105 16q57 0 98 -8q55 -12 84 -20h4v51q0 68 -43 106q-41 39 -139 39q-47 0 -104 -10 q-45 -8 -101 -29v119q40 18 99 31q49 10 122 10q145 0 227.5 -67.5t82.5 -190.5v-473h-125zM524 811q-41 10 -78 16q-43 6 -90 7q-31 0 -55 -7q-27 -6 -43 -20q-18 -15 -31 -37q-10 -18 -10 -51q0 -47 33 -76t82 -29q57 0 106 25q45 23 86 57v115z" />
<glyph horiz-adv-x="837" d="M621 868q0 70 -15 113q-16 51 -41 78q-33 37 -63 49q-35 14 -82 14q-92 0 -148 -63q-55 -65 -55 -191q0 -68 14 -110q18 -55 41 -80q29 -31 66 -47q39 -16 82 -17q90 0 145 64q56 64 56 190zM764 868q0 -78 -27 -151q-25 -70 -71 -119q-43 -47 -109 -76 q-63 -29 -137 -28.5t-141 28.5q-63 27 -109 76q-43 45 -70 119q-25 68 -24 151q0 86 24 154q25 66 72 117q49 53 109 78q61 27 139 26.5t139 -26.5q59 -25 109 -78q45 -47 69 -117q27 -74 27 -154z" />
<glyph horiz-adv-x="698" d="M326 1657l145 -248h-137l-182 248h174zM0 1337z" />
<glyph horiz-adv-x="698" d="M471 1657l-180 -248h-139l147 248h172zM2 1337z" />
<glyph horiz-adv-x="698" d="M430 1657l215 -248h-158l-137 152h-4l-135 -152h-158l215 248h162zM0 1337z" />
<glyph horiz-adv-x="698" d="M207 1640q43 0 80 -14q51 -20 71 -31q16 -10 64 -32q29 -14 55 -15q35 0 47 23q14 25 15 61h125v-20q0 -23 -9 -68q-6 -35 -26 -61q-25 -33 -54 -45q-37 -16 -81 -17q-43 0 -80 15q-39 14 -72 32q-18 10 -35.5 18.5t-27.5 12.5q-29 14 -56 14q-35 0 -47 -22 q-14 -25 -14 -61h-125v14q0 35 6 71.5t28.5 65.5t53.5 43q37 16 82 16zM0 1337z" />
<glyph horiz-adv-x="698" d="M78 1448v170h162v-170h-162zM461 1448v170h162v-170h-162zM0 1337z" />
<glyph horiz-adv-x="698" d="M350 1376q-47 0 -90 13q-39 12 -72 36q-31 25 -49 60t-18 78q0 47 18 79q18 35 49 60q29 23 72 35t90 12t90 -12.5t72 -34.5q31 -25 49 -60q18 -33 19 -79q0 -43 -18.5 -78t-49.5 -60q-33 -25 -72 -36q-43 -13 -90 -13zM350 1653q-43 0 -76 -23q-31 -20 -30 -67 q0 -43 30 -66q33 -23 76 -22.5t76 22.5q31 23 31 66q0 47 -31 67q-33 23 -76 23zM0 1337z" />
</font>
</defs>
</svg>
